<ttFont>
    <TTGlyph name=".notdef" xMin="180" yMin="0" xMax="570" yMax="701">
      <contour>
        <pt x="234" y="651" on="1"/>
        <pt x="234" y="50" on="1"/>
        <pt x="516" y="50" on="1"/>
        <pt x="516" y="651" on="1"/>
      </contour>
      <contour>
        <pt x="180" y="0" on="1"/>
        <pt x="180" y="701" on="1"/>
        <pt x="570" y="701" on="1"/>
        <pt x="570" y="0" on="1"/>
      </contour>
    </TTGlyph>
    <TTGlyph name="A" xMin="17" yMin="0" xMax="421" yMax="672">
      <contour>
        <pt x="350" y="0" on="1"/>
        <pt x="309" y="188" on="1"/>
        <pt x="129" y="188" on="1"/>
        <pt x="88" y="0" on="1"/>
        <pt x="17" y="0" on="1"/>
        <pt x="169" y="672" on="1"/>
        <pt x="269" y="672" on="1"/>
        <pt x="421" y="0" on="1"/>
      </contour>
      <contour>
        <pt x="142" y="250" on="1"/>
        <pt x="295" y="250" on="1"/>
        <pt x="218" y="603" on="1"/>
      </contour>
    </TTGlyph>
    <TTGlyph name="AE" xMin="8" yMin="0" xMax="644" yMax="672">
      <contour>
        <pt x="644" y="609" on="1"/>
        <pt x="423" y="609" on="1"/>
        <pt x="423" y="370" on="1"/>
        <pt x="615" y="370" on="1"/>
        <pt x="615" y="307" on="1"/>
        <pt x="423" y="307" on="1"/>
        <pt x="423" y="63" on="1"/>
        <pt x="644" y="63" on="1"/>
        <pt x="644" y="0" on="1"/>
        <pt x="354" y="0" on="1"/>
        <pt x="354" y="188" on="1"/>
        <pt x="165" y="188" on="1"/>
        <pt x="82" y="0" on="1"/>
        <pt x="8" y="0" on="1"/>
        <pt x="311" y="672" on="1"/>
        <pt x="644" y="672" on="1"/>
      </contour>
      <contour>
        <pt x="354" y="250" on="1"/>
        <pt x="354" y="620" on="1"/>
        <pt x="192" y="250" on="1"/>
      </contour>
    </TTGlyph>
    <TTGlyph name="Aacute" xMin="17" yMin="0" xMax="421" yMax="820">
      <contour>
        <pt x="350" y="0" on="1"/>
        <pt x="309" y="188" on="1"/>
        <pt x="129" y="188" on="1"/>
        <pt x="88" y="0" on="1"/>
        <pt x="17" y="0" on="1"/>
        <pt x="169" y="672" on="1"/>
        <pt x="269" y="672" on="1"/>
        <pt x="421" y="0" on="1"/>
      </contour>
      <contour>
        <pt x="142" y="250" on="1"/>
        <pt x="295" y="250" on="1"/>
        <pt x="218" y="603" on="1"/>
      </contour>
      <contour>
        <pt x="301" y="820" on="1"/>
        <pt x="241" y="713" on="1"/>
        <pt x="195" y="713" on="1"/>
        <pt x="234" y="820" on="1"/>
      </contour>
    </TTGlyph>
    <TTGlyph name="Abreve" xMin="17" yMin="0" xMax="421" yMax="820">
      <contour>
        <pt x="350" y="0" on="1"/>
        <pt x="309" y="188" on="1"/>
        <pt x="129" y="188" on="1"/>
        <pt x="88" y="0" on="1"/>
        <pt x="17" y="0" on="1"/>
        <pt x="169" y="672" on="1"/>
        <pt x="269" y="672" on="1"/>
        <pt x="421" y="0" on="1"/>
      </contour>
      <contour>
        <pt x="142" y="250" on="1"/>
        <pt x="295" y="250" on="1"/>
        <pt x="218" y="603" on="1"/>
      </contour>
      <contour>
        <pt x="268" y="713" on="0"/>
        <pt x="168" y="713" on="0"/>
        <pt x="110" y="773" on="0"/>
        <pt x="108" y="820" on="1"/>
        <pt x="158" y="820" on="1"/>
        <pt x="159" y="792" on="0"/>
        <pt x="191" y="759" on="0"/>
        <pt x="245" y="759" on="0"/>
        <pt x="277" y="792" on="0"/>
        <pt x="278" y="820" on="1"/>
        <pt x="328" y="820" on="1"/>
        <pt x="326" y="773" on="0"/>
      </contour>
    </TTGlyph>
    <TTGlyph name="Acircumflex" xMin="17" yMin="0" xMax="421" yMax="820">
      <contour>
        <pt x="350" y="0" on="1"/>
        <pt x="309" y="188" on="1"/>
        <pt x="129" y="188" on="1"/>
        <pt x="88" y="0" on="1"/>
        <pt x="17" y="0" on="1"/>
        <pt x="169" y="672" on="1"/>
        <pt x="269" y="672" on="1"/>
        <pt x="421" y="0" on="1"/>
      </contour>
      <contour>
        <pt x="142" y="250" on="1"/>
        <pt x="295" y="250" on="1"/>
        <pt x="218" y="603" on="1"/>
      </contour>
      <contour>
        <pt x="221" y="776" on="1"/>
        <pt x="185" y="713" on="1"/>
        <pt x="141" y="713" on="1"/>
        <pt x="191" y="820" on="1"/>
        <pt x="250" y="820" on="1"/>
        <pt x="301" y="713" on="1"/>
        <pt x="257" y="713" on="1"/>
      </contour>
    </TTGlyph>
    <TTGlyph name="Adieresis" xMin="17" yMin="0" xMax="421" yMax="803">
      <contour>
        <pt x="350" y="0" on="1"/>
        <pt x="309" y="188" on="1"/>
        <pt x="129" y="188" on="1"/>
        <pt x="88" y="0" on="1"/>
        <pt x="17" y="0" on="1"/>
        <pt x="169" y="672" on="1"/>
        <pt x="269" y="672" on="1"/>
        <pt x="421" y="0" on="1"/>
      </contour>
      <contour>
        <pt x="142" y="250" on="1"/>
        <pt x="295" y="250" on="1"/>
        <pt x="218" y="603" on="1"/>
      </contour>
      <contour>
        <pt x="189" y="728" on="0"/>
        <pt x="112" y="728" on="0"/>
        <pt x="112" y="803" on="0"/>
        <pt x="189" y="803" on="0"/>
      </contour>
      <contour>
        <pt x="323" y="728" on="0"/>
        <pt x="247" y="728" on="0"/>
        <pt x="247" y="803" on="0"/>
        <pt x="323" y="803" on="0"/>
      </contour>
    </TTGlyph>
    <TTGlyph name="Agrave" xMin="17" yMin="0" xMax="421" yMax="820">
      <contour>
        <pt x="350" y="0" on="1"/>
        <pt x="309" y="188" on="1"/>
        <pt x="129" y="188" on="1"/>
        <pt x="88" y="0" on="1"/>
        <pt x="17" y="0" on="1"/>
        <pt x="169" y="672" on="1"/>
        <pt x="269" y="672" on="1"/>
        <pt x="421" y="0" on="1"/>
      </contour>
      <contour>
        <pt x="142" y="250" on="1"/>
        <pt x="295" y="250" on="1"/>
        <pt x="218" y="603" on="1"/>
      </contour>
      <contour>
        <pt x="237" y="713" on="1"/>
        <pt x="191" y="713" on="1"/>
        <pt x="131" y="820" on="1"/>
        <pt x="198" y="820" on="1"/>
      </contour>
    </TTGlyph>
    <TTGlyph name="Amacron" xMin="17" yMin="0" xMax="421" yMax="790">
      <contour>
        <pt x="350" y="0" on="1"/>
        <pt x="309" y="188" on="1"/>
        <pt x="129" y="188" on="1"/>
        <pt x="88" y="0" on="1"/>
        <pt x="17" y="0" on="1"/>
        <pt x="169" y="672" on="1"/>
        <pt x="269" y="672" on="1"/>
        <pt x="421" y="0" on="1"/>
      </contour>
      <contour>
        <pt x="142" y="250" on="1"/>
        <pt x="295" y="250" on="1"/>
        <pt x="218" y="603" on="1"/>
      </contour>
      <contour>
        <pt x="328" y="790" on="1"/>
        <pt x="328" y="743" on="1"/>
        <pt x="106" y="743" on="1"/>
        <pt x="106" y="790" on="1"/>
      </contour>
    </TTGlyph>
    <TTGlyph name="Aogonek" xMin="17" yMin="-176" xMax="421" yMax="672">
      <contour>
        <pt x="371" y="-93" on="1"/>
        <pt x="371" y="-129" on="0"/>
        <pt x="408" y="-129" on="1"/>
        <pt x="419" y="-129" on="1"/>
        <pt x="419" y="-176" on="1"/>
        <pt x="405" y="-176" on="1"/>
        <pt x="323" y="-176" on="0"/>
        <pt x="323" y="-108" on="1"/>
        <pt x="323" y="-46" on="0"/>
        <pt x="383" y="0" on="1"/>
        <pt x="350" y="0" on="1"/>
        <pt x="309" y="188" on="1"/>
        <pt x="129" y="188" on="1"/>
        <pt x="88" y="0" on="1"/>
        <pt x="17" y="0" on="1"/>
        <pt x="169" y="672" on="1"/>
        <pt x="269" y="672" on="1"/>
        <pt x="421" y="0" on="1"/>
        <pt x="419" y="0" on="1"/>
        <pt x="371" y="-38" on="0"/>
      </contour>
      <contour>
        <pt x="142" y="250" on="1"/>
        <pt x="295" y="250" on="1"/>
        <pt x="218" y="603" on="1"/>
      </contour>
    </TTGlyph>
    <TTGlyph name="Aring" xMin="17" yMin="0" xMax="421" yMax="839">
      <contour>
        <pt x="350" y="0" on="1"/>
        <pt x="309" y="188" on="1"/>
        <pt x="129" y="188" on="1"/>
        <pt x="88" y="0" on="1"/>
        <pt x="17" y="0" on="1"/>
        <pt x="169" y="672" on="1"/>
        <pt x="269" y="672" on="1"/>
        <pt x="421" y="0" on="1"/>
      </contour>
      <contour>
        <pt x="142" y="250" on="1"/>
        <pt x="295" y="250" on="1"/>
        <pt x="218" y="603" on="1"/>
      </contour>
      <contour>
        <pt x="292" y="736" on="0"/>
        <pt x="253" y="694" on="0"/>
        <pt x="184" y="694" on="0"/>
        <pt x="144" y="736" on="0"/>
        <pt x="144" y="798" on="0"/>
        <pt x="184" y="839" on="0"/>
        <pt x="253" y="839" on="0"/>
        <pt x="292" y="798" on="0"/>
      </contour>
      <contour>
        <pt x="234" y="802" on="0"/>
        <pt x="202" y="802" on="0"/>
        <pt x="183" y="783" on="0"/>
        <pt x="183" y="767" on="1"/>
        <pt x="183" y="731" on="0"/>
        <pt x="253" y="731" on="0"/>
        <pt x="253" y="767" on="1"/>
        <pt x="253" y="783" on="0"/>
      </contour>
    </TTGlyph>
    <TTGlyph name="Atilde" xMin="17" yMin="0" xMax="421" yMax="812">
      <contour>
        <pt x="350" y="0" on="1"/>
        <pt x="309" y="188" on="1"/>
        <pt x="129" y="188" on="1"/>
        <pt x="88" y="0" on="1"/>
        <pt x="17" y="0" on="1"/>
        <pt x="169" y="672" on="1"/>
        <pt x="269" y="672" on="1"/>
        <pt x="421" y="0" on="1"/>
      </contour>
      <contour>
        <pt x="142" y="250" on="1"/>
        <pt x="295" y="250" on="1"/>
        <pt x="218" y="603" on="1"/>
      </contour>
      <contour>
        <pt x="149" y="733" on="1"/>
        <pt x="149" y="722" on="1"/>
        <pt x="99" y="722" on="1"/>
        <pt x="99" y="735" on="1"/>
        <pt x="99" y="769" on="0"/>
        <pt x="133" y="810" on="0"/>
        <pt x="193" y="810" on="0"/>
        <pt x="263" y="769" on="0"/>
        <pt x="274" y="769" on="1"/>
        <pt x="296" y="769" on="0"/>
        <pt x="296" y="801" on="1"/>
        <pt x="296" y="812" on="1"/>
        <pt x="346" y="812" on="1"/>
        <pt x="346" y="798" on="1"/>
        <pt x="346" y="763" on="0"/>
        <pt x="312" y="724" on="0"/>
        <pt x="255" y="724" on="0"/>
        <pt x="187" y="764" on="0"/>
        <pt x="172" y="764" on="1"/>
        <pt x="149" y="764" on="0"/>
      </contour>
    </TTGlyph>
    <TTGlyph name="B" xMin="69" yMin="0" xMax="409" yMax="672">
      <contour>
        <pt x="403" y="520" on="1"/>
        <pt x="403" y="463" on="1"/>
        <pt x="403" y="367" on="0"/>
        <pt x="329" y="339" on="1"/>
        <pt x="409" y="312" on="0"/>
        <pt x="409" y="212" on="1"/>
        <pt x="409" y="152" on="1"/>
        <pt x="409" y="81" on="0"/>
        <pt x="328" y="0" on="0"/>
        <pt x="248" y="0" on="1"/>
        <pt x="69" y="0" on="1"/>
        <pt x="69" y="672" on="1"/>
        <pt x="242" y="672" on="1"/>
        <pt x="322" y="672" on="0"/>
        <pt x="403" y="591" on="0"/>
      </contour>
      <contour>
        <pt x="236" y="610" on="1"/>
        <pt x="140" y="610" on="1"/>
        <pt x="140" y="369" on="1"/>
        <pt x="236" y="369" on="1"/>
        <pt x="332" y="369" on="0"/>
        <pt x="332" y="461" on="1"/>
        <pt x="332" y="518" on="1"/>
        <pt x="332" y="610" on="0"/>
      </contour>
      <contour>
        <pt x="338" y="154" on="1"/>
        <pt x="338" y="214" on="1"/>
        <pt x="338" y="306" on="0"/>
        <pt x="242" y="306" on="1"/>
        <pt x="140" y="306" on="1"/>
        <pt x="140" y="62" on="1"/>
        <pt x="242" y="62" on="1"/>
        <pt x="338" y="62" on="0"/>
      </contour>
    </TTGlyph>
    <TTGlyph name="C" xMin="59" yMin="-5" xMax="357" yMax="677">
      <contour>
        <pt x="59" y="535" on="1"/>
        <pt x="59" y="677" on="0"/>
        <pt x="239" y="677" on="1"/>
        <pt x="297" y="677" on="0"/>
        <pt x="355" y="661" on="1"/>
        <pt x="355" y="595" on="1"/>
        <pt x="296" y="612" on="0"/>
        <pt x="178" y="612" on="0"/>
        <pt x="130" y="571" on="0"/>
        <pt x="130" y="531" on="1"/>
        <pt x="130" y="140" on="1"/>
        <pt x="130" y="101" on="0"/>
        <pt x="179" y="60" on="0"/>
        <pt x="302" y="60" on="0"/>
        <pt x="357" y="76" on="1"/>
        <pt x="357" y="11" on="1"/>
        <pt x="307" y="-5" on="0"/>
        <pt x="239" y="-5" on="1"/>
        <pt x="59" y="-5" on="0"/>
        <pt x="59" y="137" on="1"/>
      </contour>
    </TTGlyph>
    <TTGlyph name="Cacute" xMin="59" yMin="-5" xMax="357" yMax="820">
      <contour>
        <pt x="59" y="535" on="1"/>
        <pt x="59" y="677" on="0"/>
        <pt x="239" y="677" on="1"/>
        <pt x="297" y="677" on="0"/>
        <pt x="355" y="661" on="1"/>
        <pt x="355" y="595" on="1"/>
        <pt x="296" y="612" on="0"/>
        <pt x="178" y="612" on="0"/>
        <pt x="130" y="571" on="0"/>
        <pt x="130" y="531" on="1"/>
        <pt x="130" y="140" on="1"/>
        <pt x="130" y="101" on="0"/>
        <pt x="179" y="60" on="0"/>
        <pt x="302" y="60" on="0"/>
        <pt x="357" y="76" on="1"/>
        <pt x="357" y="11" on="1"/>
        <pt x="307" y="-5" on="0"/>
        <pt x="239" y="-5" on="1"/>
        <pt x="59" y="-5" on="0"/>
        <pt x="59" y="137" on="1"/>
      </contour>
      <contour>
        <pt x="241" y="820" on="1"/>
        <pt x="308" y="820" on="1"/>
        <pt x="248" y="713" on="1"/>
        <pt x="202" y="713" on="1"/>
      </contour>
    </TTGlyph>
    <TTGlyph name="Ccaron" xMin="59" yMin="-5" xMax="357" yMax="820">
      <contour>
        <pt x="130" y="531" on="1"/>
        <pt x="130" y="140" on="1"/>
        <pt x="130" y="101" on="0"/>
        <pt x="179" y="60" on="0"/>
        <pt x="302" y="60" on="0"/>
        <pt x="357" y="76" on="1"/>
        <pt x="357" y="11" on="1"/>
        <pt x="307" y="-5" on="0"/>
        <pt x="239" y="-5" on="1"/>
        <pt x="59" y="-5" on="0"/>
        <pt x="59" y="137" on="1"/>
        <pt x="59" y="535" on="1"/>
        <pt x="59" y="677" on="0"/>
        <pt x="239" y="677" on="1"/>
        <pt x="297" y="677" on="0"/>
        <pt x="355" y="661" on="1"/>
        <pt x="355" y="595" on="1"/>
        <pt x="296" y="612" on="0"/>
        <pt x="178" y="612" on="0"/>
        <pt x="130" y="571" on="0"/>
      </contour>
      <contour>
        <pt x="197" y="713" on="1"/>
        <pt x="147" y="820" on="1"/>
        <pt x="191" y="820" on="1"/>
        <pt x="227" y="757" on="1"/>
        <pt x="263" y="820" on="1"/>
        <pt x="307" y="820" on="1"/>
        <pt x="256" y="713" on="1"/>
      </contour>
    </TTGlyph>
    <TTGlyph name="Ccedilla" xMin="59" yMin="-182" xMax="357" yMax="677">
      <contour>
        <pt x="262" y="-42" on="0"/>
        <pt x="300" y="-76" on="0"/>
        <pt x="300" y="-143" on="0"/>
        <pt x="250" y="-182" on="0"/>
        <pt x="181" y="-182" on="0"/>
        <pt x="161" y="-175" on="1"/>
        <pt x="161" y="-135" on="1"/>
        <pt x="178" y="-142" on="0"/>
        <pt x="204" y="-142" on="1"/>
        <pt x="255" y="-142" on="0"/>
        <pt x="255" y="-69" on="0"/>
        <pt x="202" y="-69" on="1"/>
        <pt x="189" y="-69" on="1"/>
        <pt x="202" y="-3" on="1"/>
        <pt x="59" y="11" on="0"/>
        <pt x="59" y="137" on="1"/>
        <pt x="59" y="535" on="1"/>
        <pt x="59" y="677" on="0"/>
        <pt x="239" y="677" on="1"/>
        <pt x="297" y="677" on="0"/>
        <pt x="355" y="661" on="1"/>
        <pt x="355" y="595" on="1"/>
        <pt x="296" y="612" on="0"/>
        <pt x="178" y="612" on="0"/>
        <pt x="130" y="571" on="0"/>
        <pt x="130" y="531" on="1"/>
        <pt x="130" y="140" on="1"/>
        <pt x="130" y="101" on="0"/>
        <pt x="179" y="60" on="0"/>
        <pt x="302" y="60" on="0"/>
        <pt x="357" y="76" on="1"/>
        <pt x="357" y="11" on="1"/>
        <pt x="307" y="-5" on="0"/>
        <pt x="240" y="-5" on="1"/>
        <pt x="232" y="-40" on="1"/>
      </contour>
    </TTGlyph>
    <TTGlyph name="D" xMin="69" yMin="0" xMax="407" yMax="672">
      <contour>
        <pt x="336" y="520" on="1"/>
        <pt x="336" y="610" on="0"/>
        <pt x="241" y="610" on="1"/>
        <pt x="140" y="610" on="1"/>
        <pt x="140" y="63" on="1"/>
        <pt x="241" y="63" on="1"/>
        <pt x="336" y="63" on="0"/>
        <pt x="336" y="155" on="1"/>
      </contour>
      <contour>
        <pt x="69" y="672" on="1"/>
        <pt x="245" y="672" on="1"/>
        <pt x="325" y="672" on="0"/>
        <pt x="407" y="590" on="0"/>
        <pt x="407" y="521" on="1"/>
        <pt x="407" y="153" on="1"/>
        <pt x="407" y="82" on="0"/>
        <pt x="327" y="0" on="0"/>
        <pt x="247" y="0" on="1"/>
        <pt x="69" y="0" on="1"/>
      </contour>
    </TTGlyph>
    <TTGlyph name="Dcaron" xMin="69" yMin="0" xMax="407" yMax="820">
      <contour>
        <pt x="69" y="672" on="1"/>
        <pt x="245" y="672" on="1"/>
        <pt x="325" y="672" on="0"/>
        <pt x="407" y="590" on="0"/>
        <pt x="407" y="521" on="1"/>
        <pt x="407" y="153" on="1"/>
        <pt x="407" y="82" on="0"/>
        <pt x="327" y="0" on="0"/>
        <pt x="247" y="0" on="1"/>
        <pt x="69" y="0" on="1"/>
      </contour>
      <contour>
        <pt x="336" y="155" on="1"/>
        <pt x="336" y="520" on="1"/>
        <pt x="336" y="610" on="0"/>
        <pt x="241" y="610" on="1"/>
        <pt x="140" y="610" on="1"/>
        <pt x="140" y="63" on="1"/>
        <pt x="241" y="63" on="1"/>
        <pt x="336" y="63" on="0"/>
      </contour>
      <contour>
        <pt x="196" y="713" on="1"/>
        <pt x="146" y="820" on="1"/>
        <pt x="190" y="820" on="1"/>
        <pt x="226" y="757" on="1"/>
        <pt x="262" y="820" on="1"/>
        <pt x="306" y="820" on="1"/>
        <pt x="255" y="713" on="1"/>
      </contour>
    </TTGlyph>
    <TTGlyph name="Dcroat" xMin="10" yMin="0" xMax="409" yMax="672">
      <contour>
        <pt x="71" y="672" on="1"/>
        <pt x="247" y="672" on="1"/>
        <pt x="327" y="672" on="0"/>
        <pt x="409" y="590" on="0"/>
        <pt x="409" y="521" on="1"/>
        <pt x="409" y="153" on="1"/>
        <pt x="409" y="82" on="0"/>
        <pt x="329" y="0" on="0"/>
        <pt x="249" y="0" on="1"/>
        <pt x="71" y="0" on="1"/>
        <pt x="71" y="304" on="1"/>
        <pt x="10" y="304" on="1"/>
        <pt x="10" y="366" on="1"/>
        <pt x="71" y="366" on="1"/>
      </contour>
      <contour>
        <pt x="338" y="155" on="1"/>
        <pt x="338" y="520" on="1"/>
        <pt x="338" y="610" on="0"/>
        <pt x="243" y="610" on="1"/>
        <pt x="142" y="610" on="1"/>
        <pt x="142" y="366" on="1"/>
        <pt x="243" y="366" on="1"/>
        <pt x="243" y="304" on="1"/>
        <pt x="142" y="304" on="1"/>
        <pt x="142" y="63" on="1"/>
        <pt x="243" y="63" on="1"/>
        <pt x="338" y="63" on="0"/>
      </contour>
    </TTGlyph>
    <TTGlyph name="E" xMin="69" yMin="0" xMax="360" yMax="672">
      <contour>
        <pt x="69" y="672" on="1"/>
        <pt x="360" y="672" on="1"/>
        <pt x="360" y="609" on="1"/>
        <pt x="140" y="609" on="1"/>
        <pt x="140" y="370" on="1"/>
        <pt x="332" y="370" on="1"/>
        <pt x="332" y="307" on="1"/>
        <pt x="140" y="307" on="1"/>
        <pt x="140" y="63" on="1"/>
        <pt x="360" y="63" on="1"/>
        <pt x="360" y="0" on="1"/>
        <pt x="69" y="0" on="1"/>
      </contour>
    </TTGlyph>
    <TTGlyph name="Eacute" xMin="69" yMin="0" xMax="360" yMax="820">
      <contour>
        <pt x="69" y="672" on="1"/>
        <pt x="360" y="672" on="1"/>
        <pt x="360" y="609" on="1"/>
        <pt x="140" y="609" on="1"/>
        <pt x="140" y="370" on="1"/>
        <pt x="332" y="370" on="1"/>
        <pt x="332" y="307" on="1"/>
        <pt x="140" y="307" on="1"/>
        <pt x="140" y="63" on="1"/>
        <pt x="360" y="63" on="1"/>
        <pt x="360" y="0" on="1"/>
        <pt x="69" y="0" on="1"/>
      </contour>
      <contour>
        <pt x="231" y="820" on="1"/>
        <pt x="298" y="820" on="1"/>
        <pt x="238" y="713" on="1"/>
        <pt x="192" y="713" on="1"/>
      </contour>
    </TTGlyph>
    <TTGlyph name="Ecaron" xMin="69" yMin="0" xMax="360" yMax="820">
      <contour>
        <pt x="360" y="609" on="1"/>
        <pt x="140" y="609" on="1"/>
        <pt x="140" y="370" on="1"/>
        <pt x="332" y="370" on="1"/>
        <pt x="332" y="307" on="1"/>
        <pt x="140" y="307" on="1"/>
        <pt x="140" y="63" on="1"/>
        <pt x="360" y="63" on="1"/>
        <pt x="360" y="0" on="1"/>
        <pt x="69" y="0" on="1"/>
        <pt x="69" y="672" on="1"/>
        <pt x="360" y="672" on="1"/>
      </contour>
      <contour>
        <pt x="186" y="713" on="1"/>
        <pt x="136" y="820" on="1"/>
        <pt x="180" y="820" on="1"/>
        <pt x="216" y="757" on="1"/>
        <pt x="252" y="820" on="1"/>
        <pt x="296" y="820" on="1"/>
        <pt x="245" y="713" on="1"/>
      </contour>
    </TTGlyph>
    <TTGlyph name="Ecircumflex" xMin="69" yMin="0" xMax="360" yMax="820">
      <contour>
        <pt x="360" y="609" on="1"/>
        <pt x="140" y="609" on="1"/>
        <pt x="140" y="370" on="1"/>
        <pt x="332" y="370" on="1"/>
        <pt x="332" y="307" on="1"/>
        <pt x="140" y="307" on="1"/>
        <pt x="140" y="63" on="1"/>
        <pt x="360" y="63" on="1"/>
        <pt x="360" y="0" on="1"/>
        <pt x="69" y="0" on="1"/>
        <pt x="69" y="672" on="1"/>
        <pt x="360" y="672" on="1"/>
      </contour>
      <contour>
        <pt x="209" y="776" on="1"/>
        <pt x="173" y="713" on="1"/>
        <pt x="129" y="713" on="1"/>
        <pt x="179" y="820" on="1"/>
        <pt x="238" y="820" on="1"/>
        <pt x="289" y="713" on="1"/>
        <pt x="245" y="713" on="1"/>
      </contour>
    </TTGlyph>
    <TTGlyph name="Edieresis" xMin="69" yMin="0" xMax="360" yMax="803">
      <contour>
        <pt x="69" y="672" on="1"/>
        <pt x="360" y="672" on="1"/>
        <pt x="360" y="609" on="1"/>
        <pt x="140" y="609" on="1"/>
        <pt x="140" y="370" on="1"/>
        <pt x="332" y="370" on="1"/>
        <pt x="332" y="307" on="1"/>
        <pt x="140" y="307" on="1"/>
        <pt x="140" y="63" on="1"/>
        <pt x="360" y="63" on="1"/>
        <pt x="360" y="0" on="1"/>
        <pt x="69" y="0" on="1"/>
      </contour>
      <contour>
        <pt x="322" y="728" on="0"/>
        <pt x="246" y="728" on="0"/>
        <pt x="246" y="803" on="0"/>
        <pt x="322" y="803" on="0"/>
      </contour>
      <contour>
        <pt x="111" y="728" on="0"/>
        <pt x="111" y="803" on="0"/>
        <pt x="188" y="803" on="0"/>
        <pt x="188" y="728" on="0"/>
      </contour>
    </TTGlyph>
    <TTGlyph name="Edotaccent" xMin="69" yMin="0" xMax="360" yMax="826">
      <contour>
        <pt x="181" y="751" on="0"/>
        <pt x="181" y="826" on="0"/>
        <pt x="258" y="826" on="0"/>
        <pt x="258" y="751" on="0"/>
      </contour>
      <contour>
        <pt x="69" y="672" on="1"/>
        <pt x="360" y="672" on="1"/>
        <pt x="360" y="609" on="1"/>
        <pt x="140" y="609" on="1"/>
        <pt x="140" y="370" on="1"/>
        <pt x="332" y="370" on="1"/>
        <pt x="332" y="307" on="1"/>
        <pt x="140" y="307" on="1"/>
        <pt x="140" y="63" on="1"/>
        <pt x="360" y="63" on="1"/>
        <pt x="360" y="0" on="1"/>
        <pt x="69" y="0" on="1"/>
      </contour>
    </TTGlyph>
    <TTGlyph name="Egrave" xMin="69" yMin="0" xMax="360" yMax="820">
      <contour>
        <pt x="133" y="820" on="1"/>
        <pt x="200" y="820" on="1"/>
        <pt x="239" y="713" on="1"/>
        <pt x="193" y="713" on="1"/>
      </contour>
      <contour>
        <pt x="69" y="672" on="1"/>
        <pt x="360" y="672" on="1"/>
        <pt x="360" y="609" on="1"/>
        <pt x="140" y="609" on="1"/>
        <pt x="140" y="370" on="1"/>
        <pt x="332" y="370" on="1"/>
        <pt x="332" y="307" on="1"/>
        <pt x="140" y="307" on="1"/>
        <pt x="140" y="63" on="1"/>
        <pt x="360" y="63" on="1"/>
        <pt x="360" y="0" on="1"/>
        <pt x="69" y="0" on="1"/>
      </contour>
    </TTGlyph>
    <TTGlyph name="Emacron" xMin="69" yMin="0" xMax="360" yMax="790">
      <contour>
        <pt x="104" y="790" on="1"/>
        <pt x="326" y="790" on="1"/>
        <pt x="326" y="743" on="1"/>
        <pt x="104" y="743" on="1"/>
      </contour>
      <contour>
        <pt x="69" y="672" on="1"/>
        <pt x="360" y="672" on="1"/>
        <pt x="360" y="609" on="1"/>
        <pt x="140" y="609" on="1"/>
        <pt x="140" y="370" on="1"/>
        <pt x="332" y="370" on="1"/>
        <pt x="332" y="307" on="1"/>
        <pt x="140" y="307" on="1"/>
        <pt x="140" y="63" on="1"/>
        <pt x="360" y="63" on="1"/>
        <pt x="360" y="0" on="1"/>
        <pt x="69" y="0" on="1"/>
      </contour>
    </TTGlyph>
    <TTGlyph name="Eogonek" xMin="69" yMin="-176" xMax="360" yMax="672">
      <contour>
        <pt x="360" y="609" on="1"/>
        <pt x="140" y="609" on="1"/>
        <pt x="140" y="370" on="1"/>
        <pt x="332" y="370" on="1"/>
        <pt x="332" y="307" on="1"/>
        <pt x="140" y="307" on="1"/>
        <pt x="140" y="63" on="1"/>
        <pt x="360" y="63" on="1"/>
        <pt x="360" y="0" on="1"/>
        <pt x="359" y="0" on="1"/>
        <pt x="311" y="-38" on="0"/>
        <pt x="311" y="-93" on="1"/>
        <pt x="311" y="-129" on="0"/>
        <pt x="348" y="-129" on="1"/>
        <pt x="359" y="-129" on="1"/>
        <pt x="359" y="-176" on="1"/>
        <pt x="345" y="-176" on="1"/>
        <pt x="263" y="-176" on="0"/>
        <pt x="263" y="-108" on="1"/>
        <pt x="263" y="-46" on="0"/>
        <pt x="323" y="0" on="1"/>
        <pt x="69" y="0" on="1"/>
        <pt x="69" y="672" on="1"/>
        <pt x="360" y="672" on="1"/>
      </contour>
    </TTGlyph>
    <TTGlyph name="Eth" xMin="-3" yMin="0" xMax="409" yMax="672">
      <contour>
        <pt x="71" y="672" on="1"/>
        <pt x="247" y="672" on="1"/>
        <pt x="327" y="672" on="0"/>
        <pt x="409" y="590" on="0"/>
        <pt x="409" y="521" on="1"/>
        <pt x="409" y="153" on="1"/>
        <pt x="409" y="82" on="0"/>
        <pt x="329" y="0" on="0"/>
        <pt x="249" y="0" on="1"/>
        <pt x="71" y="0" on="1"/>
        <pt x="71" y="299" on="1"/>
        <pt x="-3" y="299" on="1"/>
        <pt x="-3" y="360" on="1"/>
        <pt x="71" y="360" on="1"/>
      </contour>
      <contour>
        <pt x="338" y="155" on="1"/>
        <pt x="338" y="520" on="1"/>
        <pt x="338" y="610" on="0"/>
        <pt x="243" y="610" on="1"/>
        <pt x="142" y="610" on="1"/>
        <pt x="142" y="360" on="1"/>
        <pt x="250" y="360" on="1"/>
        <pt x="250" y="299" on="1"/>
        <pt x="142" y="299" on="1"/>
        <pt x="142" y="63" on="1"/>
        <pt x="243" y="63" on="1"/>
        <pt x="338" y="63" on="0"/>
      </contour>
    </TTGlyph>
    <TTGlyph name="Euro" xMin="14" yMin="-5" xMax="365" yMax="677">
      <contour>
        <pt x="138" y="248" on="1"/>
        <pt x="138" y="140" on="1"/>
        <pt x="138" y="101" on="0"/>
        <pt x="187" y="60" on="0"/>
        <pt x="310" y="60" on="0"/>
        <pt x="365" y="76" on="1"/>
        <pt x="365" y="11" on="1"/>
        <pt x="315" y="-5" on="0"/>
        <pt x="247" y="-5" on="1"/>
        <pt x="67" y="-5" on="0"/>
        <pt x="67" y="137" on="1"/>
        <pt x="67" y="248" on="1"/>
        <pt x="14" y="248" on="1"/>
        <pt x="14" y="301" on="1"/>
        <pt x="67" y="301" on="1"/>
        <pt x="67" y="382" on="1"/>
        <pt x="14" y="382" on="1"/>
        <pt x="14" y="434" on="1"/>
        <pt x="67" y="434" on="1"/>
        <pt x="67" y="535" on="1"/>
        <pt x="67" y="677" on="0"/>
        <pt x="247" y="677" on="1"/>
        <pt x="305" y="677" on="0"/>
        <pt x="363" y="661" on="1"/>
        <pt x="363" y="595" on="1"/>
        <pt x="304" y="612" on="0"/>
        <pt x="186" y="612" on="0"/>
        <pt x="138" y="571" on="0"/>
        <pt x="138" y="531" on="1"/>
        <pt x="138" y="434" on="1"/>
        <pt x="292" y="434" on="1"/>
        <pt x="292" y="382" on="1"/>
        <pt x="138" y="382" on="1"/>
        <pt x="138" y="301" on="1"/>
        <pt x="292" y="301" on="1"/>
        <pt x="292" y="248" on="1"/>
      </contour>
    </TTGlyph>
    <TTGlyph name="F" xMin="69" yMin="0" xMax="352" yMax="672">
      <contour>
        <pt x="69" y="672" on="1"/>
        <pt x="352" y="672" on="1"/>
        <pt x="352" y="609" on="1"/>
        <pt x="140" y="609" on="1"/>
        <pt x="140" y="357" on="1"/>
        <pt x="341" y="357" on="1"/>
        <pt x="341" y="293" on="1"/>
        <pt x="140" y="293" on="1"/>
        <pt x="140" y="0" on="1"/>
        <pt x="69" y="0" on="1"/>
      </contour>
    </TTGlyph>
    <TTGlyph name="G" xMin="59" yMin="-5" xMax="387" yMax="677">
      <contour>
        <pt x="59" y="529" on="1"/>
        <pt x="59" y="598" on="0"/>
        <pt x="150" y="677" on="0"/>
        <pt x="245" y="677" on="1"/>
        <pt x="309" y="677" on="0"/>
        <pt x="366" y="660" on="1"/>
        <pt x="366" y="592" on="1"/>
        <pt x="307" y="611" on="0"/>
        <pt x="183" y="611" on="0"/>
        <pt x="130" y="568" on="0"/>
        <pt x="130" y="525" on="1"/>
        <pt x="130" y="140" on="1"/>
        <pt x="130" y="59" on="0"/>
        <pt x="226" y="59" on="1"/>
        <pt x="289" y="59" on="0"/>
        <pt x="316" y="80" on="1"/>
        <pt x="316" y="330" on="1"/>
        <pt x="387" y="330" on="1"/>
        <pt x="387" y="35" on="1"/>
        <pt x="316" y="-5" on="0"/>
        <pt x="232" y="-5" on="1"/>
        <pt x="59" y="-5" on="0"/>
        <pt x="59" y="137" on="1"/>
      </contour>
    </TTGlyph>
    <TTGlyph name="GID1049" xMin="-24" yMin="70" xMax="355" yMax="650">
      <contour>
        <pt x="109" y="164" on="0"/>
        <pt x="149" y="127" on="0"/>
        <pt x="246" y="127" on="0"/>
        <pt x="287" y="161" on="0"/>
        <pt x="289" y="196" on="1"/>
        <pt x="109" y="336" on="1"/>
        <pt x="109" y="201" on="1"/>
      </contour>
      <contour>
        <pt x="199" y="448" on="1"/>
        <pt x="118" y="448" on="0"/>
        <pt x="110" y="391" on="1"/>
        <pt x="289" y="252" on="1"/>
        <pt x="289" y="374" on="1"/>
        <pt x="289" y="412" on="0"/>
        <pt x="248" y="448" on="0"/>
      </contour>
      <contour>
        <pt x="46" y="375" on="1"/>
        <pt x="46" y="505" on="0"/>
        <pt x="351" y="505" on="0"/>
        <pt x="351" y="375" on="1"/>
        <pt x="351" y="199" on="1"/>
        <pt x="351" y="70" on="0"/>
        <pt x="46" y="70" on="0"/>
        <pt x="46" y="199" on="1"/>
      </contour>
      <contour>
        <pt x="355" y="650" on="1"/>
        <pt x="355" y="594" on="1"/>
        <pt x="-24" y="594" on="1"/>
        <pt x="-24" y="650" on="1"/>
      </contour>
    </TTGlyph>
    <TTGlyph name="Gbreve" xMin="59" yMin="-5" xMax="387" yMax="820">
      <contour>
        <pt x="279" y="713" on="0"/>
        <pt x="179" y="713" on="0"/>
        <pt x="121" y="773" on="0"/>
        <pt x="119" y="820" on="1"/>
        <pt x="169" y="820" on="1"/>
        <pt x="170" y="792" on="0"/>
        <pt x="202" y="759" on="0"/>
        <pt x="256" y="759" on="0"/>
        <pt x="288" y="792" on="0"/>
        <pt x="289" y="820" on="1"/>
        <pt x="339" y="820" on="1"/>
        <pt x="337" y="773" on="0"/>
      </contour>
      <contour>
        <pt x="59" y="529" on="1"/>
        <pt x="59" y="598" on="0"/>
        <pt x="150" y="677" on="0"/>
        <pt x="245" y="677" on="1"/>
        <pt x="309" y="677" on="0"/>
        <pt x="366" y="660" on="1"/>
        <pt x="366" y="592" on="1"/>
        <pt x="307" y="611" on="0"/>
        <pt x="183" y="611" on="0"/>
        <pt x="130" y="568" on="0"/>
        <pt x="130" y="525" on="1"/>
        <pt x="130" y="140" on="1"/>
        <pt x="130" y="59" on="0"/>
        <pt x="226" y="59" on="1"/>
        <pt x="289" y="59" on="0"/>
        <pt x="316" y="80" on="1"/>
        <pt x="316" y="330" on="1"/>
        <pt x="387" y="330" on="1"/>
        <pt x="387" y="35" on="1"/>
        <pt x="316" y="-5" on="0"/>
        <pt x="232" y="-5" on="1"/>
        <pt x="59" y="-5" on="0"/>
        <pt x="59" y="137" on="1"/>
      </contour>
    </TTGlyph>
    <TTGlyph name="H" xMin="69" yMin="0" xMax="426" yMax="672">
      <contour>
        <pt x="354" y="672" on="1"/>
        <pt x="426" y="672" on="1"/>
        <pt x="426" y="0" on="1"/>
        <pt x="354" y="0" on="1"/>
        <pt x="354" y="298" on="1"/>
        <pt x="140" y="298" on="1"/>
        <pt x="140" y="0" on="1"/>
        <pt x="69" y="0" on="1"/>
        <pt x="69" y="672" on="1"/>
        <pt x="140" y="672" on="1"/>
        <pt x="140" y="361" on="1"/>
        <pt x="354" y="361" on="1"/>
      </contour>
    </TTGlyph>
    <TTGlyph name="I" xMin="69" yMin="0" xMax="140" yMax="672">
      <contour>
        <pt x="69" y="672" on="1"/>
        <pt x="140" y="672" on="1"/>
        <pt x="140" y="0" on="1"/>
        <pt x="69" y="0" on="1"/>
      </contour>
    </TTGlyph>
    <TTGlyph name="Iacute" xMin="69" yMin="0" xMax="360" yMax="820">
      <contour>
        <pt x="69" y="672" on="1"/>
        <pt x="360" y="672" on="1"/>
        <pt x="360" y="609" on="1"/>
        <pt x="140" y="609" on="1"/>
        <pt x="140" y="370" on="1"/>
        <pt x="332" y="370" on="1"/>
        <pt x="332" y="307" on="1"/>
        <pt x="140" y="307" on="1"/>
        <pt x="140" y="63" on="1"/>
        <pt x="360" y="63" on="1"/>
        <pt x="360" y="0" on="1"/>
        <pt x="69" y="0" on="1"/>
      </contour>
      <contour>
        <pt x="232" y="820" on="1"/>
        <pt x="299" y="820" on="1"/>
        <pt x="239" y="713" on="1"/>
        <pt x="193" y="713" on="1"/>
      </contour>
    </TTGlyph>
    <TTGlyph name="Icircumflex" xMin="29" yMin="0" xMax="189" yMax="820">
      <contour>
        <pt x="138" y="820" on="1"/>
        <pt x="189" y="713" on="1"/>
        <pt x="145" y="713" on="1"/>
        <pt x="109" y="776" on="1"/>
        <pt x="73" y="713" on="1"/>
        <pt x="29" y="713" on="1"/>
        <pt x="79" y="820" on="1"/>
      </contour>
      <contour>
        <pt x="69" y="0" on="1"/>
        <pt x="69" y="672" on="1"/>
        <pt x="140" y="672" on="1"/>
        <pt x="140" y="0" on="1"/>
      </contour>
    </TTGlyph>
    <TTGlyph name="Idieresis" xMin="-3" yMin="0" xMax="208" yMax="803">
      <contour>
        <pt x="208" y="728" on="0"/>
        <pt x="132" y="728" on="0"/>
        <pt x="132" y="803" on="0"/>
        <pt x="208" y="803" on="0"/>
      </contour>
      <contour>
        <pt x="-3" y="728" on="0"/>
        <pt x="-3" y="803" on="0"/>
        <pt x="74" y="803" on="0"/>
        <pt x="74" y="728" on="0"/>
      </contour>
      <contour>
        <pt x="69" y="672" on="1"/>
        <pt x="140" y="672" on="1"/>
        <pt x="140" y="0" on="1"/>
        <pt x="69" y="0" on="1"/>
      </contour>
    </TTGlyph>
    <TTGlyph name="Idotaccent" xMin="64" yMin="0" xMax="141" yMax="826">
      <contour>
        <pt x="64" y="751" on="0"/>
        <pt x="64" y="826" on="0"/>
        <pt x="141" y="826" on="0"/>
        <pt x="141" y="751" on="0"/>
      </contour>
      <contour>
        <pt x="69" y="672" on="1"/>
        <pt x="140" y="672" on="1"/>
        <pt x="140" y="0" on="1"/>
        <pt x="69" y="0" on="1"/>
      </contour>
    </TTGlyph>
    <TTGlyph name="Igrave" xMin="69" yMin="0" xMax="360" yMax="820">
      <contour>
        <pt x="134" y="820" on="1"/>
        <pt x="201" y="820" on="1"/>
        <pt x="240" y="713" on="1"/>
        <pt x="194" y="713" on="1"/>
      </contour>
      <contour>
        <pt x="69" y="672" on="1"/>
        <pt x="360" y="672" on="1"/>
        <pt x="360" y="609" on="1"/>
        <pt x="140" y="609" on="1"/>
        <pt x="140" y="370" on="1"/>
        <pt x="332" y="370" on="1"/>
        <pt x="332" y="307" on="1"/>
        <pt x="140" y="307" on="1"/>
        <pt x="140" y="63" on="1"/>
        <pt x="360" y="63" on="1"/>
        <pt x="360" y="0" on="1"/>
        <pt x="69" y="0" on="1"/>
      </contour>
    </TTGlyph>
    <TTGlyph name="Imacron" xMin="-5" yMin="0" xMax="217" yMax="790">
      <contour>
        <pt x="-5" y="790" on="1"/>
        <pt x="217" y="790" on="1"/>
        <pt x="217" y="743" on="1"/>
        <pt x="-5" y="743" on="1"/>
      </contour>
      <contour>
        <pt x="69" y="672" on="1"/>
        <pt x="140" y="672" on="1"/>
        <pt x="140" y="0" on="1"/>
        <pt x="69" y="0" on="1"/>
      </contour>
    </TTGlyph>
    <TTGlyph name="Iogonek" xMin="44" yMin="-176" xMax="140" yMax="672">
      <contour>
        <pt x="140" y="672" on="1"/>
        <pt x="140" y="0" on="1"/>
        <pt x="92" y="-38" on="0"/>
        <pt x="92" y="-93" on="1"/>
        <pt x="92" y="-129" on="0"/>
        <pt x="129" y="-129" on="1"/>
        <pt x="140" y="-129" on="1"/>
        <pt x="140" y="-176" on="1"/>
        <pt x="126" y="-176" on="1"/>
        <pt x="44" y="-176" on="0"/>
        <pt x="44" y="-108" on="1"/>
        <pt x="44" y="-46" on="0"/>
        <pt x="104" y="0" on="1"/>
        <pt x="69" y="0" on="1"/>
        <pt x="69" y="672" on="1"/>
      </contour>
    </TTGlyph>
    <TTGlyph name="J" xMin="4" yMin="-149" xMax="141" yMax="672">
      <contour>
        <pt x="70" y="672" on="1"/>
        <pt x="141" y="672" on="1"/>
        <pt x="141" y="198" on="1"/>
        <pt x="141" y="70" on="0"/>
        <pt x="108" y="-44" on="1"/>
        <pt x="77" y="-149" on="1"/>
        <pt x="4" y="-149" on="1"/>
        <pt x="34" y="-44" on="1"/>
        <pt x="70" y="84" on="0"/>
        <pt x="70" y="197" on="1"/>
      </contour>
    </TTGlyph>
    <TTGlyph name="K" xMin="69" yMin="0" xMax="416" yMax="672">
      <contour>
        <pt x="69" y="672" on="1"/>
        <pt x="140" y="672" on="1"/>
        <pt x="140" y="0" on="1"/>
        <pt x="69" y="0" on="1"/>
      </contour>
      <contour>
        <pt x="331" y="672" on="1"/>
        <pt x="408" y="672" on="1"/>
        <pt x="267" y="337" on="1"/>
        <pt x="416" y="0" on="1"/>
        <pt x="337" y="0" on="1"/>
        <pt x="191" y="335" on="1"/>
      </contour>
    </TTGlyph>
    <TTGlyph name="L" xMin="69" yMin="0" xMax="344" yMax="672">
      <contour>
        <pt x="69" y="672" on="1"/>
        <pt x="140" y="672" on="1"/>
        <pt x="140" y="62" on="1"/>
        <pt x="344" y="62" on="1"/>
        <pt x="344" y="0" on="1"/>
        <pt x="69" y="0" on="1"/>
      </contour>
    </TTGlyph>
    <TTGlyph name="Lacute" xMin="69" yMin="0" xMax="344" yMax="820">
      <contour>
        <pt x="69" y="672" on="1"/>
        <pt x="140" y="672" on="1"/>
        <pt x="140" y="62" on="1"/>
        <pt x="344" y="62" on="1"/>
        <pt x="344" y="0" on="1"/>
        <pt x="69" y="0" on="1"/>
      </contour>
      <contour>
        <pt x="117" y="820" on="1"/>
        <pt x="184" y="820" on="1"/>
        <pt x="124" y="713" on="1"/>
        <pt x="78" y="713" on="1"/>
      </contour>
    </TTGlyph>
    <TTGlyph name="Lcaron" xMin="24" yMin="0" xMax="344" yMax="820">
      <contour>
        <pt x="140" y="62" on="1"/>
        <pt x="344" y="62" on="1"/>
        <pt x="344" y="0" on="1"/>
        <pt x="69" y="0" on="1"/>
        <pt x="69" y="672" on="1"/>
        <pt x="140" y="672" on="1"/>
      </contour>
      <contour>
        <pt x="74" y="713" on="1"/>
        <pt x="24" y="820" on="1"/>
        <pt x="68" y="820" on="1"/>
        <pt x="104" y="757" on="1"/>
        <pt x="140" y="820" on="1"/>
        <pt x="184" y="820" on="1"/>
        <pt x="133" y="713" on="1"/>
      </contour>
    </TTGlyph>
    <TTGlyph name="Lslash" xMin="16" yMin="0" xMax="346" yMax="672">
      <contour>
        <pt x="142" y="62" on="1"/>
        <pt x="346" y="62" on="1"/>
        <pt x="346" y="0" on="1"/>
        <pt x="71" y="0" on="1"/>
        <pt x="71" y="279" on="1"/>
        <pt x="16" y="250" on="1"/>
        <pt x="16" y="307" on="1"/>
        <pt x="71" y="335" on="1"/>
        <pt x="71" y="672" on="1"/>
        <pt x="142" y="672" on="1"/>
        <pt x="142" y="372" on="1"/>
        <pt x="239" y="422" on="1"/>
        <pt x="239" y="366" on="1"/>
        <pt x="142" y="316" on="1"/>
      </contour>
    </TTGlyph>
    <TTGlyph name="M" xMin="69" yMin="0" xMax="542" yMax="672">
      <contour>
        <pt x="542" y="672" on="1"/>
        <pt x="542" y="0" on="1"/>
        <pt x="474" y="0" on="1"/>
        <pt x="474" y="354" on="1"/>
        <pt x="474" y="457" on="0"/>
        <pt x="480" y="553" on="1"/>
        <pt x="343" y="179" on="1"/>
        <pt x="268" y="179" on="1"/>
        <pt x="129" y="553" on="1"/>
        <pt x="136" y="460" on="0"/>
        <pt x="136" y="355" on="1"/>
        <pt x="136" y="0" on="1"/>
        <pt x="69" y="0" on="1"/>
        <pt x="69" y="672" on="1"/>
        <pt x="153" y="672" on="1"/>
        <pt x="305" y="251" on="1"/>
        <pt x="457" y="672" on="1"/>
      </contour>
    </TTGlyph>
    <TTGlyph name="N" xMin="69" yMin="0" xMax="431" yMax="672">
      <contour>
        <pt x="367" y="114" on="1"/>
        <pt x="360" y="335" on="1"/>
        <pt x="360" y="672" on="1"/>
        <pt x="431" y="672" on="1"/>
        <pt x="431" y="0" on="1"/>
        <pt x="349" y="0" on="1"/>
        <pt x="211" y="348" on="1"/>
        <pt x="203" y="369" on="0"/>
        <pt x="132" y="557" on="1"/>
        <pt x="138" y="337" on="1"/>
        <pt x="138" y="0" on="1"/>
        <pt x="69" y="0" on="1"/>
        <pt x="69" y="672" on="1"/>
        <pt x="151" y="672" on="1"/>
        <pt x="310" y="268" on="0"/>
      </contour>
    </TTGlyph>
    <TTGlyph name="Nacute" xMin="69" yMin="0" xMax="431" yMax="820">
      <contour>
        <pt x="367" y="114" on="1"/>
        <pt x="360" y="335" on="1"/>
        <pt x="360" y="672" on="1"/>
        <pt x="431" y="672" on="1"/>
        <pt x="431" y="0" on="1"/>
        <pt x="349" y="0" on="1"/>
        <pt x="211" y="348" on="1"/>
        <pt x="203" y="369" on="0"/>
        <pt x="132" y="557" on="1"/>
        <pt x="138" y="337" on="1"/>
        <pt x="138" y="0" on="1"/>
        <pt x="69" y="0" on="1"/>
        <pt x="69" y="672" on="1"/>
        <pt x="151" y="672" on="1"/>
        <pt x="310" y="268" on="0"/>
      </contour>
      <contour>
        <pt x="266" y="820" on="1"/>
        <pt x="333" y="820" on="1"/>
        <pt x="273" y="713" on="1"/>
        <pt x="227" y="713" on="1"/>
      </contour>
    </TTGlyph>
    <TTGlyph name="Ncaron" xMin="69" yMin="0" xMax="431" yMax="820">
      <contour>
        <pt x="367" y="114" on="1"/>
        <pt x="360" y="335" on="1"/>
        <pt x="360" y="672" on="1"/>
        <pt x="431" y="672" on="1"/>
        <pt x="431" y="0" on="1"/>
        <pt x="349" y="0" on="1"/>
        <pt x="211" y="348" on="1"/>
        <pt x="203" y="369" on="0"/>
        <pt x="132" y="557" on="1"/>
        <pt x="138" y="337" on="1"/>
        <pt x="138" y="0" on="1"/>
        <pt x="69" y="0" on="1"/>
        <pt x="69" y="672" on="1"/>
        <pt x="151" y="672" on="1"/>
        <pt x="310" y="268" on="0"/>
      </contour>
      <contour>
        <pt x="221" y="713" on="1"/>
        <pt x="171" y="820" on="1"/>
        <pt x="215" y="820" on="1"/>
        <pt x="251" y="757" on="1"/>
        <pt x="287" y="820" on="1"/>
        <pt x="331" y="820" on="1"/>
        <pt x="280" y="713" on="1"/>
      </contour>
    </TTGlyph>
    <TTGlyph name="Ntilde" xMin="69" yMin="0" xMax="431" yMax="812">
      <contour>
        <pt x="332" y="812" on="1"/>
        <pt x="382" y="812" on="1"/>
        <pt x="382" y="798" on="1"/>
        <pt x="382" y="763" on="0"/>
        <pt x="348" y="724" on="0"/>
        <pt x="291" y="724" on="0"/>
        <pt x="223" y="764" on="0"/>
        <pt x="208" y="764" on="1"/>
        <pt x="185" y="764" on="0"/>
        <pt x="185" y="733" on="1"/>
        <pt x="185" y="722" on="1"/>
        <pt x="135" y="722" on="1"/>
        <pt x="135" y="735" on="1"/>
        <pt x="135" y="769" on="0"/>
        <pt x="169" y="810" on="0"/>
        <pt x="229" y="810" on="0"/>
        <pt x="299" y="769" on="0"/>
        <pt x="310" y="769" on="1"/>
        <pt x="332" y="769" on="0"/>
        <pt x="332" y="801" on="1"/>
      </contour>
      <contour>
        <pt x="367" y="114" on="1"/>
        <pt x="360" y="335" on="1"/>
        <pt x="360" y="672" on="1"/>
        <pt x="431" y="672" on="1"/>
        <pt x="431" y="0" on="1"/>
        <pt x="349" y="0" on="1"/>
        <pt x="211" y="348" on="1"/>
        <pt x="203" y="369" on="0"/>
        <pt x="132" y="557" on="1"/>
        <pt x="132" y="557" on="0"/>
        <pt x="138" y="337" on="1"/>
        <pt x="138" y="0" on="1"/>
        <pt x="69" y="0" on="1"/>
        <pt x="69" y="672" on="1"/>
        <pt x="151" y="672" on="1"/>
        <pt x="310" y="268" on="0"/>
      </contour>
    </TTGlyph>
    <TTGlyph name="O" xMin="59" yMin="-10" xMax="398" yMax="682">
      <contour>
        <pt x="327" y="522" on="1"/>
        <pt x="327" y="617" on="0"/>
        <pt x="130" y="617" on="0"/>
        <pt x="130" y="522" on="1"/>
        <pt x="130" y="150" on="1"/>
        <pt x="130" y="54" on="0"/>
        <pt x="327" y="54" on="0"/>
        <pt x="327" y="150" on="1"/>
      </contour>
      <contour>
        <pt x="59" y="523" on="1"/>
        <pt x="59" y="594" on="0"/>
        <pt x="145" y="682" on="0"/>
        <pt x="312" y="682" on="0"/>
        <pt x="398" y="594" on="0"/>
        <pt x="398" y="523" on="1"/>
        <pt x="398" y="148" on="1"/>
        <pt x="398" y="77" on="0"/>
        <pt x="312" y="-10" on="0"/>
        <pt x="144" y="-10" on="0"/>
        <pt x="59" y="77" on="0"/>
        <pt x="59" y="148" on="1"/>
      </contour>
    </TTGlyph>
    <TTGlyph name="OE" xMin="79" yMin="0" xMax="640" yMax="672">
      <contour>
        <pt x="640" y="609" on="1"/>
        <pt x="420" y="609" on="1"/>
        <pt x="420" y="370" on="1"/>
        <pt x="612" y="370" on="1"/>
        <pt x="612" y="307" on="1"/>
        <pt x="420" y="307" on="1"/>
        <pt x="420" y="63" on="1"/>
        <pt x="640" y="63" on="1"/>
        <pt x="640" y="0" on="1"/>
        <pt x="238" y="0" on="1"/>
        <pt x="158" y="0" on="0"/>
        <pt x="79" y="82" on="0"/>
        <pt x="79" y="153" on="1"/>
        <pt x="79" y="521" on="1"/>
        <pt x="79" y="590" on="0"/>
        <pt x="161" y="672" on="0"/>
        <pt x="240" y="672" on="1"/>
        <pt x="640" y="672" on="1"/>
      </contour>
      <contour>
        <pt x="244" y="63" on="1"/>
        <pt x="349" y="63" on="1"/>
        <pt x="349" y="610" on="1"/>
        <pt x="244" y="610" on="1"/>
        <pt x="150" y="610" on="0"/>
        <pt x="150" y="520" on="1"/>
        <pt x="150" y="155" on="1"/>
        <pt x="150" y="63" on="0"/>
      </contour>
    </TTGlyph>
    <TTGlyph name="Oacute" xMin="59" yMin="-10" xMax="398" yMax="820">
      <contour>
        <pt x="327" y="522" on="1"/>
        <pt x="327" y="617" on="0"/>
        <pt x="130" y="617" on="0"/>
        <pt x="130" y="522" on="1"/>
        <pt x="130" y="150" on="1"/>
        <pt x="130" y="54" on="0"/>
        <pt x="327" y="54" on="0"/>
        <pt x="327" y="150" on="1"/>
      </contour>
      <contour>
        <pt x="59" y="523" on="1"/>
        <pt x="59" y="594" on="0"/>
        <pt x="145" y="682" on="0"/>
        <pt x="312" y="682" on="0"/>
        <pt x="398" y="594" on="0"/>
        <pt x="398" y="523" on="1"/>
        <pt x="398" y="148" on="1"/>
        <pt x="398" y="77" on="0"/>
        <pt x="312" y="-10" on="0"/>
        <pt x="144" y="-10" on="0"/>
        <pt x="59" y="77" on="0"/>
        <pt x="59" y="148" on="1"/>
      </contour>
      <contour>
        <pt x="244" y="820" on="1"/>
        <pt x="311" y="820" on="1"/>
        <pt x="251" y="713" on="1"/>
        <pt x="205" y="713" on="1"/>
      </contour>
    </TTGlyph>
    <TTGlyph name="Ocircumflex" xMin="59" yMin="-10" xMax="398" yMax="820">
      <contour>
        <pt x="59" y="148" on="1"/>
        <pt x="59" y="523" on="1"/>
        <pt x="59" y="594" on="0"/>
        <pt x="145" y="682" on="0"/>
        <pt x="312" y="682" on="0"/>
        <pt x="398" y="594" on="0"/>
        <pt x="398" y="523" on="1"/>
        <pt x="398" y="148" on="1"/>
        <pt x="398" y="77" on="0"/>
        <pt x="312" y="-10" on="0"/>
        <pt x="144" y="-10" on="0"/>
        <pt x="59" y="77" on="0"/>
      </contour>
      <contour>
        <pt x="327" y="150" on="1"/>
        <pt x="327" y="522" on="1"/>
        <pt x="327" y="617" on="0"/>
        <pt x="130" y="617" on="0"/>
        <pt x="130" y="522" on="1"/>
        <pt x="130" y="150" on="1"/>
        <pt x="130" y="54" on="0"/>
        <pt x="327" y="54" on="0"/>
      </contour>
      <contour>
        <pt x="228" y="776" on="1"/>
        <pt x="192" y="713" on="1"/>
        <pt x="148" y="713" on="1"/>
        <pt x="198" y="820" on="1"/>
        <pt x="257" y="820" on="1"/>
        <pt x="308" y="713" on="1"/>
        <pt x="264" y="713" on="1"/>
      </contour>
    </TTGlyph>
    <TTGlyph name="Odieresis" xMin="59" yMin="-10" xMax="398" yMax="803">
      <contour>
        <pt x="327" y="522" on="1"/>
        <pt x="327" y="617" on="0"/>
        <pt x="130" y="617" on="0"/>
        <pt x="130" y="522" on="1"/>
        <pt x="130" y="150" on="1"/>
        <pt x="130" y="54" on="0"/>
        <pt x="327" y="54" on="0"/>
        <pt x="327" y="150" on="1"/>
      </contour>
      <contour>
        <pt x="59" y="523" on="1"/>
        <pt x="59" y="594" on="0"/>
        <pt x="145" y="682" on="0"/>
        <pt x="312" y="682" on="0"/>
        <pt x="398" y="594" on="0"/>
        <pt x="398" y="523" on="1"/>
        <pt x="398" y="148" on="1"/>
        <pt x="398" y="77" on="0"/>
        <pt x="312" y="-10" on="0"/>
        <pt x="144" y="-10" on="0"/>
        <pt x="59" y="77" on="0"/>
        <pt x="59" y="148" on="1"/>
      </contour>
      <contour>
        <pt x="333" y="728" on="0"/>
        <pt x="257" y="728" on="0"/>
        <pt x="257" y="803" on="0"/>
        <pt x="333" y="803" on="0"/>
      </contour>
      <contour>
        <pt x="122" y="728" on="0"/>
        <pt x="122" y="803" on="0"/>
        <pt x="199" y="803" on="0"/>
        <pt x="199" y="728" on="0"/>
      </contour>
    </TTGlyph>
    <TTGlyph name="Ograve" xMin="59" yMin="-10" xMax="398" yMax="820">
      <contour>
        <pt x="139" y="820" on="1"/>
        <pt x="206" y="820" on="1"/>
        <pt x="245" y="713" on="1"/>
        <pt x="199" y="713" on="1"/>
      </contour>
      <contour>
        <pt x="327" y="522" on="1"/>
        <pt x="327" y="617" on="0"/>
        <pt x="130" y="617" on="0"/>
        <pt x="130" y="522" on="1"/>
        <pt x="130" y="150" on="1"/>
        <pt x="130" y="54" on="0"/>
        <pt x="327" y="54" on="0"/>
        <pt x="327" y="150" on="1"/>
      </contour>
      <contour>
        <pt x="59" y="523" on="1"/>
        <pt x="59" y="594" on="0"/>
        <pt x="145" y="682" on="0"/>
        <pt x="312" y="682" on="0"/>
        <pt x="398" y="594" on="0"/>
        <pt x="398" y="523" on="1"/>
        <pt x="398" y="148" on="1"/>
        <pt x="398" y="77" on="0"/>
        <pt x="312" y="-10" on="0"/>
        <pt x="144" y="-10" on="0"/>
        <pt x="59" y="77" on="0"/>
        <pt x="59" y="148" on="1"/>
      </contour>
    </TTGlyph>
    <TTGlyph name="Ohungarumlaut" xMin="59" yMin="-10" xMax="398" yMax="820">
      <contour>
        <pt x="327" y="522" on="1"/>
        <pt x="327" y="617" on="0"/>
        <pt x="130" y="617" on="0"/>
        <pt x="130" y="522" on="1"/>
        <pt x="130" y="150" on="1"/>
        <pt x="130" y="54" on="0"/>
        <pt x="327" y="54" on="0"/>
        <pt x="327" y="150" on="1"/>
      </contour>
      <contour>
        <pt x="59" y="523" on="1"/>
        <pt x="59" y="594" on="0"/>
        <pt x="145" y="682" on="0"/>
        <pt x="312" y="682" on="0"/>
        <pt x="398" y="594" on="0"/>
        <pt x="398" y="523" on="1"/>
        <pt x="398" y="148" on="1"/>
        <pt x="398" y="77" on="0"/>
        <pt x="312" y="-10" on="0"/>
        <pt x="144" y="-10" on="0"/>
        <pt x="59" y="77" on="0"/>
        <pt x="59" y="148" on="1"/>
      </contour>
      <contour>
        <pt x="202" y="820" on="1"/>
        <pt x="265" y="820" on="1"/>
        <pt x="204" y="713" on="1"/>
        <pt x="162" y="713" on="1"/>
      </contour>
      <contour>
        <pt x="288" y="820" on="1"/>
        <pt x="351" y="820" on="1"/>
        <pt x="290" y="713" on="1"/>
        <pt x="248" y="713" on="1"/>
      </contour>
    </TTGlyph>
    <TTGlyph name="Omacron" xMin="59" yMin="-10" xMax="398" yMax="790">
      <contour>
        <pt x="327" y="522" on="1"/>
        <pt x="327" y="617" on="0"/>
        <pt x="130" y="617" on="0"/>
        <pt x="130" y="522" on="1"/>
        <pt x="130" y="150" on="1"/>
        <pt x="130" y="54" on="0"/>
        <pt x="327" y="54" on="0"/>
        <pt x="327" y="150" on="1"/>
      </contour>
      <contour>
        <pt x="59" y="523" on="1"/>
        <pt x="59" y="594" on="0"/>
        <pt x="145" y="682" on="0"/>
        <pt x="312" y="682" on="0"/>
        <pt x="398" y="594" on="0"/>
        <pt x="398" y="523" on="1"/>
        <pt x="398" y="148" on="1"/>
        <pt x="398" y="77" on="0"/>
        <pt x="312" y="-10" on="0"/>
        <pt x="144" y="-10" on="0"/>
        <pt x="59" y="77" on="0"/>
        <pt x="59" y="148" on="1"/>
      </contour>
      <contour>
        <pt x="118" y="790" on="1"/>
        <pt x="340" y="790" on="1"/>
        <pt x="340" y="743" on="1"/>
        <pt x="118" y="743" on="1"/>
      </contour>
    </TTGlyph>
    <TTGlyph name="Oslash" xMin="58" yMin="-10" xMax="399" yMax="682">
      <contour>
        <pt x="398" y="523" on="1"/>
        <pt x="398" y="148" on="1"/>
        <pt x="398" y="77" on="0"/>
        <pt x="312" y="-10" on="0"/>
        <pt x="162" y="-10" on="0"/>
        <pt x="119" y="19" on="1"/>
        <pt x="111" y="0" on="1"/>
        <pt x="58" y="0" on="1"/>
        <pt x="83" y="57" on="1"/>
        <pt x="59" y="96" on="0"/>
        <pt x="59" y="148" on="1"/>
        <pt x="59" y="523" on="1"/>
        <pt x="59" y="594" on="0"/>
        <pt x="145" y="682" on="0"/>
        <pt x="294" y="682" on="0"/>
        <pt x="337" y="653" on="1"/>
        <pt x="345" y="672" on="1"/>
        <pt x="399" y="672" on="1"/>
        <pt x="374" y="614" on="1"/>
        <pt x="398" y="576" on="0"/>
      </contour>
      <contour>
        <pt x="130" y="522" on="1"/>
        <pt x="130" y="169" on="1"/>
        <pt x="308" y="586" on="1"/>
        <pt x="284" y="617" on="0"/>
        <pt x="228" y="617" on="1"/>
        <pt x="130" y="617" on="0"/>
      </contour>
      <contour>
        <pt x="327" y="150" on="1"/>
        <pt x="327" y="504" on="1"/>
        <pt x="148" y="86" on="1"/>
        <pt x="172" y="54" on="0"/>
        <pt x="228" y="54" on="1"/>
        <pt x="327" y="54" on="0"/>
      </contour>
    </TTGlyph>
    <TTGlyph name="Otilde" xMin="59" yMin="-10" xMax="398" yMax="812">
      <contour>
        <pt x="302" y="812" on="1"/>
        <pt x="352" y="812" on="1"/>
        <pt x="352" y="798" on="1"/>
        <pt x="352" y="763" on="0"/>
        <pt x="318" y="724" on="0"/>
        <pt x="261" y="724" on="0"/>
        <pt x="193" y="764" on="0"/>
        <pt x="178" y="764" on="1"/>
        <pt x="155" y="764" on="0"/>
        <pt x="155" y="733" on="1"/>
        <pt x="155" y="722" on="1"/>
        <pt x="105" y="722" on="1"/>
        <pt x="105" y="735" on="1"/>
        <pt x="105" y="769" on="0"/>
        <pt x="139" y="810" on="0"/>
        <pt x="199" y="810" on="0"/>
        <pt x="269" y="769" on="0"/>
        <pt x="280" y="769" on="1"/>
        <pt x="302" y="769" on="0"/>
        <pt x="302" y="801" on="1"/>
      </contour>
      <contour>
        <pt x="327" y="522" on="1"/>
        <pt x="327" y="617" on="0"/>
        <pt x="130" y="617" on="0"/>
        <pt x="130" y="522" on="1"/>
        <pt x="130" y="150" on="1"/>
        <pt x="130" y="54" on="0"/>
        <pt x="327" y="54" on="0"/>
        <pt x="327" y="150" on="1"/>
      </contour>
      <contour>
        <pt x="59" y="523" on="1"/>
        <pt x="59" y="594" on="0"/>
        <pt x="145" y="682" on="0"/>
        <pt x="312" y="682" on="0"/>
        <pt x="398" y="594" on="0"/>
        <pt x="398" y="523" on="1"/>
        <pt x="398" y="148" on="1"/>
        <pt x="398" y="77" on="0"/>
        <pt x="312" y="-10" on="0"/>
        <pt x="144" y="-10" on="0"/>
        <pt x="59" y="77" on="0"/>
        <pt x="59" y="148" on="1"/>
      </contour>
    </TTGlyph>
    <TTGlyph name="P" xMin="69" yMin="0" xMax="394" yMax="672">
      <contour>
        <pt x="323" y="517" on="1"/>
        <pt x="323" y="609" on="0"/>
        <pt x="228" y="609" on="1"/>
        <pt x="140" y="609" on="1"/>
        <pt x="140" y="294" on="1"/>
        <pt x="228" y="294" on="1"/>
        <pt x="323" y="294" on="0"/>
        <pt x="323" y="385" on="1"/>
      </contour>
      <contour>
        <pt x="69" y="672" on="1"/>
        <pt x="232" y="672" on="1"/>
        <pt x="311" y="672" on="0"/>
        <pt x="394" y="590" on="0"/>
        <pt x="394" y="521" on="1"/>
        <pt x="394" y="382" on="1"/>
        <pt x="394" y="312" on="0"/>
        <pt x="312" y="231" on="0"/>
        <pt x="232" y="231" on="1"/>
        <pt x="140" y="231" on="1"/>
        <pt x="140" y="0" on="1"/>
        <pt x="69" y="0" on="1"/>
      </contour>
    </TTGlyph>
    <TTGlyph name="Q" xMin="59" yMin="-100" xMax="444" yMax="682">
      <contour>
        <pt x="228" y="-10" on="1"/>
        <pt x="144" y="-10" on="0"/>
        <pt x="59" y="77" on="0"/>
        <pt x="59" y="148" on="1"/>
        <pt x="59" y="523" on="1"/>
        <pt x="59" y="594" on="0"/>
        <pt x="145" y="682" on="0"/>
        <pt x="312" y="682" on="0"/>
        <pt x="398" y="594" on="0"/>
        <pt x="398" y="523" on="1"/>
        <pt x="398" y="148" on="1"/>
        <pt x="398" y="59" on="0"/>
        <pt x="336" y="18" on="1"/>
        <pt x="444" y="-100" on="1"/>
        <pt x="355" y="-100" on="1"/>
        <pt x="270" y="-7" on="1"/>
        <pt x="250" y="-10" on="0"/>
      </contour>
      <contour>
        <pt x="130" y="522" on="1"/>
        <pt x="130" y="150" on="1"/>
        <pt x="130" y="54" on="0"/>
        <pt x="327" y="54" on="0"/>
        <pt x="327" y="150" on="1"/>
        <pt x="327" y="522" on="1"/>
        <pt x="327" y="617" on="0"/>
        <pt x="130" y="617" on="0"/>
      </contour>
    </TTGlyph>
    <TTGlyph name="R" xMin="69" yMin="0" xMax="415" yMax="672">
      <contour>
        <pt x="239" y="270" on="1"/>
        <pt x="140" y="270" on="1"/>
        <pt x="140" y="0" on="1"/>
        <pt x="69" y="0" on="1"/>
        <pt x="69" y="672" on="1"/>
        <pt x="232" y="672" on="1"/>
        <pt x="312" y="672" on="0"/>
        <pt x="394" y="591" on="0"/>
        <pt x="394" y="521" on="1"/>
        <pt x="394" y="422" on="1"/>
        <pt x="394" y="314" on="0"/>
        <pt x="308" y="282" on="1"/>
        <pt x="415" y="0" on="1"/>
        <pt x="337" y="0" on="1"/>
      </contour>
      <contour>
        <pt x="140" y="332" on="1"/>
        <pt x="229" y="332" on="1"/>
        <pt x="323" y="332" on="0"/>
        <pt x="323" y="423" on="1"/>
        <pt x="323" y="518" on="1"/>
        <pt x="323" y="609" on="0"/>
        <pt x="229" y="609" on="1"/>
        <pt x="140" y="609" on="1"/>
      </contour>
    </TTGlyph>
    <TTGlyph name="Racute" xMin="69" yMin="0" xMax="415" yMax="820">
      <contour>
        <pt x="239" y="270" on="1"/>
        <pt x="140" y="270" on="1"/>
        <pt x="140" y="0" on="1"/>
        <pt x="69" y="0" on="1"/>
        <pt x="69" y="672" on="1"/>
        <pt x="232" y="672" on="1"/>
        <pt x="312" y="672" on="0"/>
        <pt x="394" y="591" on="0"/>
        <pt x="394" y="521" on="1"/>
        <pt x="394" y="422" on="1"/>
        <pt x="394" y="314" on="0"/>
        <pt x="308" y="282" on="1"/>
        <pt x="415" y="0" on="1"/>
        <pt x="337" y="0" on="1"/>
      </contour>
      <contour>
        <pt x="140" y="332" on="1"/>
        <pt x="229" y="332" on="1"/>
        <pt x="323" y="332" on="0"/>
        <pt x="323" y="423" on="1"/>
        <pt x="323" y="518" on="1"/>
        <pt x="323" y="609" on="0"/>
        <pt x="229" y="609" on="1"/>
        <pt x="140" y="609" on="1"/>
      </contour>
      <contour>
        <pt x="309" y="820" on="1"/>
        <pt x="249" y="713" on="1"/>
        <pt x="203" y="713" on="1"/>
        <pt x="242" y="820" on="1"/>
      </contour>
    </TTGlyph>
    <TTGlyph name="Rcaron" xMin="69" yMin="0" xMax="415" yMax="820">
      <contour>
        <pt x="239" y="270" on="1"/>
        <pt x="140" y="270" on="1"/>
        <pt x="140" y="0" on="1"/>
        <pt x="69" y="0" on="1"/>
        <pt x="69" y="672" on="1"/>
        <pt x="232" y="672" on="1"/>
        <pt x="312" y="672" on="0"/>
        <pt x="394" y="591" on="0"/>
        <pt x="394" y="521" on="1"/>
        <pt x="394" y="422" on="1"/>
        <pt x="394" y="314" on="0"/>
        <pt x="308" y="282" on="1"/>
        <pt x="415" y="0" on="1"/>
        <pt x="337" y="0" on="1"/>
      </contour>
      <contour>
        <pt x="140" y="332" on="1"/>
        <pt x="229" y="332" on="1"/>
        <pt x="323" y="332" on="0"/>
        <pt x="323" y="423" on="1"/>
        <pt x="323" y="518" on="1"/>
        <pt x="323" y="609" on="0"/>
        <pt x="229" y="609" on="1"/>
        <pt x="140" y="609" on="1"/>
      </contour>
      <contour>
        <pt x="194" y="713" on="1"/>
        <pt x="144" y="820" on="1"/>
        <pt x="188" y="820" on="1"/>
        <pt x="224" y="757" on="1"/>
        <pt x="260" y="820" on="1"/>
        <pt x="304" y="820" on="1"/>
        <pt x="253" y="713" on="1"/>
      </contour>
    </TTGlyph>
    <TTGlyph name="S" xMin="28" yMin="-5" xMax="356" yMax="677">
      <contour>
        <pt x="28" y="536" on="1"/>
        <pt x="28" y="602" on="0"/>
        <pt x="116" y="677" on="0"/>
        <pt x="275" y="677" on="0"/>
        <pt x="330" y="660" on="1"/>
        <pt x="330" y="592" on="1"/>
        <pt x="278" y="611" on="0"/>
        <pt x="203" y="611" on="1"/>
        <pt x="100" y="611" on="0"/>
        <pt x="100" y="533" on="1"/>
        <pt x="100" y="485" on="1"/>
        <pt x="100" y="450" on="0"/>
        <pt x="127" y="410" on="0"/>
        <pt x="159" y="392" on="1"/>
        <pt x="275" y="327" on="1"/>
        <pt x="356" y="283" on="0"/>
        <pt x="356" y="194" on="1"/>
        <pt x="356" y="140" on="1"/>
        <pt x="356" y="71" on="0"/>
        <pt x="262" y="-5" on="0"/>
        <pt x="85" y="-5" on="0"/>
        <pt x="33" y="15" on="1"/>
        <pt x="33" y="83" on="1"/>
        <pt x="92" y="61" on="0"/>
        <pt x="167" y="61" on="1"/>
        <pt x="285" y="61" on="0"/>
        <pt x="285" y="144" on="1"/>
        <pt x="285" y="186" on="1"/>
        <pt x="285" y="219" on="0"/>
        <pt x="261" y="257" on="0"/>
        <pt x="230" y="274" on="1"/>
        <pt x="115" y="337" on="1"/>
        <pt x="28" y="384" on="0"/>
        <pt x="28" y="477" on="1"/>
      </contour>
    </TTGlyph>
    <TTGlyph name="Sacute" xMin="28" yMin="-5" xMax="356" yMax="820">
      <contour>
        <pt x="28" y="536" on="1"/>
        <pt x="28" y="602" on="0"/>
        <pt x="116" y="677" on="0"/>
        <pt x="275" y="677" on="0"/>
        <pt x="330" y="660" on="1"/>
        <pt x="330" y="592" on="1"/>
        <pt x="278" y="611" on="0"/>
        <pt x="203" y="611" on="1"/>
        <pt x="100" y="611" on="0"/>
        <pt x="100" y="533" on="1"/>
        <pt x="100" y="485" on="1"/>
        <pt x="100" y="450" on="0"/>
        <pt x="127" y="410" on="0"/>
        <pt x="159" y="392" on="1"/>
        <pt x="275" y="327" on="1"/>
        <pt x="356" y="283" on="0"/>
        <pt x="356" y="194" on="1"/>
        <pt x="356" y="140" on="1"/>
        <pt x="356" y="71" on="0"/>
        <pt x="262" y="-5" on="0"/>
        <pt x="85" y="-5" on="0"/>
        <pt x="33" y="15" on="1"/>
        <pt x="33" y="83" on="1"/>
        <pt x="92" y="61" on="0"/>
        <pt x="167" y="61" on="1"/>
        <pt x="285" y="61" on="0"/>
        <pt x="285" y="144" on="1"/>
        <pt x="285" y="186" on="1"/>
        <pt x="285" y="219" on="0"/>
        <pt x="261" y="257" on="0"/>
        <pt x="230" y="274" on="1"/>
        <pt x="115" y="337" on="1"/>
        <pt x="28" y="384" on="0"/>
        <pt x="28" y="477" on="1"/>
      </contour>
      <contour>
        <pt x="209" y="820" on="1"/>
        <pt x="276" y="820" on="1"/>
        <pt x="216" y="713" on="1"/>
        <pt x="170" y="713" on="1"/>
      </contour>
    </TTGlyph>
    <TTGlyph name="Scaron" xMin="28" yMin="-5" xMax="356" yMax="820">
      <contour>
        <pt x="356" y="194" on="1"/>
        <pt x="356" y="140" on="1"/>
        <pt x="356" y="71" on="0"/>
        <pt x="262" y="-5" on="0"/>
        <pt x="85" y="-5" on="0"/>
        <pt x="33" y="15" on="1"/>
        <pt x="33" y="83" on="1"/>
        <pt x="92" y="61" on="0"/>
        <pt x="167" y="61" on="1"/>
        <pt x="285" y="61" on="0"/>
        <pt x="285" y="144" on="1"/>
        <pt x="285" y="186" on="1"/>
        <pt x="285" y="219" on="0"/>
        <pt x="261" y="257" on="0"/>
        <pt x="230" y="274" on="1"/>
        <pt x="115" y="337" on="1"/>
        <pt x="28" y="384" on="0"/>
        <pt x="28" y="477" on="1"/>
        <pt x="28" y="536" on="1"/>
        <pt x="28" y="602" on="0"/>
        <pt x="116" y="677" on="0"/>
        <pt x="275" y="677" on="0"/>
        <pt x="330" y="660" on="1"/>
        <pt x="330" y="592" on="1"/>
        <pt x="278" y="611" on="0"/>
        <pt x="203" y="611" on="1"/>
        <pt x="100" y="611" on="0"/>
        <pt x="100" y="533" on="1"/>
        <pt x="100" y="485" on="1"/>
        <pt x="100" y="450" on="0"/>
        <pt x="127" y="410" on="0"/>
        <pt x="159" y="392" on="1"/>
        <pt x="275" y="327" on="1"/>
        <pt x="356" y="283" on="0"/>
      </contour>
      <contour>
        <pt x="169" y="713" on="1"/>
        <pt x="119" y="820" on="1"/>
        <pt x="163" y="820" on="1"/>
        <pt x="199" y="757" on="1"/>
        <pt x="235" y="820" on="1"/>
        <pt x="279" y="820" on="1"/>
        <pt x="228" y="713" on="1"/>
      </contour>
    </TTGlyph>
    <TTGlyph name="T" xMin="9" yMin="0" xMax="341" yMax="672">
      <contour>
        <pt x="341" y="672" on="1"/>
        <pt x="341" y="609" on="1"/>
        <pt x="211" y="609" on="1"/>
        <pt x="211" y="0" on="1"/>
        <pt x="139" y="0" on="1"/>
        <pt x="139" y="609" on="1"/>
        <pt x="9" y="609" on="1"/>
        <pt x="9" y="672" on="1"/>
      </contour>
    </TTGlyph>
    <TTGlyph name="Tcaron" xMin="9" yMin="0" xMax="341" yMax="820">
      <contour>
        <pt x="341" y="672" on="1"/>
        <pt x="341" y="609" on="1"/>
        <pt x="211" y="609" on="1"/>
        <pt x="211" y="0" on="1"/>
        <pt x="139" y="0" on="1"/>
        <pt x="139" y="609" on="1"/>
        <pt x="9" y="609" on="1"/>
        <pt x="9" y="672" on="1"/>
      </contour>
      <contour>
        <pt x="144" y="713" on="1"/>
        <pt x="94" y="820" on="1"/>
        <pt x="138" y="820" on="1"/>
        <pt x="174" y="757" on="1"/>
        <pt x="210" y="820" on="1"/>
        <pt x="254" y="820" on="1"/>
        <pt x="203" y="713" on="1"/>
      </contour>
    </TTGlyph>
    <TTGlyph name="Thorn" xMin="79" yMin="0" xMax="402" yMax="672">
      <contour>
        <pt x="148" y="551" on="1"/>
        <pt x="240" y="551" on="1"/>
        <pt x="319" y="551" on="0"/>
        <pt x="402" y="469" on="0"/>
        <pt x="402" y="400" on="1"/>
        <pt x="402" y="272" on="1"/>
        <pt x="402" y="203" on="0"/>
        <pt x="319" y="121" on="0"/>
        <pt x="240" y="121" on="1"/>
        <pt x="148" y="121" on="1"/>
        <pt x="148" y="0" on="1"/>
        <pt x="79" y="0" on="1"/>
        <pt x="79" y="672" on="1"/>
        <pt x="148" y="672" on="1"/>
      </contour>
      <contour>
        <pt x="332" y="276" on="1"/>
        <pt x="332" y="396" on="1"/>
        <pt x="332" y="488" on="0"/>
        <pt x="237" y="488" on="1"/>
        <pt x="148" y="488" on="1"/>
        <pt x="148" y="185" on="1"/>
        <pt x="237" y="185" on="1"/>
        <pt x="332" y="185" on="0"/>
      </contour>
    </TTGlyph>
    <TTGlyph name="U" xMin="64" yMin="-10" xMax="402" yMax="672">
      <contour>
        <pt x="331" y="672" on="1"/>
        <pt x="402" y="672" on="1"/>
        <pt x="402" y="148" on="1"/>
        <pt x="402" y="77" on="0"/>
        <pt x="317" y="-10" on="0"/>
        <pt x="149" y="-10" on="0"/>
        <pt x="64" y="77" on="0"/>
        <pt x="64" y="148" on="1"/>
        <pt x="64" y="672" on="1"/>
        <pt x="135" y="672" on="1"/>
        <pt x="135" y="150" on="1"/>
        <pt x="135" y="54" on="0"/>
        <pt x="331" y="54" on="0"/>
        <pt x="331" y="150" on="1"/>
      </contour>
    </TTGlyph>
    <TTGlyph name="Uacute" xMin="64" yMin="-10" xMax="402" yMax="820">
      <contour>
        <pt x="331" y="672" on="1"/>
        <pt x="402" y="672" on="1"/>
        <pt x="402" y="148" on="1"/>
        <pt x="402" y="77" on="0"/>
        <pt x="317" y="-10" on="0"/>
        <pt x="149" y="-10" on="0"/>
        <pt x="64" y="77" on="0"/>
        <pt x="64" y="148" on="1"/>
        <pt x="64" y="672" on="1"/>
        <pt x="135" y="672" on="1"/>
        <pt x="135" y="150" on="1"/>
        <pt x="135" y="54" on="0"/>
        <pt x="331" y="54" on="0"/>
        <pt x="331" y="150" on="1"/>
      </contour>
      <contour>
        <pt x="249" y="820" on="1"/>
        <pt x="316" y="820" on="1"/>
        <pt x="256" y="713" on="1"/>
        <pt x="210" y="713" on="1"/>
      </contour>
    </TTGlyph>
    <TTGlyph name="Ucircumflex" xMin="64" yMin="-10" xMax="402" yMax="820">
      <contour>
        <pt x="331" y="672" on="1"/>
        <pt x="402" y="672" on="1"/>
        <pt x="402" y="148" on="1"/>
        <pt x="402" y="77" on="0"/>
        <pt x="317" y="-10" on="0"/>
        <pt x="149" y="-10" on="0"/>
        <pt x="64" y="77" on="0"/>
        <pt x="64" y="148" on="1"/>
        <pt x="64" y="672" on="1"/>
        <pt x="135" y="672" on="1"/>
        <pt x="135" y="150" on="1"/>
        <pt x="135" y="54" on="0"/>
        <pt x="331" y="54" on="0"/>
        <pt x="331" y="150" on="1"/>
      </contour>
      <contour>
        <pt x="232" y="776" on="1"/>
        <pt x="196" y="713" on="1"/>
        <pt x="152" y="713" on="1"/>
        <pt x="202" y="820" on="1"/>
        <pt x="261" y="820" on="1"/>
        <pt x="312" y="713" on="1"/>
        <pt x="268" y="713" on="1"/>
      </contour>
    </TTGlyph>
    <TTGlyph name="Udieresis" xMin="64" yMin="-10" xMax="402" yMax="803">
      <contour>
        <pt x="331" y="672" on="1"/>
        <pt x="402" y="672" on="1"/>
        <pt x="402" y="148" on="1"/>
        <pt x="402" y="77" on="0"/>
        <pt x="317" y="-10" on="0"/>
        <pt x="149" y="-10" on="0"/>
        <pt x="64" y="77" on="0"/>
        <pt x="64" y="148" on="1"/>
        <pt x="64" y="672" on="1"/>
        <pt x="135" y="672" on="1"/>
        <pt x="135" y="150" on="1"/>
        <pt x="135" y="54" on="0"/>
        <pt x="331" y="54" on="0"/>
        <pt x="331" y="150" on="1"/>
      </contour>
      <contour>
        <pt x="338" y="728" on="0"/>
        <pt x="262" y="728" on="0"/>
        <pt x="262" y="803" on="0"/>
        <pt x="338" y="803" on="0"/>
      </contour>
      <contour>
        <pt x="127" y="728" on="0"/>
        <pt x="127" y="803" on="0"/>
        <pt x="204" y="803" on="0"/>
        <pt x="204" y="728" on="0"/>
      </contour>
    </TTGlyph>
    <TTGlyph name="Ugrave" xMin="64" yMin="-10" xMax="402" yMax="820">
      <contour>
        <pt x="150" y="820" on="1"/>
        <pt x="217" y="820" on="1"/>
        <pt x="256" y="713" on="1"/>
        <pt x="210" y="713" on="1"/>
      </contour>
      <contour>
        <pt x="331" y="672" on="1"/>
        <pt x="402" y="672" on="1"/>
        <pt x="402" y="148" on="1"/>
        <pt x="402" y="77" on="0"/>
        <pt x="317" y="-10" on="0"/>
        <pt x="149" y="-10" on="0"/>
        <pt x="64" y="77" on="0"/>
        <pt x="64" y="148" on="1"/>
        <pt x="64" y="672" on="1"/>
        <pt x="135" y="672" on="1"/>
        <pt x="135" y="150" on="1"/>
        <pt x="135" y="54" on="0"/>
        <pt x="331" y="54" on="0"/>
        <pt x="331" y="150" on="1"/>
      </contour>
    </TTGlyph>
    <TTGlyph name="Uhungarumlaut" xMin="64" yMin="-10" xMax="402" yMax="820">
      <contour>
        <pt x="199" y="820" on="1"/>
        <pt x="262" y="820" on="1"/>
        <pt x="201" y="713" on="1"/>
        <pt x="159" y="713" on="1"/>
      </contour>
      <contour>
        <pt x="285" y="820" on="1"/>
        <pt x="348" y="820" on="1"/>
        <pt x="287" y="713" on="1"/>
        <pt x="245" y="713" on="1"/>
      </contour>
      <contour>
        <pt x="331" y="672" on="1"/>
        <pt x="402" y="672" on="1"/>
        <pt x="402" y="148" on="1"/>
        <pt x="402" y="77" on="0"/>
        <pt x="317" y="-10" on="0"/>
        <pt x="149" y="-10" on="0"/>
        <pt x="64" y="77" on="0"/>
        <pt x="64" y="148" on="1"/>
        <pt x="64" y="672" on="1"/>
        <pt x="135" y="672" on="1"/>
        <pt x="135" y="150" on="1"/>
        <pt x="135" y="54" on="0"/>
        <pt x="331" y="54" on="0"/>
        <pt x="331" y="150" on="1"/>
      </contour>
    </TTGlyph>
    <TTGlyph name="Umacron" xMin="64" yMin="-10" xMax="402" yMax="790">
      <contour>
        <pt x="122" y="790" on="1"/>
        <pt x="344" y="790" on="1"/>
        <pt x="344" y="743" on="1"/>
        <pt x="122" y="743" on="1"/>
      </contour>
      <contour>
        <pt x="331" y="672" on="1"/>
        <pt x="402" y="672" on="1"/>
        <pt x="402" y="148" on="1"/>
        <pt x="402" y="77" on="0"/>
        <pt x="317" y="-10" on="0"/>
        <pt x="149" y="-10" on="0"/>
        <pt x="64" y="77" on="0"/>
        <pt x="64" y="148" on="1"/>
        <pt x="64" y="672" on="1"/>
        <pt x="135" y="672" on="1"/>
        <pt x="135" y="150" on="1"/>
        <pt x="135" y="54" on="0"/>
        <pt x="331" y="54" on="0"/>
        <pt x="331" y="150" on="1"/>
      </contour>
    </TTGlyph>
    <TTGlyph name="Uogonek" xMin="64" yMin="-166" xMax="402" yMax="672">
      <contour>
        <pt x="331" y="672" on="1"/>
        <pt x="402" y="672" on="1"/>
        <pt x="402" y="148" on="1"/>
        <pt x="402" y="45" on="0"/>
        <pt x="320" y="7" on="1"/>
        <pt x="276" y="-32" on="0"/>
        <pt x="276" y="-83" on="1"/>
        <pt x="276" y="-119" on="0"/>
        <pt x="313" y="-119" on="1"/>
        <pt x="324" y="-119" on="1"/>
        <pt x="324" y="-166" on="1"/>
        <pt x="310" y="-166" on="1"/>
        <pt x="228" y="-166" on="0"/>
        <pt x="228" y="-98" on="1"/>
        <pt x="228" y="-50" on="0"/>
        <pt x="268" y="-8" on="1"/>
        <pt x="246" y="-10" on="0"/>
        <pt x="233" y="-10" on="1"/>
        <pt x="149" y="-10" on="0"/>
        <pt x="64" y="77" on="0"/>
        <pt x="64" y="148" on="1"/>
        <pt x="64" y="672" on="1"/>
        <pt x="135" y="672" on="1"/>
        <pt x="135" y="150" on="1"/>
        <pt x="135" y="54" on="0"/>
        <pt x="331" y="54" on="0"/>
        <pt x="331" y="150" on="1"/>
      </contour>
    </TTGlyph>
    <TTGlyph name="Uring" xMin="64" yMin="-10" xMax="402" yMax="839">
      <contour>
        <pt x="331" y="672" on="1"/>
        <pt x="402" y="672" on="1"/>
        <pt x="402" y="148" on="1"/>
        <pt x="402" y="77" on="0"/>
        <pt x="317" y="-10" on="0"/>
        <pt x="149" y="-10" on="0"/>
        <pt x="64" y="77" on="0"/>
        <pt x="64" y="148" on="1"/>
        <pt x="64" y="672" on="1"/>
        <pt x="135" y="672" on="1"/>
        <pt x="135" y="150" on="1"/>
        <pt x="135" y="54" on="0"/>
        <pt x="331" y="54" on="0"/>
        <pt x="331" y="150" on="1"/>
      </contour>
      <contour>
        <pt x="270" y="767" on="1"/>
        <pt x="270" y="783" on="0"/>
        <pt x="251" y="802" on="0"/>
        <pt x="219" y="802" on="0"/>
        <pt x="200" y="783" on="0"/>
        <pt x="200" y="767" on="1"/>
        <pt x="200" y="731" on="0"/>
        <pt x="270" y="731" on="0"/>
      </contour>
      <contour>
        <pt x="161" y="736" on="0"/>
        <pt x="161" y="798" on="0"/>
        <pt x="201" y="839" on="0"/>
        <pt x="270" y="839" on="0"/>
        <pt x="309" y="798" on="0"/>
        <pt x="309" y="736" on="0"/>
        <pt x="270" y="694" on="0"/>
        <pt x="201" y="694" on="0"/>
      </contour>
    </TTGlyph>
    <TTGlyph name="V" xMin="13" yMin="0" xMax="407" yMax="672">
      <contour>
        <pt x="333" y="672" on="1"/>
        <pt x="407" y="672" on="1"/>
        <pt x="260" y="0" on="1"/>
        <pt x="160" y="0" on="1"/>
        <pt x="13" y="672" on="1"/>
        <pt x="86" y="672" on="1"/>
        <pt x="157" y="338" on="1"/>
        <pt x="195" y="137" on="0"/>
        <pt x="210" y="69" on="1"/>
        <pt x="218" y="109" on="0"/>
        <pt x="237" y="207" on="1"/>
        <pt x="258" y="314" on="0"/>
      </contour>
    </TTGlyph>
    <TTGlyph name="W" xMin="21" yMin="0" xMax="588" yMax="672">
      <contour>
        <pt x="520" y="672" on="1"/>
        <pt x="588" y="672" on="1"/>
        <pt x="477" y="0" on="1"/>
        <pt x="392" y="0" on="1"/>
        <pt x="326" y="388" on="0"/>
        <pt x="311" y="501" on="0"/>
        <pt x="305" y="561" on="1"/>
        <pt x="295" y="452" on="0"/>
        <pt x="275" y="336" on="1"/>
        <pt x="218" y="0" on="1"/>
        <pt x="131" y="0" on="1"/>
        <pt x="21" y="672" on="1"/>
        <pt x="89" y="672" on="1"/>
        <pt x="155" y="271" on="1"/>
        <pt x="179" y="93" on="1"/>
        <pt x="190" y="183" on="0"/>
        <pt x="204" y="272" on="1"/>
        <pt x="268" y="672" on="1"/>
        <pt x="341" y="672" on="1"/>
        <pt x="405" y="271" on="1"/>
        <pt x="430" y="95" on="1"/>
        <pt x="443" y="200" on="0"/>
        <pt x="454" y="271" on="1"/>
      </contour>
    </TTGlyph>
    <TTGlyph name="X" xMin="13" yMin="0" xMax="379" yMax="672">
      <contour>
        <pt x="302" y="672" on="1"/>
        <pt x="379" y="672" on="1"/>
        <pt x="233" y="336" on="1"/>
        <pt x="379" y="0" on="1"/>
        <pt x="302" y="0" on="1"/>
        <pt x="197" y="255" on="1"/>
        <pt x="91" y="0" on="1"/>
        <pt x="13" y="0" on="1"/>
        <pt x="159" y="336" on="1"/>
        <pt x="13" y="672" on="1"/>
        <pt x="90" y="672" on="1"/>
        <pt x="197" y="416" on="1"/>
      </contour>
    </TTGlyph>
    <TTGlyph name="Y" xMin="4" yMin="0" xMax="405" yMax="672">
      <contour>
        <pt x="240" y="0" on="1"/>
        <pt x="169" y="0" on="1"/>
        <pt x="169" y="227" on="1"/>
        <pt x="4" y="672" on="1"/>
        <pt x="77" y="672" on="1"/>
        <pt x="145" y="489" on="1"/>
        <pt x="149" y="478" on="0"/>
        <pt x="206" y="310" on="1"/>
        <pt x="243" y="425" on="0"/>
        <pt x="333" y="672" on="1"/>
        <pt x="405" y="672" on="1"/>
        <pt x="240" y="227" on="1"/>
      </contour>
    </TTGlyph>
    <TTGlyph name="Yacute" xMin="4" yMin="0" xMax="405" yMax="820">
      <contour>
        <pt x="218" y="820" on="1"/>
        <pt x="285" y="820" on="1"/>
        <pt x="225" y="713" on="1"/>
        <pt x="179" y="713" on="1"/>
      </contour>
      <contour>
        <pt x="240" y="0" on="1"/>
        <pt x="169" y="0" on="1"/>
        <pt x="169" y="227" on="1"/>
        <pt x="4" y="672" on="1"/>
        <pt x="77" y="672" on="1"/>
        <pt x="145" y="489" on="1"/>
        <pt x="149" y="478" on="0"/>
        <pt x="206" y="310" on="1"/>
        <pt x="243" y="425" on="0"/>
        <pt x="333" y="672" on="1"/>
        <pt x="405" y="672" on="1"/>
        <pt x="240" y="227" on="1"/>
      </contour>
    </TTGlyph>
    <TTGlyph name="Ydieresis" xMin="4" yMin="0" xMax="405" yMax="803">
      <contour>
        <pt x="240" y="0" on="1"/>
        <pt x="169" y="0" on="1"/>
        <pt x="169" y="227" on="1"/>
        <pt x="4" y="672" on="1"/>
        <pt x="77" y="672" on="1"/>
        <pt x="145" y="489" on="1"/>
        <pt x="149" y="478" on="0"/>
        <pt x="206" y="310" on="1"/>
        <pt x="243" y="425" on="0"/>
        <pt x="333" y="672" on="1"/>
        <pt x="405" y="672" on="1"/>
        <pt x="240" y="227" on="1"/>
      </contour>
      <contour>
        <pt x="305" y="728" on="0"/>
        <pt x="229" y="728" on="0"/>
        <pt x="229" y="803" on="0"/>
        <pt x="305" y="803" on="0"/>
      </contour>
      <contour>
        <pt x="94" y="728" on="0"/>
        <pt x="94" y="803" on="0"/>
        <pt x="171" y="803" on="0"/>
        <pt x="171" y="728" on="0"/>
      </contour>
    </TTGlyph>
    <TTGlyph name="Z" xMin="28" yMin="0" xMax="354" yMax="672">
      <contour>
        <pt x="33" y="672" on="1"/>
        <pt x="354" y="672" on="1"/>
        <pt x="354" y="611" on="1"/>
        <pt x="103" y="62" on="1"/>
        <pt x="350" y="62" on="1"/>
        <pt x="350" y="0" on="1"/>
        <pt x="28" y="0" on="1"/>
        <pt x="28" y="62" on="1"/>
        <pt x="278" y="609" on="1"/>
        <pt x="33" y="609" on="1"/>
      </contour>
    </TTGlyph>
    <TTGlyph name="Zacute" xMin="28" yMin="0" xMax="354" yMax="820">
      <contour>
        <pt x="33" y="672" on="1"/>
        <pt x="354" y="672" on="1"/>
        <pt x="354" y="611" on="1"/>
        <pt x="103" y="62" on="1"/>
        <pt x="350" y="62" on="1"/>
        <pt x="350" y="0" on="1"/>
        <pt x="28" y="0" on="1"/>
        <pt x="28" y="62" on="1"/>
        <pt x="278" y="609" on="1"/>
        <pt x="33" y="609" on="1"/>
      </contour>
      <contour>
        <pt x="205" y="820" on="1"/>
        <pt x="272" y="820" on="1"/>
        <pt x="212" y="713" on="1"/>
        <pt x="166" y="713" on="1"/>
      </contour>
    </TTGlyph>
    <TTGlyph name="Zcaron" xMin="28" yMin="0" xMax="354" yMax="820">
      <contour>
        <pt x="354" y="672" on="1"/>
        <pt x="354" y="611" on="1"/>
        <pt x="103" y="62" on="1"/>
        <pt x="350" y="62" on="1"/>
        <pt x="350" y="0" on="1"/>
        <pt x="28" y="0" on="1"/>
        <pt x="28" y="62" on="1"/>
        <pt x="278" y="609" on="1"/>
        <pt x="33" y="609" on="1"/>
        <pt x="33" y="672" on="1"/>
      </contour>
      <contour>
        <pt x="165" y="713" on="1"/>
        <pt x="115" y="820" on="1"/>
        <pt x="159" y="820" on="1"/>
        <pt x="195" y="757" on="1"/>
        <pt x="231" y="820" on="1"/>
        <pt x="275" y="820" on="1"/>
        <pt x="224" y="713" on="1"/>
      </contour>
    </TTGlyph>
    <TTGlyph name="Zdotaccent" xMin="28" yMin="0" xMax="354" yMax="826">
      <contour>
        <pt x="151" y="751" on="0"/>
        <pt x="151" y="826" on="0"/>
        <pt x="228" y="826" on="0"/>
        <pt x="228" y="751" on="0"/>
      </contour>
      <contour>
        <pt x="33" y="672" on="1"/>
        <pt x="354" y="672" on="1"/>
        <pt x="354" y="611" on="1"/>
        <pt x="103" y="62" on="1"/>
        <pt x="350" y="62" on="1"/>
        <pt x="350" y="0" on="1"/>
        <pt x="28" y="0" on="1"/>
        <pt x="28" y="62" on="1"/>
        <pt x="278" y="609" on="1"/>
        <pt x="33" y="609" on="1"/>
      </contour>
    </TTGlyph>
    <TTGlyph name="a" xMin="32" yMin="-4" xMax="361" yMax="574">
      <contour>
        <pt x="101" y="162" on="1"/>
        <pt x="101" y="132" on="1"/>
        <pt x="101" y="92" on="0"/>
        <pt x="139" y="54" on="0"/>
        <pt x="245" y="54" on="0"/>
        <pt x="292" y="93" on="1"/>
        <pt x="292" y="280" on="1"/>
        <pt x="178" y="248" on="1"/>
        <pt x="133" y="235" on="0"/>
        <pt x="101" y="197" on="0"/>
      </contour>
      <contour>
        <pt x="191" y="574" on="1"/>
        <pt x="361" y="574" on="0"/>
        <pt x="361" y="429" on="1"/>
        <pt x="361" y="0" on="1"/>
        <pt x="293" y="0" on="1"/>
        <pt x="293" y="41" on="1"/>
        <pt x="242" y="-4" on="0"/>
        <pt x="171" y="-4" on="1"/>
        <pt x="32" y="-4" on="0"/>
        <pt x="32" y="133" on="1"/>
        <pt x="32" y="165" on="1"/>
        <pt x="32" y="269" on="0"/>
        <pt x="153" y="303" on="1"/>
        <pt x="293" y="342" on="1"/>
        <pt x="293" y="429" on="1"/>
        <pt x="292" y="470" on="0"/>
        <pt x="248" y="508" on="0"/>
        <pt x="115" y="508" on="0"/>
        <pt x="59" y="488" on="1"/>
        <pt x="59" y="555" on="1"/>
        <pt x="116" y="574" on="0"/>
      </contour>
    </TTGlyph>
    <TTGlyph name="aacute" xMin="32" yMin="-4" xMax="361" yMax="720">
      <contour>
        <pt x="221" y="720" on="1"/>
        <pt x="288" y="720" on="1"/>
        <pt x="228" y="613" on="1"/>
        <pt x="182" y="613" on="1"/>
      </contour>
      <contour>
        <pt x="101" y="162" on="1"/>
        <pt x="101" y="132" on="1"/>
        <pt x="101" y="92" on="0"/>
        <pt x="139" y="54" on="0"/>
        <pt x="245" y="54" on="0"/>
        <pt x="292" y="93" on="1"/>
        <pt x="292" y="280" on="1"/>
        <pt x="178" y="248" on="1"/>
        <pt x="133" y="235" on="0"/>
        <pt x="101" y="197" on="0"/>
      </contour>
      <contour>
        <pt x="191" y="574" on="1"/>
        <pt x="361" y="574" on="0"/>
        <pt x="361" y="429" on="1"/>
        <pt x="361" y="0" on="1"/>
        <pt x="293" y="0" on="1"/>
        <pt x="293" y="41" on="1"/>
        <pt x="242" y="-4" on="0"/>
        <pt x="171" y="-4" on="1"/>
        <pt x="32" y="-4" on="0"/>
        <pt x="32" y="133" on="1"/>
        <pt x="32" y="165" on="1"/>
        <pt x="32" y="269" on="0"/>
        <pt x="153" y="303" on="1"/>
        <pt x="293" y="342" on="1"/>
        <pt x="293" y="429" on="1"/>
        <pt x="292" y="470" on="0"/>
        <pt x="248" y="508" on="0"/>
        <pt x="115" y="508" on="0"/>
        <pt x="59" y="488" on="1"/>
        <pt x="59" y="555" on="1"/>
        <pt x="116" y="574" on="0"/>
      </contour>
    </TTGlyph>
    <TTGlyph name="abreve" xMin="32" yMin="-4" xMax="361" yMax="720">
      <contour>
        <pt x="262" y="613" on="0"/>
        <pt x="162" y="613" on="0"/>
        <pt x="104" y="673" on="0"/>
        <pt x="102" y="720" on="1"/>
        <pt x="152" y="720" on="1"/>
        <pt x="153" y="692" on="0"/>
        <pt x="185" y="659" on="0"/>
        <pt x="239" y="659" on="0"/>
        <pt x="271" y="692" on="0"/>
        <pt x="272" y="720" on="1"/>
        <pt x="322" y="720" on="1"/>
        <pt x="320" y="673" on="0"/>
      </contour>
      <contour>
        <pt x="101" y="162" on="1"/>
        <pt x="101" y="132" on="1"/>
        <pt x="101" y="92" on="0"/>
        <pt x="139" y="54" on="0"/>
        <pt x="245" y="54" on="0"/>
        <pt x="292" y="93" on="1"/>
        <pt x="292" y="280" on="1"/>
        <pt x="178" y="248" on="1"/>
        <pt x="133" y="235" on="0"/>
        <pt x="101" y="197" on="0"/>
      </contour>
      <contour>
        <pt x="191" y="574" on="1"/>
        <pt x="361" y="574" on="0"/>
        <pt x="361" y="429" on="1"/>
        <pt x="361" y="0" on="1"/>
        <pt x="293" y="0" on="1"/>
        <pt x="293" y="41" on="1"/>
        <pt x="242" y="-4" on="0"/>
        <pt x="171" y="-4" on="1"/>
        <pt x="32" y="-4" on="0"/>
        <pt x="32" y="133" on="1"/>
        <pt x="32" y="165" on="1"/>
        <pt x="32" y="269" on="0"/>
        <pt x="153" y="303" on="1"/>
        <pt x="293" y="342" on="1"/>
        <pt x="293" y="429" on="1"/>
        <pt x="292" y="470" on="0"/>
        <pt x="248" y="508" on="0"/>
        <pt x="115" y="508" on="0"/>
        <pt x="59" y="488" on="1"/>
        <pt x="59" y="555" on="1"/>
        <pt x="116" y="574" on="0"/>
      </contour>
    </TTGlyph>
    <TTGlyph name="acircumflex" xMin="32" yMin="-4" xMax="361" yMax="720">
      <contour>
        <pt x="191" y="574" on="1"/>
        <pt x="361" y="574" on="0"/>
        <pt x="361" y="429" on="1"/>
        <pt x="361" y="0" on="1"/>
        <pt x="293" y="0" on="1"/>
        <pt x="293" y="41" on="1"/>
        <pt x="242" y="-4" on="0"/>
        <pt x="171" y="-4" on="1"/>
        <pt x="32" y="-4" on="0"/>
        <pt x="32" y="133" on="1"/>
        <pt x="32" y="165" on="1"/>
        <pt x="32" y="269" on="0"/>
        <pt x="153" y="303" on="1"/>
        <pt x="293" y="342" on="1"/>
        <pt x="293" y="429" on="1"/>
        <pt x="292" y="470" on="0"/>
        <pt x="248" y="508" on="0"/>
        <pt x="115" y="508" on="0"/>
        <pt x="59" y="488" on="1"/>
        <pt x="59" y="555" on="1"/>
        <pt x="116" y="574" on="0"/>
      </contour>
      <contour>
        <pt x="101" y="162" on="1"/>
        <pt x="101" y="132" on="1"/>
        <pt x="101" y="92" on="0"/>
        <pt x="139" y="54" on="0"/>
        <pt x="245" y="54" on="0"/>
        <pt x="292" y="93" on="1"/>
        <pt x="292" y="280" on="1"/>
        <pt x="178" y="248" on="1"/>
        <pt x="133" y="235" on="0"/>
        <pt x="101" y="197" on="0"/>
      </contour>
      <contour>
        <pt x="215" y="676" on="1"/>
        <pt x="179" y="613" on="1"/>
        <pt x="135" y="613" on="1"/>
        <pt x="185" y="720" on="1"/>
        <pt x="244" y="720" on="1"/>
        <pt x="295" y="613" on="1"/>
        <pt x="251" y="613" on="1"/>
      </contour>
    </TTGlyph>
    <TTGlyph name="acute" xMin="122" yMin="613" xMax="228" yMax="720">
      <contour>
        <pt x="161" y="720" on="1"/>
        <pt x="228" y="720" on="1"/>
        <pt x="168" y="613" on="1"/>
        <pt x="122" y="613" on="1"/>
      </contour>
    </TTGlyph>
    <TTGlyph name="adieresis" xMin="32" yMin="-4" xMax="361" yMax="703">
      <contour>
        <pt x="315" y="628" on="0"/>
        <pt x="239" y="628" on="0"/>
        <pt x="239" y="703" on="0"/>
        <pt x="315" y="703" on="0"/>
      </contour>
      <contour>
        <pt x="104" y="628" on="0"/>
        <pt x="104" y="703" on="0"/>
        <pt x="181" y="703" on="0"/>
        <pt x="181" y="628" on="0"/>
      </contour>
      <contour>
        <pt x="101" y="162" on="1"/>
        <pt x="101" y="132" on="1"/>
        <pt x="101" y="92" on="0"/>
        <pt x="139" y="54" on="0"/>
        <pt x="245" y="54" on="0"/>
        <pt x="292" y="93" on="1"/>
        <pt x="292" y="280" on="1"/>
        <pt x="178" y="248" on="1"/>
        <pt x="133" y="235" on="0"/>
        <pt x="101" y="197" on="0"/>
      </contour>
      <contour>
        <pt x="191" y="574" on="1"/>
        <pt x="361" y="574" on="0"/>
        <pt x="361" y="429" on="1"/>
        <pt x="361" y="0" on="1"/>
        <pt x="293" y="0" on="1"/>
        <pt x="293" y="41" on="1"/>
        <pt x="242" y="-4" on="0"/>
        <pt x="171" y="-4" on="1"/>
        <pt x="32" y="-4" on="0"/>
        <pt x="32" y="133" on="1"/>
        <pt x="32" y="165" on="1"/>
        <pt x="32" y="269" on="0"/>
        <pt x="153" y="303" on="1"/>
        <pt x="293" y="342" on="1"/>
        <pt x="293" y="429" on="1"/>
        <pt x="292" y="470" on="0"/>
        <pt x="248" y="508" on="0"/>
        <pt x="115" y="508" on="0"/>
        <pt x="59" y="488" on="1"/>
        <pt x="59" y="555" on="1"/>
        <pt x="116" y="574" on="0"/>
      </contour>
    </TTGlyph>
    <TTGlyph name="ae" xMin="33" yMin="-5" xMax="619" yMax="579">
      <contour>
        <pt x="550" y="423" on="1"/>
        <pt x="550" y="517" on="0"/>
        <pt x="457" y="517" on="1"/>
        <pt x="362" y="517" on="0"/>
        <pt x="362" y="423" on="1"/>
        <pt x="362" y="308" on="1"/>
        <pt x="550" y="308" on="1"/>
      </contour>
      <contour>
        <pt x="101" y="162" on="1"/>
        <pt x="101" y="132" on="1"/>
        <pt x="101" y="92" on="0"/>
        <pt x="140" y="54" on="0"/>
        <pt x="183" y="54" on="1"/>
        <pt x="249" y="54" on="0"/>
        <pt x="293" y="89" on="1"/>
        <pt x="293" y="280" on="1"/>
        <pt x="178" y="248" on="1"/>
        <pt x="133" y="235" on="0"/>
        <pt x="101" y="197" on="0"/>
      </contour>
      <contour>
        <pt x="328" y="525" on="1"/>
        <pt x="374" y="579" on="0"/>
        <pt x="539" y="579" on="0"/>
        <pt x="619" y="494" on="0"/>
        <pt x="619" y="423" on="1"/>
        <pt x="619" y="249" on="1"/>
        <pt x="362" y="249" on="1"/>
        <pt x="362" y="148" on="1"/>
        <pt x="362" y="59" on="0"/>
        <pt x="486" y="59" on="1"/>
        <pt x="539" y="59" on="0"/>
        <pt x="602" y="77" on="1"/>
        <pt x="602" y="11" on="1"/>
        <pt x="552" y="-5" on="0"/>
        <pt x="483" y="-5" on="1"/>
        <pt x="375" y="-5" on="0"/>
        <pt x="330" y="43" on="1"/>
        <pt x="275" y="-4" on="0"/>
        <pt x="175" y="-4" on="1"/>
        <pt x="33" y="-4" on="0"/>
        <pt x="33" y="133" on="1"/>
        <pt x="33" y="165" on="1"/>
        <pt x="33" y="218" on="0"/>
        <pt x="90" y="285" on="0"/>
        <pt x="153" y="303" on="1"/>
        <pt x="292" y="344" on="1"/>
        <pt x="292" y="431" on="1"/>
        <pt x="292" y="470" on="0"/>
        <pt x="248" y="508" on="0"/>
        <pt x="115" y="508" on="0"/>
        <pt x="59" y="488" on="1"/>
        <pt x="59" y="555" on="1"/>
        <pt x="114" y="574" on="0"/>
        <pt x="287" y="574" on="0"/>
      </contour>
    </TTGlyph>
    <TTGlyph name="agrave" xMin="32" yMin="-4" xMax="361" yMax="720">
      <contour>
        <pt x="124" y="720" on="1"/>
        <pt x="191" y="720" on="1"/>
        <pt x="230" y="613" on="1"/>
        <pt x="184" y="613" on="1"/>
      </contour>
      <contour>
        <pt x="101" y="162" on="1"/>
        <pt x="101" y="132" on="1"/>
        <pt x="101" y="92" on="0"/>
        <pt x="139" y="54" on="0"/>
        <pt x="245" y="54" on="0"/>
        <pt x="292" y="93" on="1"/>
        <pt x="292" y="280" on="1"/>
        <pt x="178" y="248" on="1"/>
        <pt x="133" y="235" on="0"/>
        <pt x="101" y="197" on="0"/>
      </contour>
      <contour>
        <pt x="191" y="574" on="1"/>
        <pt x="361" y="574" on="0"/>
        <pt x="361" y="429" on="1"/>
        <pt x="361" y="0" on="1"/>
        <pt x="293" y="0" on="1"/>
        <pt x="293" y="41" on="1"/>
        <pt x="242" y="-4" on="0"/>
        <pt x="171" y="-4" on="1"/>
        <pt x="32" y="-4" on="0"/>
        <pt x="32" y="133" on="1"/>
        <pt x="32" y="165" on="1"/>
        <pt x="32" y="269" on="0"/>
        <pt x="153" y="303" on="1"/>
        <pt x="293" y="342" on="1"/>
        <pt x="293" y="429" on="1"/>
        <pt x="292" y="470" on="0"/>
        <pt x="248" y="508" on="0"/>
        <pt x="115" y="508" on="0"/>
        <pt x="59" y="488" on="1"/>
        <pt x="59" y="555" on="1"/>
        <pt x="116" y="574" on="0"/>
      </contour>
    </TTGlyph>
    <TTGlyph name="amacron" xMin="32" yMin="-4" xMax="361" yMax="690">
      <contour>
        <pt x="96" y="690" on="1"/>
        <pt x="318" y="690" on="1"/>
        <pt x="318" y="643" on="1"/>
        <pt x="96" y="643" on="1"/>
      </contour>
      <contour>
        <pt x="101" y="162" on="1"/>
        <pt x="101" y="132" on="1"/>
        <pt x="101" y="92" on="0"/>
        <pt x="139" y="54" on="0"/>
        <pt x="245" y="54" on="0"/>
        <pt x="292" y="93" on="1"/>
        <pt x="292" y="280" on="1"/>
        <pt x="178" y="248" on="1"/>
        <pt x="133" y="235" on="0"/>
        <pt x="101" y="197" on="0"/>
      </contour>
      <contour>
        <pt x="191" y="574" on="1"/>
        <pt x="361" y="574" on="0"/>
        <pt x="361" y="429" on="1"/>
        <pt x="361" y="0" on="1"/>
        <pt x="293" y="0" on="1"/>
        <pt x="293" y="41" on="1"/>
        <pt x="242" y="-4" on="0"/>
        <pt x="171" y="-4" on="1"/>
        <pt x="32" y="-4" on="0"/>
        <pt x="32" y="133" on="1"/>
        <pt x="32" y="165" on="1"/>
        <pt x="32" y="269" on="0"/>
        <pt x="153" y="303" on="1"/>
        <pt x="293" y="342" on="1"/>
        <pt x="293" y="429" on="1"/>
        <pt x="292" y="470" on="0"/>
        <pt x="248" y="508" on="0"/>
        <pt x="115" y="508" on="0"/>
        <pt x="59" y="488" on="1"/>
        <pt x="59" y="555" on="1"/>
        <pt x="116" y="574" on="0"/>
      </contour>
    </TTGlyph>
    <TTGlyph name="ampersand" xMin="53" yMin="-9" xMax="442" yMax="677">
      <contour>
        <pt x="442" y="377" on="1"/>
        <pt x="442" y="314" on="1"/>
        <pt x="400" y="314" on="1"/>
        <pt x="400" y="149" on="1"/>
        <pt x="400" y="78" on="0"/>
        <pt x="312" y="-9" on="0"/>
        <pt x="144" y="-9" on="0"/>
        <pt x="53" y="79" on="0"/>
        <pt x="53" y="149" on="1"/>
        <pt x="53" y="221" on="1"/>
        <pt x="53" y="318" on="0"/>
        <pt x="131" y="346" on="1"/>
        <pt x="54" y="374" on="0"/>
        <pt x="54" y="472" on="1"/>
        <pt x="54" y="527" on="1"/>
        <pt x="54" y="596" on="0"/>
        <pt x="147" y="677" on="0"/>
        <pt x="243" y="677" on="1"/>
        <pt x="313" y="677" on="0"/>
        <pt x="369" y="659" on="1"/>
        <pt x="369" y="590" on="1"/>
        <pt x="311" y="610" on="0"/>
        <pt x="177" y="610" on="0"/>
        <pt x="125" y="565" on="0"/>
        <pt x="125" y="523" on="1"/>
        <pt x="125" y="473" on="1"/>
        <pt x="125" y="377" on="0"/>
        <pt x="214" y="377" on="1"/>
        <pt x="331" y="377" on="1"/>
        <pt x="331" y="435" on="1"/>
        <pt x="400" y="435" on="1"/>
        <pt x="400" y="377" on="1"/>
      </contour>
      <contour>
        <pt x="331" y="150" on="1"/>
        <pt x="331" y="314" on="1"/>
        <pt x="215" y="314" on="1"/>
        <pt x="124" y="314" on="0"/>
        <pt x="124" y="219" on="1"/>
        <pt x="124" y="150" on="1"/>
        <pt x="124" y="106" on="0"/>
        <pt x="176" y="54" on="0"/>
        <pt x="280" y="54" on="0"/>
        <pt x="331" y="106" on="0"/>
      </contour>
    </TTGlyph>
    <TTGlyph name="aogonek" xMin="32" yMin="-176" xMax="361" yMax="574">
      <contour>
        <pt x="191" y="574" on="1"/>
        <pt x="361" y="574" on="0"/>
        <pt x="361" y="429" on="1"/>
        <pt x="361" y="0" on="1"/>
        <pt x="360" y="0" on="1"/>
        <pt x="312" y="-38" on="0"/>
        <pt x="312" y="-93" on="1"/>
        <pt x="312" y="-129" on="0"/>
        <pt x="349" y="-129" on="1"/>
        <pt x="360" y="-129" on="1"/>
        <pt x="360" y="-176" on="1"/>
        <pt x="346" y="-176" on="1"/>
        <pt x="264" y="-176" on="0"/>
        <pt x="264" y="-108" on="1"/>
        <pt x="264" y="-46" on="0"/>
        <pt x="324" y="0" on="1"/>
        <pt x="293" y="0" on="1"/>
        <pt x="293" y="41" on="1"/>
        <pt x="242" y="-4" on="0"/>
        <pt x="171" y="-4" on="1"/>
        <pt x="32" y="-4" on="0"/>
        <pt x="32" y="133" on="1"/>
        <pt x="32" y="165" on="1"/>
        <pt x="32" y="269" on="0"/>
        <pt x="153" y="303" on="1"/>
        <pt x="293" y="342" on="1"/>
        <pt x="293" y="429" on="1"/>
        <pt x="292" y="470" on="0"/>
        <pt x="248" y="508" on="0"/>
        <pt x="115" y="508" on="0"/>
        <pt x="59" y="488" on="1"/>
        <pt x="59" y="555" on="1"/>
        <pt x="116" y="574" on="0"/>
      </contour>
      <contour>
        <pt x="101" y="162" on="1"/>
        <pt x="101" y="132" on="1"/>
        <pt x="101" y="92" on="0"/>
        <pt x="139" y="54" on="0"/>
        <pt x="245" y="54" on="0"/>
        <pt x="292" y="93" on="1"/>
        <pt x="292" y="280" on="1"/>
        <pt x="178" y="248" on="1"/>
        <pt x="133" y="235" on="0"/>
        <pt x="101" y="197" on="0"/>
      </contour>
    </TTGlyph>
    <TTGlyph name="approxequal" xMin="42" yMin="203" xMax="422" yMax="466">
      <contour>
        <pt x="422" y="437" on="1"/>
        <pt x="422" y="396" on="0"/>
        <pt x="400" y="372" on="1"/>
        <pt x="358" y="328" on="0"/>
        <pt x="274" y="360" on="1"/>
        <pt x="185" y="398" on="1"/>
        <pt x="148" y="417" on="0"/>
        <pt x="96" y="395" on="0"/>
        <pt x="103" y="354" on="1"/>
        <pt x="45" y="354" on="1"/>
        <pt x="42" y="368" on="0"/>
        <pt x="42" y="384" on="1"/>
        <pt x="42" y="424" on="0"/>
        <pt x="65" y="448" on="1"/>
        <pt x="107" y="492" on="0"/>
        <pt x="191" y="460" on="1"/>
        <pt x="279" y="422" on="1"/>
        <pt x="319" y="402" on="0"/>
        <pt x="369" y="424" on="0"/>
        <pt x="362" y="466" on="1"/>
        <pt x="420" y="466" on="1"/>
        <pt x="422" y="453" on="0"/>
      </contour>
      <contour>
        <pt x="422" y="286" on="1"/>
        <pt x="422" y="245" on="0"/>
        <pt x="400" y="221" on="1"/>
        <pt x="358" y="177" on="0"/>
        <pt x="274" y="209" on="1"/>
        <pt x="185" y="247" on="1"/>
        <pt x="148" y="266" on="0"/>
        <pt x="96" y="244" on="0"/>
        <pt x="103" y="203" on="1"/>
        <pt x="45" y="203" on="1"/>
        <pt x="42" y="217" on="0"/>
        <pt x="42" y="233" on="1"/>
        <pt x="42" y="273" on="0"/>
        <pt x="65" y="297" on="1"/>
        <pt x="107" y="341" on="0"/>
        <pt x="191" y="309" on="1"/>
        <pt x="279" y="271" on="1"/>
        <pt x="319" y="251" on="0"/>
        <pt x="369" y="273" on="0"/>
        <pt x="362" y="315" on="1"/>
        <pt x="420" y="315" on="1"/>
        <pt x="422" y="302" on="0"/>
      </contour>
    </TTGlyph>
    <TTGlyph name="aring" xMin="32" yMin="-4" xMax="361" yMax="739">
      <contour>
        <pt x="244" y="667" on="1"/>
        <pt x="244" y="683" on="0"/>
        <pt x="225" y="702" on="0"/>
        <pt x="193" y="702" on="0"/>
        <pt x="174" y="683" on="0"/>
        <pt x="174" y="667" on="1"/>
        <pt x="174" y="631" on="0"/>
        <pt x="244" y="631" on="0"/>
      </contour>
      <contour>
        <pt x="135" y="636" on="0"/>
        <pt x="135" y="698" on="0"/>
        <pt x="175" y="739" on="0"/>
        <pt x="244" y="739" on="0"/>
        <pt x="283" y="698" on="0"/>
        <pt x="283" y="636" on="0"/>
        <pt x="244" y="594" on="0"/>
        <pt x="175" y="594" on="0"/>
      </contour>
      <contour>
        <pt x="101" y="162" on="1"/>
        <pt x="101" y="132" on="1"/>
        <pt x="101" y="92" on="0"/>
        <pt x="139" y="54" on="0"/>
        <pt x="245" y="54" on="0"/>
        <pt x="292" y="93" on="1"/>
        <pt x="292" y="280" on="1"/>
        <pt x="178" y="248" on="1"/>
        <pt x="133" y="235" on="0"/>
        <pt x="101" y="197" on="0"/>
      </contour>
      <contour>
        <pt x="191" y="574" on="1"/>
        <pt x="361" y="574" on="0"/>
        <pt x="361" y="429" on="1"/>
        <pt x="361" y="0" on="1"/>
        <pt x="293" y="0" on="1"/>
        <pt x="293" y="41" on="1"/>
        <pt x="242" y="-4" on="0"/>
        <pt x="171" y="-4" on="1"/>
        <pt x="32" y="-4" on="0"/>
        <pt x="32" y="133" on="1"/>
        <pt x="32" y="165" on="1"/>
        <pt x="32" y="269" on="0"/>
        <pt x="153" y="303" on="1"/>
        <pt x="293" y="342" on="1"/>
        <pt x="293" y="429" on="1"/>
        <pt x="292" y="470" on="0"/>
        <pt x="248" y="508" on="0"/>
        <pt x="115" y="508" on="0"/>
        <pt x="59" y="488" on="1"/>
        <pt x="59" y="555" on="1"/>
        <pt x="116" y="574" on="0"/>
      </contour>
    </TTGlyph>
    <TTGlyph name="asciicircum" xMin="3" yMin="379" xMax="310" yMax="664">
      <contour>
        <pt x="310" y="379" on="1"/>
        <pt x="242" y="379" on="1"/>
        <pt x="157" y="626" on="1"/>
        <pt x="72" y="379" on="1"/>
        <pt x="3" y="379" on="1"/>
        <pt x="111" y="664" on="1"/>
        <pt x="204" y="664" on="1"/>
      </contour>
    </TTGlyph>
    <TTGlyph name="asciitilde" xMin="23" yMin="283" xMax="403" yMax="395">
      <contour>
        <pt x="403" y="365" on="1"/>
        <pt x="403" y="305" on="0"/>
        <pt x="309" y="262" on="0"/>
        <pt x="255" y="288" on="1"/>
        <pt x="167" y="327" on="1"/>
        <pt x="129" y="346" on="0"/>
        <pt x="77" y="324" on="0"/>
        <pt x="84" y="283" on="1"/>
        <pt x="26" y="283" on="1"/>
        <pt x="23" y="297" on="0"/>
        <pt x="23" y="312" on="1"/>
        <pt x="23" y="353" on="0"/>
        <pt x="46" y="377" on="1"/>
        <pt x="88" y="421" on="0"/>
        <pt x="172" y="389" on="1"/>
        <pt x="260" y="351" on="1"/>
        <pt x="300" y="331" on="0"/>
        <pt x="350" y="353" on="0"/>
        <pt x="343" y="395" on="1"/>
        <pt x="401" y="395" on="1"/>
        <pt x="403" y="381" on="0"/>
      </contour>
    </TTGlyph>
    <TTGlyph name="asterisk" xMin="61" yMin="427" xMax="438" yMax="785">
      <contour>
        <pt x="218" y="684" on="1"/>
        <pt x="218" y="785" on="1"/>
        <pt x="280" y="785" on="1"/>
        <pt x="280" y="684" on="1"/>
        <pt x="280" y="651" on="0"/>
        <pt x="271" y="628" on="1"/>
        <pt x="291" y="643" on="0"/>
        <pt x="322" y="653" on="1"/>
        <pt x="419" y="685" on="1"/>
        <pt x="438" y="626" on="1"/>
        <pt x="342" y="595" on="1"/>
        <pt x="311" y="585" on="0"/>
        <pt x="285" y="585" on="1"/>
        <pt x="304" y="573" on="0"/>
        <pt x="325" y="545" on="1"/>
        <pt x="385" y="463" on="1"/>
        <pt x="335" y="427" on="1"/>
        <pt x="276" y="508" on="1"/>
        <pt x="256" y="534" on="0"/>
        <pt x="249" y="558" on="1"/>
        <pt x="242" y="534" on="0"/>
        <pt x="223" y="509" on="1"/>
        <pt x="164" y="427" on="1"/>
        <pt x="114" y="463" on="1"/>
        <pt x="173" y="544" on="1"/>
        <pt x="194" y="573" on="0"/>
        <pt x="214" y="585" on="1"/>
        <pt x="187" y="585" on="0"/>
        <pt x="157" y="595" on="1"/>
        <pt x="61" y="626" on="1"/>
        <pt x="79" y="684" on="1"/>
        <pt x="175" y="653" on="1"/>
        <pt x="206" y="643" on="0"/>
        <pt x="226" y="628" on="1"/>
        <pt x="218" y="654" on="0"/>
      </contour>
    </TTGlyph>
    <TTGlyph name="at" xMin="72" yMin="-113" xMax="793" yMax="661">
      <contour>
        <pt x="518" y="-113" on="1"/>
        <pt x="432" y="-113" on="1"/>
        <pt x="239" y="-113" on="0"/>
        <pt x="72" y="84" on="0"/>
        <pt x="72" y="463" on="0"/>
        <pt x="242" y="661" on="0"/>
        <pt x="627" y="661" on="0"/>
        <pt x="793" y="471" on="0"/>
        <pt x="793" y="283" on="1"/>
        <pt x="793" y="148" on="0"/>
        <pt x="712" y="28" on="0"/>
        <pt x="555" y="28" on="0"/>
        <pt x="524" y="77" on="1"/>
        <pt x="485" y="46" on="0"/>
        <pt x="418" y="46" on="1"/>
        <pt x="286" y="46" on="0"/>
        <pt x="286" y="160" on="1"/>
        <pt x="286" y="174" on="1"/>
        <pt x="286" y="226" on="0"/>
        <pt x="343" y="281" on="0"/>
        <pt x="400" y="299" on="1"/>
        <pt x="505" y="332" on="1"/>
        <pt x="505" y="387" on="1"/>
        <pt x="505" y="421" on="0"/>
        <pt x="474" y="457" on="0"/>
        <pt x="385" y="457" on="0"/>
        <pt x="310" y="439" on="1"/>
        <pt x="310" y="495" on="1"/>
        <pt x="369" y="511" on="0"/>
        <pt x="432" y="511" on="1"/>
        <pt x="565" y="511" on="0"/>
        <pt x="565" y="389" on="1"/>
        <pt x="565" y="162" on="1"/>
        <pt x="565" y="121" on="0"/>
        <pt x="599" y="84" on="0"/>
        <pt x="682" y="84" on="0"/>
        <pt x="730" y="173" on="0"/>
        <pt x="730" y="283" on="1"/>
        <pt x="730" y="445" on="0"/>
        <pt x="598" y="603" on="0"/>
        <pt x="268" y="603" on="0"/>
        <pt x="136" y="438" on="0"/>
        <pt x="136" y="111" on="0"/>
        <pt x="269" y="-55" on="0"/>
        <pt x="433" y="-55" on="1"/>
        <pt x="518" y="-55" on="1"/>
      </contour>
      <contour>
        <pt x="349" y="175" on="1"/>
        <pt x="349" y="159" on="1"/>
        <pt x="349" y="99" on="0"/>
        <pt x="415" y="99" on="1"/>
        <pt x="441" y="99" on="0"/>
        <pt x="486" y="113" on="0"/>
        <pt x="505" y="127" on="1"/>
        <pt x="505" y="275" on="1"/>
        <pt x="418" y="248" on="1"/>
        <pt x="380" y="237" on="0"/>
        <pt x="349" y="209" on="0"/>
      </contour>
    </TTGlyph>
    <TTGlyph name="atilde" xMin="32" yMin="-4" xMax="361" yMax="712">
      <contour>
        <pt x="285" y="712" on="1"/>
        <pt x="335" y="712" on="1"/>
        <pt x="335" y="698" on="1"/>
        <pt x="335" y="663" on="0"/>
        <pt x="301" y="624" on="0"/>
        <pt x="244" y="624" on="0"/>
        <pt x="176" y="664" on="0"/>
        <pt x="161" y="664" on="1"/>
        <pt x="138" y="664" on="0"/>
        <pt x="138" y="633" on="1"/>
        <pt x="138" y="622" on="1"/>
        <pt x="88" y="622" on="1"/>
        <pt x="88" y="635" on="1"/>
        <pt x="88" y="669" on="0"/>
        <pt x="122" y="710" on="0"/>
        <pt x="182" y="710" on="0"/>
        <pt x="252" y="669" on="0"/>
        <pt x="263" y="669" on="1"/>
        <pt x="285" y="669" on="0"/>
        <pt x="285" y="701" on="1"/>
      </contour>
      <contour>
        <pt x="101" y="162" on="1"/>
        <pt x="101" y="132" on="1"/>
        <pt x="101" y="92" on="0"/>
        <pt x="139" y="54" on="0"/>
        <pt x="245" y="54" on="0"/>
        <pt x="292" y="93" on="1"/>
        <pt x="292" y="280" on="1"/>
        <pt x="178" y="248" on="1"/>
        <pt x="133" y="235" on="0"/>
        <pt x="101" y="197" on="0"/>
      </contour>
      <contour>
        <pt x="191" y="574" on="1"/>
        <pt x="361" y="574" on="0"/>
        <pt x="361" y="429" on="1"/>
        <pt x="361" y="0" on="1"/>
        <pt x="293" y="0" on="1"/>
        <pt x="293" y="41" on="1"/>
        <pt x="242" y="-4" on="0"/>
        <pt x="171" y="-4" on="1"/>
        <pt x="32" y="-4" on="0"/>
        <pt x="32" y="133" on="1"/>
        <pt x="32" y="165" on="1"/>
        <pt x="32" y="269" on="0"/>
        <pt x="153" y="303" on="1"/>
        <pt x="293" y="342" on="1"/>
        <pt x="293" y="429" on="1"/>
        <pt x="292" y="470" on="0"/>
        <pt x="248" y="508" on="0"/>
        <pt x="115" y="508" on="0"/>
        <pt x="59" y="488" on="1"/>
        <pt x="59" y="555" on="1"/>
        <pt x="116" y="574" on="0"/>
      </contour>
    </TTGlyph>
    <TTGlyph name="b" xMin="69" yMin="0" xMax="389" yMax="720">
      <contour>
        <pt x="317" y="432" on="1"/>
        <pt x="317" y="505" on="0"/>
        <pt x="244" y="505" on="1"/>
        <pt x="204" y="505" on="0"/>
        <pt x="140" y="481" on="1"/>
        <pt x="140" y="65" on="1"/>
        <pt x="223" y="65" on="1"/>
        <pt x="317" y="65" on="0"/>
        <pt x="317" y="153" on="1"/>
      </contour>
      <contour>
        <pt x="69" y="720" on="1"/>
        <pt x="139" y="720" on="1"/>
        <pt x="139" y="547" on="1"/>
        <pt x="199" y="572" on="0"/>
        <pt x="317" y="572" on="0"/>
        <pt x="389" y="502" on="0"/>
        <pt x="389" y="439" on="1"/>
        <pt x="389" y="148" on="1"/>
        <pt x="389" y="77" on="0"/>
        <pt x="308" y="0" on="0"/>
        <pt x="240" y="0" on="1"/>
        <pt x="69" y="0" on="1"/>
      </contour>
    </TTGlyph>
    <TTGlyph name="backslash" xMin="33" yMin="-133" xMax="366" yMax="786">
      <contour>
        <pt x="33" y="786" on="1"/>
        <pt x="97" y="786" on="1"/>
        <pt x="366" y="-133" on="1"/>
        <pt x="302" y="-133" on="1"/>
      </contour>
    </TTGlyph>
    <TTGlyph name="bar" xMin="76" yMin="-151" xMax="131" yMax="804">
      <contour>
        <pt x="76" y="804" on="1"/>
        <pt x="131" y="804" on="1"/>
        <pt x="131" y="-151" on="1"/>
        <pt x="76" y="-151" on="1"/>
      </contour>
    </TTGlyph>
    <TTGlyph name="braceleft" xMin="59" yMin="-133" xMax="297" yMax="782">
      <contour>
        <pt x="200" y="656" on="1"/>
        <pt x="200" y="450" on="1"/>
        <pt x="200" y="392" on="0"/>
        <pt x="163" y="331" on="0"/>
        <pt x="114" y="325" on="1"/>
        <pt x="163" y="319" on="0"/>
        <pt x="200" y="260" on="0"/>
        <pt x="200" y="203" on="1"/>
        <pt x="200" y="-6" on="1"/>
        <pt x="200" y="-72" on="0"/>
        <pt x="282" y="-72" on="1"/>
        <pt x="297" y="-72" on="1"/>
        <pt x="297" y="-133" on="1"/>
        <pt x="279" y="-133" on="1"/>
        <pt x="211" y="-133" on="0"/>
        <pt x="137" y="-64" on="0"/>
        <pt x="137" y="-4" on="1"/>
        <pt x="137" y="224" on="1"/>
        <pt x="137" y="257" on="0"/>
        <pt x="98" y="295" on="0"/>
        <pt x="61" y="295" on="1"/>
        <pt x="59" y="295" on="1"/>
        <pt x="59" y="355" on="1"/>
        <pt x="61" y="355" on="1"/>
        <pt x="98" y="355" on="0"/>
        <pt x="137" y="393" on="0"/>
        <pt x="137" y="426" on="1"/>
        <pt x="137" y="654" on="1"/>
        <pt x="137" y="714" on="0"/>
        <pt x="211" y="782" on="0"/>
        <pt x="279" y="782" on="1"/>
        <pt x="297" y="782" on="1"/>
        <pt x="297" y="722" on="1"/>
        <pt x="282" y="722" on="1"/>
        <pt x="200" y="722" on="0"/>
      </contour>
    </TTGlyph>
    <TTGlyph name="braceright" xMin="53" yMin="-133" xMax="291" yMax="782">
      <contour>
        <pt x="289" y="355" on="1"/>
        <pt x="291" y="355" on="1"/>
        <pt x="291" y="295" on="1"/>
        <pt x="289" y="295" on="1"/>
        <pt x="252" y="295" on="0"/>
        <pt x="212" y="257" on="0"/>
        <pt x="212" y="224" on="1"/>
        <pt x="212" y="-4" on="1"/>
        <pt x="212" y="-65" on="0"/>
        <pt x="139" y="-133" on="0"/>
        <pt x="71" y="-133" on="1"/>
        <pt x="53" y="-133" on="1"/>
        <pt x="53" y="-72" on="1"/>
        <pt x="68" y="-72" on="1"/>
        <pt x="150" y="-72" on="0"/>
        <pt x="150" y="-6" on="1"/>
        <pt x="150" y="203" on="1"/>
        <pt x="150" y="260" on="0"/>
        <pt x="187" y="319" on="0"/>
        <pt x="235" y="325" on="1"/>
        <pt x="187" y="331" on="0"/>
        <pt x="150" y="392" on="0"/>
        <pt x="150" y="450" on="1"/>
        <pt x="150" y="656" on="1"/>
        <pt x="150" y="722" on="0"/>
        <pt x="68" y="722" on="1"/>
        <pt x="53" y="722" on="1"/>
        <pt x="53" y="782" on="1"/>
        <pt x="71" y="782" on="1"/>
        <pt x="139" y="782" on="0"/>
        <pt x="212" y="714" on="0"/>
        <pt x="212" y="654" on="1"/>
        <pt x="212" y="426" on="1"/>
        <pt x="212" y="393" on="0"/>
        <pt x="252" y="355" on="0"/>
      </contour>
    </TTGlyph>
    <TTGlyph name="bracketleft" xMin="82" yMin="-133" xMax="266" yMax="786">
      <contour>
        <pt x="143" y="-77" on="1"/>
        <pt x="266" y="-77" on="1"/>
        <pt x="266" y="-133" on="1"/>
        <pt x="82" y="-133" on="1"/>
        <pt x="82" y="786" on="1"/>
        <pt x="266" y="786" on="1"/>
        <pt x="266" y="730" on="1"/>
        <pt x="143" y="730" on="1"/>
      </contour>
    </TTGlyph>
    <TTGlyph name="bracketright" xMin="30" yMin="-133" xMax="214" yMax="786">
      <contour>
        <pt x="30" y="786" on="1"/>
        <pt x="214" y="786" on="1"/>
        <pt x="214" y="-133" on="1"/>
        <pt x="30" y="-133" on="1"/>
        <pt x="30" y="-77" on="1"/>
        <pt x="153" y="-77" on="1"/>
        <pt x="153" y="730" on="1"/>
        <pt x="30" y="730" on="1"/>
      </contour>
    </TTGlyph>
    <TTGlyph name="breve" xMin="65" yMin="613" xMax="285" yMax="720">
      <contour>
        <pt x="225" y="613" on="0"/>
        <pt x="125" y="613" on="0"/>
        <pt x="67" y="673" on="0"/>
        <pt x="65" y="720" on="1"/>
        <pt x="115" y="720" on="1"/>
        <pt x="116" y="692" on="0"/>
        <pt x="148" y="659" on="0"/>
        <pt x="202" y="659" on="0"/>
        <pt x="234" y="692" on="0"/>
        <pt x="235" y="720" on="1"/>
        <pt x="285" y="720" on="1"/>
        <pt x="283" y="673" on="0"/>
      </contour>
    </TTGlyph>
    <TTGlyph name="brokenbar" xMin="76" yMin="-151" xMax="131" yMax="804">
      <contour>
        <pt x="76" y="228" on="1"/>
        <pt x="131" y="228" on="1"/>
        <pt x="131" y="-151" on="1"/>
        <pt x="76" y="-151" on="1"/>
      </contour>
      <contour>
        <pt x="76" y="804" on="1"/>
        <pt x="131" y="804" on="1"/>
        <pt x="131" y="426" on="1"/>
        <pt x="76" y="426" on="1"/>
      </contour>
    </TTGlyph>
    <TTGlyph name="bullet" xMin="62" yMin="253" xMax="207" yMax="398">
      <contour>
        <pt x="62" y="253" on="0"/>
        <pt x="62" y="398" on="0"/>
        <pt x="207" y="398" on="0"/>
        <pt x="207" y="253" on="0"/>
      </contour>
    </TTGlyph>
    <TTGlyph name="c" xMin="59" yMin="-5" xMax="335" yMax="574">
      <contour>
        <pt x="59" y="430" on="1"/>
        <pt x="59" y="574" on="0"/>
        <pt x="227" y="574" on="1"/>
        <pt x="289" y="574" on="0"/>
        <pt x="333" y="560" on="1"/>
        <pt x="333" y="495" on="1"/>
        <pt x="285" y="508" on="0"/>
        <pt x="173" y="508" on="0"/>
        <pt x="130" y="469" on="0"/>
        <pt x="130" y="428" on="1"/>
        <pt x="130" y="140" on="1"/>
        <pt x="130" y="98" on="0"/>
        <pt x="173" y="60" on="0"/>
        <pt x="289" y="60" on="0"/>
        <pt x="335" y="76" on="1"/>
        <pt x="335" y="9" on="1"/>
        <pt x="281" y="-5" on="0"/>
        <pt x="227" y="-5" on="1"/>
        <pt x="59" y="-5" on="0"/>
        <pt x="59" y="137" on="1"/>
      </contour>
    </TTGlyph>
    <TTGlyph name="cacute" xMin="59" yMin="-5" xMax="335" yMax="720">
      <contour>
        <pt x="59" y="430" on="1"/>
        <pt x="59" y="574" on="0"/>
        <pt x="227" y="574" on="1"/>
        <pt x="289" y="574" on="0"/>
        <pt x="333" y="560" on="1"/>
        <pt x="333" y="495" on="1"/>
        <pt x="285" y="508" on="0"/>
        <pt x="173" y="508" on="0"/>
        <pt x="130" y="469" on="0"/>
        <pt x="130" y="428" on="1"/>
        <pt x="130" y="140" on="1"/>
        <pt x="130" y="98" on="0"/>
        <pt x="173" y="60" on="0"/>
        <pt x="289" y="60" on="0"/>
        <pt x="335" y="76" on="1"/>
        <pt x="335" y="9" on="1"/>
        <pt x="281" y="-5" on="0"/>
        <pt x="227" y="-5" on="1"/>
        <pt x="59" y="-5" on="0"/>
        <pt x="59" y="137" on="1"/>
      </contour>
      <contour>
        <pt x="241" y="720" on="1"/>
        <pt x="308" y="720" on="1"/>
        <pt x="248" y="613" on="1"/>
        <pt x="202" y="613" on="1"/>
      </contour>
    </TTGlyph>
    <TTGlyph name="caron" xMin="95" yMin="613" xMax="255" yMax="720">
      <contour>
        <pt x="211" y="720" on="1"/>
        <pt x="255" y="720" on="1"/>
        <pt x="204" y="613" on="1"/>
        <pt x="145" y="613" on="1"/>
        <pt x="95" y="720" on="1"/>
        <pt x="139" y="720" on="1"/>
        <pt x="175" y="657" on="1"/>
      </contour>
    </TTGlyph>
    <TTGlyph name="ccaron" xMin="59" yMin="-5" xMax="335" yMax="720">
      <contour>
        <pt x="130" y="428" on="1"/>
        <pt x="130" y="140" on="1"/>
        <pt x="130" y="98" on="0"/>
        <pt x="173" y="60" on="0"/>
        <pt x="289" y="60" on="0"/>
        <pt x="335" y="76" on="1"/>
        <pt x="335" y="9" on="1"/>
        <pt x="281" y="-5" on="0"/>
        <pt x="227" y="-5" on="1"/>
        <pt x="59" y="-5" on="0"/>
        <pt x="59" y="137" on="1"/>
        <pt x="59" y="430" on="1"/>
        <pt x="59" y="574" on="0"/>
        <pt x="227" y="574" on="1"/>
        <pt x="289" y="574" on="0"/>
        <pt x="333" y="560" on="1"/>
        <pt x="333" y="495" on="1"/>
        <pt x="285" y="508" on="0"/>
        <pt x="173" y="508" on="0"/>
        <pt x="130" y="469" on="0"/>
      </contour>
      <contour>
        <pt x="191" y="613" on="1"/>
        <pt x="141" y="720" on="1"/>
        <pt x="185" y="720" on="1"/>
        <pt x="221" y="657" on="1"/>
        <pt x="257" y="720" on="1"/>
        <pt x="301" y="720" on="1"/>
        <pt x="250" y="613" on="1"/>
      </contour>
    </TTGlyph>
    <TTGlyph name="ccedilla" xMin="59" yMin="-182" xMax="335" yMax="574">
      <contour>
        <pt x="227" y="-5" on="1"/>
        <pt x="226" y="-5" on="1"/>
        <pt x="218" y="-40" on="1"/>
        <pt x="248" y="-42" on="0"/>
        <pt x="286" y="-76" on="0"/>
        <pt x="286" y="-143" on="0"/>
        <pt x="236" y="-182" on="0"/>
        <pt x="167" y="-182" on="0"/>
        <pt x="147" y="-175" on="1"/>
        <pt x="147" y="-135" on="1"/>
        <pt x="165" y="-142" on="0"/>
        <pt x="190" y="-142" on="1"/>
        <pt x="241" y="-142" on="0"/>
        <pt x="241" y="-69" on="0"/>
        <pt x="188" y="-69" on="1"/>
        <pt x="175" y="-69" on="1"/>
        <pt x="188" y="-3" on="1"/>
        <pt x="59" y="13" on="0"/>
        <pt x="59" y="137" on="1"/>
        <pt x="59" y="430" on="1"/>
        <pt x="59" y="574" on="0"/>
        <pt x="227" y="574" on="1"/>
        <pt x="289" y="574" on="0"/>
        <pt x="333" y="560" on="1"/>
        <pt x="333" y="495" on="1"/>
        <pt x="285" y="508" on="0"/>
        <pt x="173" y="508" on="0"/>
        <pt x="130" y="469" on="0"/>
        <pt x="130" y="428" on="1"/>
        <pt x="130" y="140" on="1"/>
        <pt x="130" y="98" on="0"/>
        <pt x="173" y="60" on="0"/>
        <pt x="289" y="60" on="0"/>
        <pt x="335" y="76" on="1"/>
        <pt x="335" y="9" on="1"/>
        <pt x="281" y="-5" on="0"/>
      </contour>
    </TTGlyph>
    <TTGlyph name="cedilla" xMin="105" yMin="-182" xMax="244" yMax="6">
      <contour>
        <pt x="206" y="-42" on="0"/>
        <pt x="244" y="-76" on="0"/>
        <pt x="244" y="-143" on="0"/>
        <pt x="194" y="-182" on="0"/>
        <pt x="125" y="-182" on="0"/>
        <pt x="105" y="-175" on="1"/>
        <pt x="105" y="-135" on="1"/>
        <pt x="122" y="-142" on="0"/>
        <pt x="148" y="-142" on="1"/>
        <pt x="199" y="-142" on="0"/>
        <pt x="199" y="-69" on="0"/>
        <pt x="146" y="-69" on="1"/>
        <pt x="133" y="-69" on="1"/>
        <pt x="148" y="6" on="1"/>
        <pt x="186" y="6" on="1"/>
        <pt x="176" y="-40" on="1"/>
      </contour>
    </TTGlyph>
    <TTGlyph name="cent" xMin="67" yMin="-77" xMax="343" yMax="653">
      <contour>
        <pt x="265" y="-77" on="1"/>
        <pt x="200" y="-77" on="1"/>
        <pt x="200" y="-3" on="1"/>
        <pt x="67" y="10" on="0"/>
        <pt x="67" y="137" on="1"/>
        <pt x="67" y="430" on="1"/>
        <pt x="67" y="559" on="0"/>
        <pt x="200" y="572" on="1"/>
        <pt x="200" y="653" on="1"/>
        <pt x="265" y="653" on="1"/>
        <pt x="265" y="573" on="1"/>
        <pt x="308" y="570" on="0"/>
        <pt x="341" y="560" on="1"/>
        <pt x="341" y="495" on="1"/>
        <pt x="293" y="508" on="0"/>
        <pt x="181" y="508" on="0"/>
        <pt x="138" y="469" on="0"/>
        <pt x="138" y="428" on="1"/>
        <pt x="138" y="140" on="1"/>
        <pt x="138" y="98" on="0"/>
        <pt x="181" y="60" on="0"/>
        <pt x="297" y="60" on="0"/>
        <pt x="343" y="76" on="1"/>
        <pt x="343" y="9" on="1"/>
        <pt x="297" y="-2" on="0"/>
        <pt x="265" y="-4" on="1"/>
      </contour>
    </TTGlyph>
    <TTGlyph name="circumflex" xMin="95" yMin="613" xMax="255" yMax="720">
      <contour>
        <pt x="255" y="613" on="1"/>
        <pt x="211" y="613" on="1"/>
        <pt x="175" y="676" on="1"/>
        <pt x="139" y="613" on="1"/>
        <pt x="95" y="613" on="1"/>
        <pt x="145" y="720" on="1"/>
        <pt x="204" y="720" on="1"/>
      </contour>
    </TTGlyph>
    <TTGlyph name="colon" xMin="32" yMin="-6" xMax="119" yMax="436">
      <contour>
        <pt x="32" y="-6" on="0"/>
        <pt x="32" y="85" on="0"/>
        <pt x="119" y="85" on="0"/>
        <pt x="119" y="-6" on="0"/>
      </contour>
      <contour>
        <pt x="32" y="344" on="0"/>
        <pt x="32" y="436" on="0"/>
        <pt x="119" y="436" on="0"/>
        <pt x="119" y="344" on="0"/>
      </contour>
    </TTGlyph>
    <TTGlyph name="comma" xMin="6" yMin="-126" xMax="118" yMax="85">
      <contour>
        <pt x="83" y="85" on="1"/>
        <pt x="118" y="85" on="0"/>
        <pt x="118" y="52" on="1"/>
        <pt x="118" y="8" on="0"/>
        <pt x="48" y="-126" on="1"/>
        <pt x="6" y="-126" on="1"/>
        <pt x="48" y="85" on="1"/>
      </contour>
    </TTGlyph>
    <TTGlyph name="commaaccent" xMin="134" yMin="-183" xMax="215" yMax="-61">
      <contour>
        <pt x="188" y="-61" on="1"/>
        <pt x="215" y="-61" on="0"/>
        <pt x="215" y="-112" on="0"/>
        <pt x="168" y="-183" on="1"/>
        <pt x="134" y="-183" on="1"/>
        <pt x="160" y="-61" on="1"/>
      </contour>
    </TTGlyph>
    <TTGlyph name="copyright" xMin="47" yMin="0" xMax="640" yMax="650">
      <contour>
        <pt x="562" y="172" on="0"/>
        <pt x="580" y="260" on="0"/>
        <pt x="580" y="377" on="0"/>
        <pt x="571" y="450" on="0"/>
        <pt x="543" y="523" on="0"/>
        <pt x="518" y="544" on="1"/>
        <pt x="462" y="593" on="0"/>
        <pt x="345" y="593" on="1"/>
        <pt x="193" y="593" on="0"/>
        <pt x="146" y="516" on="1"/>
        <pt x="123" y="476" on="0"/>
        <pt x="107" y="390" on="0"/>
        <pt x="107" y="258" on="0"/>
        <pt x="124" y="171" on="0"/>
        <pt x="148" y="132" on="1"/>
        <pt x="195" y="56" on="0"/>
        <pt x="345" y="56" on="1"/>
        <pt x="491" y="56" on="0"/>
        <pt x="538" y="133" on="1"/>
      </contour>
      <contour>
        <pt x="226" y="379" on="1"/>
        <pt x="226" y="440" on="0"/>
        <pt x="287" y="504" on="0"/>
        <pt x="357" y="504" on="1"/>
        <pt x="397" y="504" on="0"/>
        <pt x="431" y="496" on="1"/>
        <pt x="431" y="440" on="1"/>
        <pt x="395" y="451" on="0"/>
        <pt x="311" y="451" on="0"/>
        <pt x="285" y="415" on="0"/>
        <pt x="285" y="378" on="1"/>
        <pt x="285" y="271" on="1"/>
        <pt x="285" y="238" on="0"/>
        <pt x="294" y="223" on="1"/>
        <pt x="308" y="199" on="0"/>
        <pt x="394" y="199" on="0"/>
        <pt x="432" y="209" on="1"/>
        <pt x="432" y="153" on="1"/>
        <pt x="387" y="145" on="0"/>
        <pt x="357" y="145" on="1"/>
        <pt x="287" y="145" on="0"/>
        <pt x="226" y="209" on="0"/>
        <pt x="226" y="270" on="1"/>
      </contour>
      <contour>
        <pt x="74" y="138" on="0"/>
        <pt x="47" y="249" on="0"/>
        <pt x="47" y="384" on="0"/>
        <pt x="62" y="477" on="0"/>
        <pt x="103" y="562" on="0"/>
        <pt x="169" y="618" on="0"/>
        <pt x="274" y="650" on="0"/>
        <pt x="416" y="650" on="0"/>
        <pt x="521" y="618" on="0"/>
        <pt x="586" y="563" on="0"/>
        <pt x="606" y="520" on="1"/>
        <pt x="640" y="448" on="0"/>
        <pt x="640" y="324" on="1"/>
        <pt x="640" y="85" on="0"/>
        <pt x="488" y="24" on="1"/>
        <pt x="429" y="0" on="0"/>
        <pt x="259" y="0" on="0"/>
        <pt x="139" y="47" on="0"/>
      </contour>
    </TTGlyph>
    <TTGlyph name="currency" xMin="42" yMin="131" xMax="419" yMax="541">
      <contour>
        <pt x="388" y="376" on="1"/>
        <pt x="388" y="296" on="1"/>
        <pt x="388" y="251" on="0"/>
        <pt x="374" y="220" on="1"/>
        <pt x="419" y="176" on="1"/>
        <pt x="373" y="131" on="1"/>
        <pt x="333" y="171" on="1"/>
        <pt x="296" y="146" on="0"/>
        <pt x="167" y="146" on="0"/>
        <pt x="128" y="171" on="1"/>
        <pt x="88" y="131" on="1"/>
        <pt x="42" y="176" on="1"/>
        <pt x="87" y="220" on="1"/>
        <pt x="74" y="252" on="0"/>
        <pt x="74" y="296" on="1"/>
        <pt x="74" y="376" on="1"/>
        <pt x="74" y="421" on="0"/>
        <pt x="87" y="451" on="1"/>
        <pt x="42" y="495" on="1"/>
        <pt x="88" y="541" on="1"/>
        <pt x="128" y="501" on="1"/>
        <pt x="167" y="526" on="0"/>
        <pt x="296" y="526" on="0"/>
        <pt x="333" y="501" on="1"/>
        <pt x="374" y="541" on="1"/>
        <pt x="419" y="495" on="1"/>
        <pt x="375" y="452" on="1"/>
        <pt x="388" y="420" on="0"/>
      </contour>
      <contour>
        <pt x="143" y="375" on="1"/>
        <pt x="143" y="297" on="1"/>
        <pt x="143" y="251" on="0"/>
        <pt x="180" y="208" on="0"/>
        <pt x="281" y="208" on="0"/>
        <pt x="318" y="251" on="0"/>
        <pt x="318" y="297" on="1"/>
        <pt x="318" y="375" on="1"/>
        <pt x="318" y="421" on="0"/>
        <pt x="281" y="464" on="0"/>
        <pt x="180" y="464" on="0"/>
        <pt x="143" y="421" on="0"/>
      </contour>
    </TTGlyph>
    <TTGlyph name="d" xMin="59" yMin="-3" xMax="378" yMax="720">
      <contour>
        <pt x="307" y="504" on="1"/>
        <pt x="225" y="504" on="1"/>
        <pt x="130" y="504" on="0"/>
        <pt x="130" y="418" on="1"/>
        <pt x="130" y="145" on="1"/>
        <pt x="130" y="61" on="0"/>
        <pt x="211" y="61" on="1"/>
        <pt x="271" y="61" on="0"/>
        <pt x="307" y="95" on="1"/>
      </contour>
      <contour>
        <pt x="307" y="720" on="1"/>
        <pt x="378" y="720" on="1"/>
        <pt x="378" y="0" on="1"/>
        <pt x="309" y="0" on="1"/>
        <pt x="309" y="33" on="1"/>
        <pt x="264" y="-3" on="0"/>
        <pt x="130" y="-3" on="0"/>
        <pt x="59" y="71" on="0"/>
        <pt x="59" y="140" on="1"/>
        <pt x="59" y="419" on="1"/>
        <pt x="59" y="490" on="0"/>
        <pt x="143" y="569" on="0"/>
        <pt x="213" y="569" on="1"/>
        <pt x="307" y="569" on="1"/>
      </contour>
    </TTGlyph>
    <TTGlyph name="dagger" xMin="48" yMin="-29" xMax="305" yMax="778">
      <contour>
        <pt x="145" y="778" on="1"/>
        <pt x="209" y="778" on="1"/>
        <pt x="203" y="644" on="1"/>
        <pt x="251" y="650" on="0"/>
        <pt x="305" y="650" on="1"/>
        <pt x="305" y="594" on="1"/>
        <pt x="203" y="599" on="1"/>
        <pt x="209" y="529" on="0"/>
        <pt x="209" y="459" on="1"/>
        <pt x="209" y="-29" on="1"/>
        <pt x="145" y="-29" on="1"/>
        <pt x="145" y="459" on="1"/>
        <pt x="150" y="599" on="1"/>
        <pt x="108" y="594" on="0"/>
        <pt x="48" y="594" on="1"/>
        <pt x="48" y="650" on="1"/>
        <pt x="102" y="650" on="0"/>
        <pt x="150" y="644" on="1"/>
        <pt x="145" y="716" on="0"/>
      </contour>
    </TTGlyph>
    <TTGlyph name="daggerdbl" xMin="48" yMin="-29" xMax="305" yMax="778">
      <contour>
        <pt x="145" y="778" on="1"/>
        <pt x="208" y="778" on="1"/>
        <pt x="203" y="644" on="1"/>
        <pt x="246" y="650" on="0"/>
        <pt x="305" y="650" on="1"/>
        <pt x="305" y="594" on="1"/>
        <pt x="203" y="599" on="1"/>
        <pt x="206" y="376" on="0"/>
        <pt x="203" y="151" on="1"/>
        <pt x="246" y="156" on="0"/>
        <pt x="305" y="156" on="1"/>
        <pt x="305" y="100" on="1"/>
        <pt x="203" y="105" on="1"/>
        <pt x="208" y="53" on="0"/>
        <pt x="208" y="-29" on="1"/>
        <pt x="145" y="-29" on="1"/>
        <pt x="150" y="105" on="1"/>
        <pt x="107" y="100" on="0"/>
        <pt x="48" y="100" on="1"/>
        <pt x="48" y="156" on="1"/>
        <pt x="150" y="151" on="1"/>
        <pt x="147" y="376" on="0"/>
        <pt x="150" y="599" on="1"/>
        <pt x="107" y="594" on="0"/>
        <pt x="48" y="594" on="1"/>
        <pt x="48" y="650" on="1"/>
        <pt x="100" y="650" on="0"/>
        <pt x="150" y="644" on="1"/>
        <pt x="145" y="716" on="0"/>
      </contour>
    </TTGlyph>
    <TTGlyph name="dcaron" xMin="59" yMin="-3" xMax="500" yMax="720">
      <contour>
        <pt x="473" y="719" on="1"/>
        <pt x="500" y="719" on="0"/>
        <pt x="500" y="664" on="0"/>
        <pt x="453" y="597" on="1"/>
        <pt x="419" y="597" on="1"/>
        <pt x="445" y="719" on="1"/>
      </contour>
      <contour>
        <pt x="307" y="504" on="1"/>
        <pt x="225" y="504" on="1"/>
        <pt x="130" y="504" on="0"/>
        <pt x="130" y="418" on="1"/>
        <pt x="130" y="145" on="1"/>
        <pt x="130" y="61" on="0"/>
        <pt x="211" y="61" on="1"/>
        <pt x="271" y="61" on="0"/>
        <pt x="307" y="95" on="1"/>
      </contour>
      <contour>
        <pt x="307" y="720" on="1"/>
        <pt x="378" y="720" on="1"/>
        <pt x="378" y="0" on="1"/>
        <pt x="309" y="0" on="1"/>
        <pt x="309" y="33" on="1"/>
        <pt x="264" y="-3" on="0"/>
        <pt x="130" y="-3" on="0"/>
        <pt x="59" y="71" on="0"/>
        <pt x="59" y="140" on="1"/>
        <pt x="59" y="419" on="1"/>
        <pt x="59" y="490" on="0"/>
        <pt x="143" y="569" on="0"/>
        <pt x="213" y="569" on="1"/>
        <pt x="307" y="569" on="1"/>
      </contour>
    </TTGlyph>
    <TTGlyph name="dcroat" xMin="60" yMin="-3" xMax="419" yMax="720">
      <contour>
        <pt x="419" y="673" on="1"/>
        <pt x="419" y="627" on="1"/>
        <pt x="379" y="627" on="1"/>
        <pt x="379" y="0" on="1"/>
        <pt x="310" y="0" on="1"/>
        <pt x="310" y="33" on="1"/>
        <pt x="265" y="-3" on="0"/>
        <pt x="131" y="-3" on="0"/>
        <pt x="60" y="71" on="0"/>
        <pt x="60" y="140" on="1"/>
        <pt x="60" y="419" on="1"/>
        <pt x="60" y="490" on="0"/>
        <pt x="144" y="569" on="0"/>
        <pt x="214" y="569" on="1"/>
        <pt x="308" y="569" on="1"/>
        <pt x="308" y="627" on="1"/>
        <pt x="183" y="627" on="1"/>
        <pt x="183" y="673" on="1"/>
        <pt x="308" y="673" on="1"/>
        <pt x="308" y="720" on="1"/>
        <pt x="379" y="720" on="1"/>
        <pt x="379" y="673" on="1"/>
      </contour>
      <contour>
        <pt x="308" y="504" on="1"/>
        <pt x="226" y="504" on="1"/>
        <pt x="131" y="504" on="0"/>
        <pt x="131" y="418" on="1"/>
        <pt x="131" y="145" on="1"/>
        <pt x="131" y="61" on="0"/>
        <pt x="212" y="61" on="1"/>
        <pt x="272" y="61" on="0"/>
        <pt x="308" y="95" on="1"/>
      </contour>
    </TTGlyph>
    <TTGlyph name="degree" xMin="52" yMin="506" xMax="324" yMax="795">
      <contour>
        <pt x="266" y="607" on="0"/>
        <pt x="266" y="693" on="0"/>
        <pt x="233" y="739" on="0"/>
        <pt x="141" y="739" on="0"/>
        <pt x="110" y="693" on="0"/>
        <pt x="110" y="606" on="0"/>
        <pt x="141" y="561" on="0"/>
        <pt x="233" y="561" on="0"/>
      </contour>
      <contour>
        <pt x="187" y="506" on="1"/>
        <pt x="52" y="506" on="0"/>
        <pt x="52" y="795" on="0"/>
        <pt x="187" y="795" on="1"/>
        <pt x="324" y="795" on="0"/>
        <pt x="324" y="650" on="1"/>
        <pt x="324" y="584" on="0"/>
        <pt x="259" y="506" on="0"/>
      </contour>
    </TTGlyph>
    <TTGlyph name="dieresis" xMin="69" yMin="628" xMax="280" yMax="703">
      <contour>
        <pt x="280" y="628" on="0"/>
        <pt x="204" y="628" on="0"/>
        <pt x="204" y="703" on="0"/>
        <pt x="280" y="703" on="0"/>
      </contour>
      <contour>
        <pt x="69" y="628" on="0"/>
        <pt x="69" y="703" on="0"/>
        <pt x="146" y="703" on="0"/>
        <pt x="146" y="628" on="0"/>
      </contour>
    </TTGlyph>
    <TTGlyph name="divide" xMin="40" yMin="109" xMax="397" yMax="535">
      <contour>
        <pt x="263" y="452" on="0"/>
        <pt x="179" y="452" on="0"/>
        <pt x="179" y="535" on="0"/>
        <pt x="263" y="535" on="0"/>
      </contour>
      <contour>
        <pt x="263" y="109" on="0"/>
        <pt x="179" y="109" on="0"/>
        <pt x="179" y="192" on="0"/>
        <pt x="263" y="192" on="0"/>
      </contour>
      <contour>
        <pt x="40" y="353" on="1"/>
        <pt x="397" y="353" on="1"/>
        <pt x="397" y="294" on="1"/>
        <pt x="40" y="294" on="1"/>
      </contour>
    </TTGlyph>
    <TTGlyph name="dollar" xMin="28" yMin="-74" xMax="356" yMax="736">
      <contour>
        <pt x="356" y="194" on="1"/>
        <pt x="356" y="140" on="1"/>
        <pt x="356" y="17" on="0"/>
        <pt x="216" y="-2" on="1"/>
        <pt x="216" y="-74" on="1"/>
        <pt x="150" y="-74" on="1"/>
        <pt x="150" y="-5" on="1"/>
        <pt x="76" y="-2" on="0"/>
        <pt x="33" y="15" on="1"/>
        <pt x="33" y="83" on="1"/>
        <pt x="92" y="61" on="0"/>
        <pt x="167" y="61" on="1"/>
        <pt x="285" y="61" on="0"/>
        <pt x="285" y="144" on="1"/>
        <pt x="285" y="186" on="1"/>
        <pt x="285" y="219" on="0"/>
        <pt x="261" y="257" on="0"/>
        <pt x="230" y="274" on="1"/>
        <pt x="115" y="337" on="1"/>
        <pt x="28" y="384" on="0"/>
        <pt x="28" y="477" on="1"/>
        <pt x="28" y="536" on="1"/>
        <pt x="28" y="656" on="0"/>
        <pt x="160" y="674" on="1"/>
        <pt x="160" y="736" on="1"/>
        <pt x="225" y="736" on="1"/>
        <pt x="225" y="676" on="1"/>
        <pt x="288" y="673" on="0"/>
        <pt x="330" y="660" on="1"/>
        <pt x="330" y="592" on="1"/>
        <pt x="278" y="611" on="0"/>
        <pt x="203" y="611" on="1"/>
        <pt x="100" y="611" on="0"/>
        <pt x="100" y="533" on="1"/>
        <pt x="100" y="485" on="1"/>
        <pt x="100" y="450" on="0"/>
        <pt x="127" y="410" on="0"/>
        <pt x="159" y="392" on="1"/>
        <pt x="275" y="327" on="1"/>
        <pt x="356" y="283" on="0"/>
      </contour>
    </TTGlyph>
    <TTGlyph name="dotaccent" xMin="135" yMin="651" xMax="212" yMax="726">
      <contour>
        <pt x="135" y="651" on="0"/>
        <pt x="135" y="726" on="0"/>
        <pt x="212" y="726" on="0"/>
        <pt x="212" y="651" on="0"/>
      </contour>
    </TTGlyph>
    <TTGlyph name="dotlessi" xMin="69" yMin="0" xMax="140" yMax="565">
      <contour>
        <pt x="69" y="565" on="1"/>
        <pt x="140" y="565" on="1"/>
        <pt x="140" y="0" on="1"/>
        <pt x="69" y="0" on="1"/>
      </contour>
    </TTGlyph>
    <TTGlyph name="dvDDH_DDHA" xMin="-24" yMin="-276" xMax="439" yMax="650">
      <contour>
        <pt x="241" y="-64" on="1"/>
        <pt x="217" y="-64" on="0"/>
        <pt x="199" y="-72" on="1"/>
        <pt x="199" y="-17" on="1"/>
        <pt x="220" y="-9" on="0"/>
        <pt x="249" y="-9" on="1"/>
        <pt x="303" y="-9" on="0"/>
        <pt x="367" y="-70" on="0"/>
        <pt x="367" y="-129" on="1"/>
        <pt x="367" y="-142" on="1"/>
        <pt x="367" y="-276" on="0"/>
        <pt x="56" y="-276" on="0"/>
        <pt x="56" y="-141" on="1"/>
        <pt x="56" y="10" on="1"/>
        <pt x="56" y="79" on="0"/>
        <pt x="102" y="109" on="1"/>
        <pt x="56" y="143" on="0"/>
        <pt x="56" y="214" on="1"/>
        <pt x="56" y="379" on="1"/>
        <pt x="56" y="503" on="0"/>
        <pt x="204" y="503" on="1"/>
        <pt x="266" y="503" on="1"/>
        <pt x="266" y="594" on="1"/>
        <pt x="-24" y="594" on="1"/>
        <pt x="-24" y="650" on="1"/>
        <pt x="439" y="650" on="1"/>
        <pt x="439" y="594" on="1"/>
        <pt x="331" y="594" on="1"/>
        <pt x="331" y="445" on="1"/>
        <pt x="204" y="445" on="1"/>
        <pt x="157" y="445" on="0"/>
        <pt x="121" y="412" on="0"/>
        <pt x="121" y="378" on="1"/>
        <pt x="121" y="215" on="1"/>
        <pt x="121" y="179" on="0"/>
        <pt x="161" y="138" on="0"/>
        <pt x="264" y="138" on="0"/>
        <pt x="304" y="178" on="0"/>
        <pt x="304" y="215" on="1"/>
        <pt x="304" y="228" on="1"/>
        <pt x="304" y="293" on="0"/>
        <pt x="241" y="293" on="1"/>
        <pt x="217" y="293" on="0"/>
        <pt x="199" y="285" on="1"/>
        <pt x="199" y="340" on="1"/>
        <pt x="220" y="348" on="0"/>
        <pt x="250" y="348" on="1"/>
        <pt x="303" y="348" on="0"/>
        <pt x="368" y="288" on="0"/>
        <pt x="368" y="229" on="1"/>
        <pt x="368" y="213" on="1"/>
        <pt x="368" y="80" on="0"/>
        <pt x="212" y="80" on="1"/>
        <pt x="206" y="80" on="1"/>
        <pt x="158" y="80" on="0"/>
        <pt x="120" y="45" on="0"/>
        <pt x="120" y="9" on="1"/>
        <pt x="120" y="-140" on="1"/>
        <pt x="120" y="-177" on="0"/>
        <pt x="160" y="-218" on="0"/>
        <pt x="263" y="-218" on="0"/>
        <pt x="303" y="-177" on="0"/>
        <pt x="303" y="-141" on="1"/>
        <pt x="303" y="-130" on="1"/>
        <pt x="303" y="-64" on="0"/>
      </contour>
    </TTGlyph>
    <TTGlyph name="dvDD_GA" xMin="-24" yMin="-179" xMax="445" yMax="650">
      <contour>
        <pt x="343" y="449" on="1"/>
        <pt x="192" y="449" on="1"/>
        <pt x="151" y="449" on="0"/>
        <pt x="118" y="424" on="0"/>
        <pt x="118" y="394" on="1"/>
        <pt x="118" y="389" on="1"/>
        <pt x="118" y="360" on="0"/>
        <pt x="151" y="334" on="0"/>
        <pt x="192" y="334" on="1"/>
        <pt x="230" y="334" on="1"/>
        <pt x="302" y="334" on="0"/>
        <pt x="372" y="281" on="0"/>
        <pt x="372" y="221" on="1"/>
        <pt x="372" y="205" on="1"/>
        <pt x="372" y="139" on="0"/>
        <pt x="329" y="109" on="1"/>
        <pt x="329" y="-179" on="1"/>
        <pt x="266" y="-179" on="1"/>
        <pt x="266" y="87" on="1"/>
        <pt x="242" y="83" on="0"/>
        <pt x="186" y="83" on="0"/>
        <pt x="177" y="84" on="1"/>
        <pt x="177" y="36" on="1"/>
        <pt x="177" y="-26" on="0"/>
        <pt x="123" y="-87" on="0"/>
        <pt x="57" y="-87" on="1"/>
        <pt x="20" y="-83" on="1"/>
        <pt x="20" y="-25" on="1"/>
        <pt x="37" y="-28" on="0"/>
        <pt x="51" y="-28" on="1"/>
        <pt x="91" y="-28" on="0"/>
        <pt x="114" y="4" on="0"/>
        <pt x="114" y="39" on="1"/>
        <pt x="114" y="89" on="1"/>
        <pt x="71" y="95" on="0"/>
        <pt x="48" y="99" on="1"/>
        <pt x="48" y="157" on="1"/>
        <pt x="139" y="141" on="0"/>
        <pt x="263" y="141" on="0"/>
        <pt x="306" y="169" on="0"/>
        <pt x="306" y="206" on="1"/>
        <pt x="306" y="221" on="1"/>
        <pt x="306" y="252" on="0"/>
        <pt x="273" y="278" on="0"/>
        <pt x="230" y="278" on="1"/>
        <pt x="193" y="278" on="1"/>
        <pt x="122" y="278" on="0"/>
        <pt x="52" y="329" on="0"/>
        <pt x="52" y="389" on="1"/>
        <pt x="52" y="394" on="1"/>
        <pt x="52" y="504" on="0"/>
        <pt x="194" y="504" on="1"/>
        <pt x="276" y="504" on="1"/>
        <pt x="276" y="594" on="1"/>
        <pt x="-24" y="594" on="1"/>
        <pt x="-24" y="650" on="1"/>
        <pt x="445" y="650" on="1"/>
        <pt x="445" y="594" on="1"/>
        <pt x="343" y="594" on="1"/>
      </contour>
    </TTGlyph>
    <TTGlyph name="dvMatraI.a33" xMin="-24" yMin="0" xMax="1296" yMax="879">
      <contour>
        <pt x="73" y="650" on="1"/>
        <pt x="73" y="679" on="1"/>
        <pt x="73" y="820" on="0"/>
        <pt x="226" y="858" on="1"/>
        <pt x="312" y="879" on="0"/>
        <pt x="458" y="879" on="1"/>
        <pt x="813" y="879" on="0"/>
        <pt x="1296" y="820" on="1"/>
        <pt x="1296" y="761" on="1"/>
        <pt x="777" y="819" on="0"/>
        <pt x="460" y="819" on="1"/>
        <pt x="308" y="819" on="0"/>
        <pt x="228" y="794" on="1"/>
        <pt x="138" y="765" on="0"/>
        <pt x="138" y="678" on="1"/>
        <pt x="138" y="650" on="1"/>
        <pt x="233" y="650" on="1"/>
        <pt x="233" y="594" on="1"/>
        <pt x="137" y="594" on="1"/>
        <pt x="137" y="0" on="1"/>
        <pt x="72" y="0" on="1"/>
        <pt x="72" y="594" on="1"/>
        <pt x="-24" y="594" on="1"/>
        <pt x="-24" y="650" on="1"/>
      </contour>
    </TTGlyph>
    <TTGlyph name="dvMatraI.a34" xMin="-24" yMin="0" xMax="1321" yMax="879">
      <contour>
        <pt x="73" y="650" on="1"/>
        <pt x="73" y="679" on="1"/>
        <pt x="73" y="803" on="0"/>
        <pt x="184" y="844" on="1"/>
        <pt x="240" y="864" on="0"/>
        <pt x="369" y="879" on="0"/>
        <pt x="464" y="879" on="1"/>
        <pt x="808" y="879" on="0"/>
        <pt x="1321" y="820" on="1"/>
        <pt x="1321" y="761" on="1"/>
        <pt x="761" y="819" on="0"/>
        <pt x="465" y="819" on="1"/>
        <pt x="310" y="819" on="0"/>
        <pt x="229" y="794" on="1"/>
        <pt x="138" y="765" on="0"/>
        <pt x="138" y="678" on="1"/>
        <pt x="138" y="650" on="1"/>
        <pt x="233" y="650" on="1"/>
        <pt x="233" y="594" on="1"/>
        <pt x="137" y="594" on="1"/>
        <pt x="137" y="0" on="1"/>
        <pt x="72" y="0" on="1"/>
        <pt x="72" y="594" on="1"/>
        <pt x="-24" y="594" on="1"/>
        <pt x="-24" y="650" on="1"/>
      </contour>
    </TTGlyph>
    <TTGlyph name="dvMatraI.a35" xMin="-24" yMin="0" xMax="1345" yMax="879">
      <contour>
        <pt x="73" y="650" on="1"/>
        <pt x="73" y="679" on="1"/>
        <pt x="73" y="803" on="0"/>
        <pt x="186" y="844" on="1"/>
        <pt x="242" y="864" on="0"/>
        <pt x="374" y="879" on="0"/>
        <pt x="470" y="879" on="1"/>
        <pt x="831" y="879" on="0"/>
        <pt x="1345" y="820" on="1"/>
        <pt x="1345" y="761" on="1"/>
        <pt x="758" y="819" on="0"/>
        <pt x="471" y="819" on="1"/>
        <pt x="267" y="819" on="0"/>
        <pt x="197" y="780" on="1"/>
        <pt x="138" y="747" on="0"/>
        <pt x="138" y="678" on="1"/>
        <pt x="138" y="650" on="1"/>
        <pt x="233" y="650" on="1"/>
        <pt x="233" y="594" on="1"/>
        <pt x="137" y="594" on="1"/>
        <pt x="137" y="0" on="1"/>
        <pt x="72" y="0" on="1"/>
        <pt x="72" y="594" on="1"/>
        <pt x="-24" y="594" on="1"/>
        <pt x="-24" y="650" on="1"/>
      </contour>
    </TTGlyph>
    <TTGlyph name="dvMatraI.a36" xMin="-24" yMin="0" xMax="1370" yMax="879">
      <contour>
        <pt x="73" y="650" on="1"/>
        <pt x="73" y="678" on="1"/>
        <pt x="73" y="774" on="0"/>
        <pt x="146" y="823" on="1"/>
        <pt x="228" y="879" on="0"/>
        <pt x="474" y="879" on="1"/>
        <pt x="861" y="879" on="0"/>
        <pt x="1370" y="820" on="1"/>
        <pt x="1370" y="760" on="1"/>
        <pt x="845" y="819" on="0"/>
        <pt x="476" y="819" on="1"/>
        <pt x="314" y="819" on="0"/>
        <pt x="232" y="794" on="1"/>
        <pt x="138" y="766" on="0"/>
        <pt x="138" y="678" on="1"/>
        <pt x="138" y="650" on="1"/>
        <pt x="233" y="650" on="1"/>
        <pt x="233" y="594" on="1"/>
        <pt x="137" y="594" on="1"/>
        <pt x="137" y="0" on="1"/>
        <pt x="72" y="0" on="1"/>
        <pt x="72" y="594" on="1"/>
        <pt x="-24" y="594" on="1"/>
        <pt x="-24" y="650" on="1"/>
      </contour>
    </TTGlyph>
    <TTGlyph name="dvMatraI.a37" xMin="-24" yMin="0" xMax="1394" yMax="879">
      <contour>
        <pt x="73" y="650" on="1"/>
        <pt x="73" y="678" on="1"/>
        <pt x="73" y="776" on="0"/>
        <pt x="146" y="824" on="1"/>
        <pt x="212" y="866" on="0"/>
        <pt x="345" y="875" on="1"/>
        <pt x="402" y="879" on="0"/>
        <pt x="480" y="879" on="1"/>
        <pt x="911" y="879" on="0"/>
        <pt x="1394" y="820" on="1"/>
        <pt x="1394" y="761" on="1"/>
        <pt x="837" y="819" on="0"/>
        <pt x="482" y="819" on="1"/>
        <pt x="269" y="819" on="0"/>
        <pt x="200" y="781" on="1"/>
        <pt x="138" y="747" on="0"/>
        <pt x="138" y="678" on="1"/>
        <pt x="138" y="650" on="1"/>
        <pt x="233" y="650" on="1"/>
        <pt x="233" y="594" on="1"/>
        <pt x="137" y="594" on="1"/>
        <pt x="137" y="0" on="1"/>
        <pt x="72" y="0" on="1"/>
        <pt x="72" y="594" on="1"/>
        <pt x="-24" y="594" on="1"/>
        <pt x="-24" y="650" on="1"/>
      </contour>
    </TTGlyph>
    <TTGlyph name="dvMatraI.a38" xMin="-24" yMin="0" xMax="1419" yMax="879">
      <contour>
        <pt x="73" y="650" on="1"/>
        <pt x="73" y="678" on="1"/>
        <pt x="73" y="775" on="0"/>
        <pt x="148" y="824" on="1"/>
        <pt x="211" y="865" on="0"/>
        <pt x="348" y="875" on="1"/>
        <pt x="406" y="879" on="0"/>
        <pt x="485" y="879" on="1"/>
        <pt x="874" y="879" on="0"/>
        <pt x="1419" y="820" on="1"/>
        <pt x="1419" y="761" on="1"/>
        <pt x="1416" y="761" on="0"/>
        <pt x="1170" y="784" on="0"/>
        <pt x="1040" y="794" on="0"/>
        <pt x="920" y="802" on="1"/>
        <pt x="686" y="819" on="0"/>
        <pt x="401" y="819" on="0"/>
        <pt x="287" y="809" on="0"/>
        <pt x="236" y="794" on="1"/>
        <pt x="138" y="766" on="0"/>
        <pt x="138" y="677" on="1"/>
        <pt x="138" y="650" on="1"/>
        <pt x="233" y="650" on="1"/>
        <pt x="233" y="594" on="1"/>
        <pt x="137" y="594" on="1"/>
        <pt x="137" y="0" on="1"/>
        <pt x="72" y="0" on="1"/>
        <pt x="72" y="594" on="1"/>
        <pt x="-24" y="594" on="1"/>
        <pt x="-24" y="650" on="1"/>
      </contour>
    </TTGlyph>
    <TTGlyph name="dvMatraI.a39" xMin="-24" yMin="0" xMax="1443" yMax="879">
      <contour>
        <pt x="73" y="650" on="1"/>
        <pt x="73" y="678" on="1"/>
        <pt x="73" y="776" on="0"/>
        <pt x="148" y="824" on="1"/>
        <pt x="213" y="865" on="0"/>
        <pt x="352" y="875" on="1"/>
        <pt x="410" y="879" on="0"/>
        <pt x="491" y="879" on="1"/>
        <pt x="884" y="879" on="0"/>
        <pt x="1443" y="820" on="1"/>
        <pt x="1443" y="760" on="1"/>
        <pt x="888" y="819" on="0"/>
        <pt x="493" y="819" on="1"/>
        <pt x="325" y="819" on="0"/>
        <pt x="238" y="795" on="1"/>
        <pt x="138" y="768" on="0"/>
        <pt x="138" y="677" on="1"/>
        <pt x="138" y="650" on="1"/>
        <pt x="233" y="650" on="1"/>
        <pt x="233" y="594" on="1"/>
        <pt x="137" y="594" on="1"/>
        <pt x="137" y="0" on="1"/>
        <pt x="72" y="0" on="1"/>
        <pt x="72" y="594" on="1"/>
        <pt x="-24" y="594" on="1"/>
        <pt x="-24" y="650" on="1"/>
      </contour>
    </TTGlyph>
    <TTGlyph name="dvMatraI.a40" xMin="-24" yMin="0" xMax="1467" yMax="879">
      <contour>
        <pt x="73" y="650" on="1"/>
        <pt x="73" y="678" on="1"/>
        <pt x="73" y="729" on="0"/>
        <pt x="115" y="803" on="0"/>
        <pt x="184" y="846" on="0"/>
        <pt x="240" y="858" on="1"/>
        <pt x="333" y="879" on="0"/>
        <pt x="496" y="879" on="1"/>
        <pt x="912" y="879" on="0"/>
        <pt x="1467" y="820" on="1"/>
        <pt x="1467" y="760" on="1"/>
        <pt x="883" y="819" on="0"/>
        <pt x="498" y="819" on="1"/>
        <pt x="308" y="819" on="0"/>
        <pt x="238" y="795" on="1"/>
        <pt x="169" y="772" on="0"/>
        <pt x="150" y="732" on="1"/>
        <pt x="138" y="708" on="0"/>
        <pt x="138" y="677" on="1"/>
        <pt x="138" y="650" on="1"/>
        <pt x="233" y="650" on="1"/>
        <pt x="233" y="594" on="1"/>
        <pt x="137" y="594" on="1"/>
        <pt x="137" y="0" on="1"/>
        <pt x="72" y="0" on="1"/>
        <pt x="72" y="594" on="1"/>
        <pt x="-24" y="594" on="1"/>
        <pt x="-24" y="650" on="1"/>
      </contour>
    </TTGlyph>
    <TTGlyph name="dvMatraI.a41" xMin="-24" yMin="0" xMax="1492" yMax="879">
      <contour>
        <pt x="73" y="650" on="1"/>
        <pt x="73" y="677" on="1"/>
        <pt x="73" y="777" on="0"/>
        <pt x="150" y="824" on="1"/>
        <pt x="216" y="865" on="0"/>
        <pt x="359" y="875" on="1"/>
        <pt x="418" y="879" on="0"/>
        <pt x="588" y="879" on="0"/>
        <pt x="760" y="875" on="0"/>
        <pt x="936" y="866" on="0"/>
        <pt x="1060" y="858" on="0"/>
        <pt x="1240" y="843" on="0"/>
        <pt x="1274" y="840" on="1"/>
        <pt x="1455" y="824" on="0"/>
        <pt x="1492" y="819" on="1"/>
        <pt x="1492" y="760" on="1"/>
        <pt x="833" y="820" on="0"/>
        <pt x="503" y="819" on="1"/>
        <pt x="411" y="819" on="0"/>
        <pt x="296" y="809" on="0"/>
        <pt x="242" y="795" on="1"/>
        <pt x="138" y="768" on="0"/>
        <pt x="138" y="676" on="1"/>
        <pt x="138" y="650" on="1"/>
        <pt x="233" y="650" on="1"/>
        <pt x="233" y="594" on="1"/>
        <pt x="137" y="594" on="1"/>
        <pt x="137" y="0" on="1"/>
        <pt x="72" y="0" on="1"/>
        <pt x="72" y="594" on="1"/>
        <pt x="-24" y="594" on="1"/>
        <pt x="-24" y="650" on="1"/>
      </contour>
    </TTGlyph>
    <TTGlyph name="dvMatraI.a42" xMin="-24" yMin="0" xMax="1516" yMax="879">
      <contour>
        <pt x="73" y="650" on="1"/>
        <pt x="73" y="677" on="1"/>
        <pt x="73" y="777" on="0"/>
        <pt x="151" y="824" on="1"/>
        <pt x="217" y="865" on="0"/>
        <pt x="362" y="875" on="1"/>
        <pt x="422" y="879" on="0"/>
        <pt x="507" y="879" on="1"/>
        <pt x="941" y="879" on="0"/>
        <pt x="1516" y="819" on="1"/>
        <pt x="1516" y="760" on="1"/>
        <pt x="917" y="819" on="0"/>
        <pt x="509" y="819" on="1"/>
        <pt x="313" y="819" on="0"/>
        <pt x="241" y="795" on="1"/>
        <pt x="169" y="771" on="0"/>
        <pt x="150" y="731" on="1"/>
        <pt x="138" y="707" on="0"/>
        <pt x="138" y="676" on="1"/>
        <pt x="138" y="650" on="1"/>
        <pt x="233" y="650" on="1"/>
        <pt x="233" y="594" on="1"/>
        <pt x="137" y="594" on="1"/>
        <pt x="137" y="0" on="1"/>
        <pt x="72" y="0" on="1"/>
        <pt x="72" y="594" on="1"/>
        <pt x="-24" y="594" on="1"/>
        <pt x="-24" y="650" on="1"/>
      </contour>
    </TTGlyph>
    <TTGlyph name="dvMatraI.a43" xMin="-24" yMin="0" xMax="1541" yMax="879">
      <contour>
        <pt x="73" y="650" on="1"/>
        <pt x="73" y="677" on="1"/>
        <pt x="73" y="777" on="0"/>
        <pt x="152" y="824" on="1"/>
        <pt x="220" y="865" on="0"/>
        <pt x="366" y="875" on="1"/>
        <pt x="427" y="879" on="0"/>
        <pt x="513" y="879" on="1"/>
        <pt x="957" y="879" on="0"/>
        <pt x="1541" y="819" on="1"/>
        <pt x="1541" y="760" on="1"/>
        <pt x="892" y="819" on="0"/>
        <pt x="515" y="819" on="1"/>
        <pt x="313" y="819" on="0"/>
        <pt x="242" y="796" on="1"/>
        <pt x="171" y="773" on="0"/>
        <pt x="150" y="732" on="1"/>
        <pt x="138" y="708" on="0"/>
        <pt x="138" y="676" on="1"/>
        <pt x="138" y="650" on="1"/>
        <pt x="233" y="650" on="1"/>
        <pt x="233" y="594" on="1"/>
        <pt x="137" y="594" on="1"/>
        <pt x="137" y="0" on="1"/>
        <pt x="72" y="0" on="1"/>
        <pt x="72" y="594" on="1"/>
        <pt x="-24" y="594" on="1"/>
        <pt x="-24" y="650" on="1"/>
      </contour>
    </TTGlyph>
    <TTGlyph name="dvMatraI.a44" xMin="-24" yMin="0" xMax="1566" yMax="879">
      <contour>
        <pt x="73" y="650" on="1"/>
        <pt x="73" y="676" on="1"/>
        <pt x="73" y="765" on="0"/>
        <pt x="131" y="808" on="1"/>
        <pt x="193" y="853" on="0"/>
        <pt x="288" y="866" on="1"/>
        <pt x="378" y="879" on="0"/>
        <pt x="519" y="879" on="1"/>
        <pt x="984" y="879" on="0"/>
        <pt x="1566" y="819" on="1"/>
        <pt x="1566" y="760" on="1"/>
        <pt x="934" y="819" on="0"/>
        <pt x="520" y="819" on="1"/>
        <pt x="316" y="819" on="0"/>
        <pt x="245" y="796" on="1"/>
        <pt x="170" y="772" on="0"/>
        <pt x="150" y="731" on="1"/>
        <pt x="138" y="707" on="0"/>
        <pt x="138" y="675" on="1"/>
        <pt x="138" y="650" on="1"/>
        <pt x="233" y="650" on="1"/>
        <pt x="233" y="594" on="1"/>
        <pt x="137" y="594" on="1"/>
        <pt x="137" y="0" on="1"/>
        <pt x="72" y="0" on="1"/>
        <pt x="72" y="594" on="1"/>
        <pt x="-24" y="594" on="1"/>
        <pt x="-24" y="650" on="1"/>
      </contour>
    </TTGlyph>
    <TTGlyph name="dvMatraI.a45" xMin="-24" yMin="0" xMax="1590" yMax="879">
      <contour>
        <pt x="73" y="650" on="1"/>
        <pt x="73" y="676" on="1"/>
        <pt x="73" y="764" on="0"/>
        <pt x="132" y="808" on="1"/>
        <pt x="192" y="853" on="0"/>
        <pt x="290" y="866" on="1"/>
        <pt x="380" y="879" on="0"/>
        <pt x="524" y="879" on="1"/>
        <pt x="985" y="879" on="0"/>
        <pt x="1590" y="819" on="1"/>
        <pt x="1590" y="760" on="1"/>
        <pt x="955" y="819" on="0"/>
        <pt x="526" y="819" on="1"/>
        <pt x="317" y="819" on="0"/>
        <pt x="246" y="796" on="1"/>
        <pt x="172" y="772" on="0"/>
        <pt x="150" y="731" on="1"/>
        <pt x="138" y="707" on="0"/>
        <pt x="138" y="675" on="1"/>
        <pt x="138" y="650" on="1"/>
        <pt x="233" y="650" on="1"/>
        <pt x="233" y="594" on="1"/>
        <pt x="137" y="594" on="1"/>
        <pt x="137" y="0" on="1"/>
        <pt x="72" y="0" on="1"/>
        <pt x="72" y="594" on="1"/>
        <pt x="-24" y="594" on="1"/>
        <pt x="-24" y="650" on="1"/>
      </contour>
    </TTGlyph>
    <TTGlyph name="dvMatraI.a46" xMin="-24" yMin="0" xMax="1614" yMax="879">
      <contour>
        <pt x="73" y="650" on="1"/>
        <pt x="73" y="675" on="1"/>
        <pt x="73" y="786" on="0"/>
        <pt x="168" y="832" on="1"/>
        <pt x="230" y="861" on="0"/>
        <pt x="301" y="868" on="1"/>
        <pt x="412" y="879" on="0"/>
        <pt x="529" y="879" on="1"/>
        <pt x="979" y="879" on="0"/>
        <pt x="1614" y="819" on="1"/>
        <pt x="1614" y="760" on="1"/>
        <pt x="992" y="819" on="0"/>
        <pt x="531" y="819" on="1"/>
        <pt x="376" y="819" on="0"/>
        <pt x="240" y="798" on="0"/>
        <pt x="178" y="768" on="0"/>
        <pt x="138" y="714" on="0"/>
        <pt x="138" y="675" on="1"/>
        <pt x="138" y="650" on="1"/>
        <pt x="233" y="650" on="1"/>
        <pt x="233" y="594" on="1"/>
        <pt x="137" y="594" on="1"/>
        <pt x="137" y="0" on="1"/>
        <pt x="72" y="0" on="1"/>
        <pt x="72" y="594" on="1"/>
        <pt x="-24" y="594" on="1"/>
        <pt x="-24" y="650" on="1"/>
      </contour>
    </TTGlyph>
    <TTGlyph name="dvMatraI.a47" xMin="-24" yMin="0" xMax="1638" yMax="879">
      <contour>
        <pt x="73" y="650" on="1"/>
        <pt x="73" y="675" on="1"/>
        <pt x="73" y="766" on="0"/>
        <pt x="133" y="809" on="1"/>
        <pt x="195" y="853" on="0"/>
        <pt x="295" y="866" on="1"/>
        <pt x="388" y="879" on="0"/>
        <pt x="535" y="879" on="1"/>
        <pt x="994" y="879" on="0"/>
        <pt x="1638" y="819" on="1"/>
        <pt x="1638" y="760" on="1"/>
        <pt x="937" y="819" on="0"/>
        <pt x="537" y="819" on="1"/>
        <pt x="319" y="819" on="0"/>
        <pt x="250" y="797" on="1"/>
        <pt x="171" y="772" on="0"/>
        <pt x="150" y="732" on="1"/>
        <pt x="138" y="708" on="0"/>
        <pt x="138" y="675" on="1"/>
        <pt x="138" y="650" on="1"/>
        <pt x="233" y="650" on="1"/>
        <pt x="233" y="594" on="1"/>
        <pt x="137" y="594" on="1"/>
        <pt x="137" y="0" on="1"/>
        <pt x="72" y="0" on="1"/>
        <pt x="72" y="594" on="1"/>
        <pt x="-24" y="594" on="1"/>
        <pt x="-24" y="650" on="1"/>
      </contour>
    </TTGlyph>
    <TTGlyph name="dvMatraI.a48" xMin="-24" yMin="0" xMax="1663" yMax="879">
      <contour>
        <pt x="73" y="650" on="1"/>
        <pt x="73" y="675" on="1"/>
        <pt x="73" y="766" on="0"/>
        <pt x="134" y="809" on="1"/>
        <pt x="196" y="853" on="0"/>
        <pt x="298" y="866" on="1"/>
        <pt x="393" y="879" on="0"/>
        <pt x="541" y="879" on="1"/>
        <pt x="1022" y="879" on="0"/>
        <pt x="1663" y="819" on="1"/>
        <pt x="1663" y="760" on="1"/>
        <pt x="971" y="819" on="0"/>
        <pt x="542" y="819" on="1"/>
        <pt x="321" y="819" on="0"/>
        <pt x="251" y="797" on="1"/>
        <pt x="173" y="773" on="0"/>
        <pt x="151" y="732" on="1"/>
        <pt x="138" y="708" on="0"/>
        <pt x="138" y="675" on="1"/>
        <pt x="138" y="650" on="1"/>
        <pt x="233" y="650" on="1"/>
        <pt x="233" y="594" on="1"/>
        <pt x="137" y="594" on="1"/>
        <pt x="137" y="0" on="1"/>
        <pt x="72" y="0" on="1"/>
        <pt x="72" y="594" on="1"/>
        <pt x="-24" y="594" on="1"/>
        <pt x="-24" y="650" on="1"/>
      </contour>
    </TTGlyph>
    <TTGlyph name="dvMatraI.a49" xMin="-24" yMin="0" xMax="1687" yMax="879">
      <contour>
        <pt x="73" y="650" on="1"/>
        <pt x="73" y="674" on="1"/>
        <pt x="73" y="766" on="0"/>
        <pt x="134" y="809" on="1"/>
        <pt x="200" y="855" on="0"/>
        <pt x="300" y="867" on="1"/>
        <pt x="399" y="879" on="0"/>
        <pt x="546" y="879" on="1"/>
        <pt x="1016" y="879" on="0"/>
        <pt x="1687" y="819" on="1"/>
        <pt x="1687" y="759" on="1"/>
        <pt x="1036" y="819" on="0"/>
        <pt x="547" y="819" on="1"/>
        <pt x="324" y="819" on="0"/>
        <pt x="252" y="797" on="1"/>
        <pt x="173" y="772" on="0"/>
        <pt x="151" y="732" on="1"/>
        <pt x="138" y="707" on="0"/>
        <pt x="138" y="674" on="1"/>
        <pt x="138" y="650" on="1"/>
        <pt x="233" y="650" on="1"/>
        <pt x="233" y="594" on="1"/>
        <pt x="137" y="594" on="1"/>
        <pt x="137" y="0" on="1"/>
        <pt x="72" y="0" on="1"/>
        <pt x="72" y="594" on="1"/>
        <pt x="-24" y="594" on="1"/>
        <pt x="-24" y="650" on="1"/>
      </contour>
    </TTGlyph>
    <TTGlyph name="dvMatraI.a50" xMin="-24" yMin="0" xMax="1761" yMax="879">
      <contour>
        <pt x="73" y="650" on="1"/>
        <pt x="73" y="674" on="1"/>
        <pt x="73" y="766" on="0"/>
        <pt x="136" y="810" on="1"/>
        <pt x="202" y="855" on="0"/>
        <pt x="308" y="867" on="1"/>
        <pt x="411" y="879" on="0"/>
        <pt x="562" y="879" on="1"/>
        <pt x="1069" y="879" on="0"/>
        <pt x="1761" y="818" on="1"/>
        <pt x="1761" y="759" on="1"/>
        <pt x="1053" y="819" on="0"/>
        <pt x="564" y="819" on="1"/>
        <pt x="366" y="819" on="0"/>
        <pt x="292" y="805" on="1"/>
        <pt x="210" y="789" on="0"/>
        <pt x="179" y="762" on="1"/>
        <pt x="138" y="727" on="0"/>
        <pt x="138" y="673" on="1"/>
        <pt x="138" y="650" on="1"/>
        <pt x="233" y="650" on="1"/>
        <pt x="233" y="594" on="1"/>
        <pt x="137" y="594" on="1"/>
        <pt x="137" y="0" on="1"/>
        <pt x="72" y="0" on="1"/>
        <pt x="72" y="594" on="1"/>
        <pt x="-24" y="594" on="1"/>
        <pt x="-24" y="650" on="1"/>
      </contour>
    </TTGlyph>
    <TTGlyph name="dvNG_GA" xMin="-24" yMin="-179" xMax="480" yMax="650">
      <contour>
        <pt x="-24" y="650" on="1"/>
        <pt x="480" y="650" on="1"/>
        <pt x="480" y="594" on="1"/>
        <pt x="343" y="594" on="1"/>
        <pt x="343" y="449" on="1"/>
        <pt x="192" y="449" on="1"/>
        <pt x="151" y="449" on="0"/>
        <pt x="118" y="424" on="0"/>
        <pt x="118" y="394" on="1"/>
        <pt x="118" y="390" on="1"/>
        <pt x="118" y="360" on="0"/>
        <pt x="151" y="334" on="0"/>
        <pt x="192" y="334" on="1"/>
        <pt x="230" y="334" on="1"/>
        <pt x="302" y="334" on="0"/>
        <pt x="372" y="281" on="0"/>
        <pt x="372" y="221" on="1"/>
        <pt x="372" y="205" on="1"/>
        <pt x="372" y="139" on="0"/>
        <pt x="329" y="109" on="1"/>
        <pt x="329" y="-179" on="1"/>
        <pt x="266" y="-179" on="1"/>
        <pt x="266" y="87" on="1"/>
        <pt x="242" y="83" on="0"/>
        <pt x="186" y="83" on="0"/>
        <pt x="177" y="84" on="1"/>
        <pt x="177" y="36" on="1"/>
        <pt x="177" y="-26" on="0"/>
        <pt x="123" y="-87" on="0"/>
        <pt x="57" y="-87" on="1"/>
        <pt x="20" y="-83" on="1"/>
        <pt x="20" y="-25" on="1"/>
        <pt x="37" y="-28" on="0"/>
        <pt x="51" y="-28" on="1"/>
        <pt x="91" y="-28" on="0"/>
        <pt x="114" y="4" on="0"/>
        <pt x="114" y="39" on="1"/>
        <pt x="114" y="89" on="1"/>
        <pt x="71" y="95" on="0"/>
        <pt x="48" y="99" on="1"/>
        <pt x="48" y="157" on="1"/>
        <pt x="139" y="141" on="0"/>
        <pt x="263" y="141" on="0"/>
        <pt x="306" y="169" on="0"/>
        <pt x="306" y="206" on="1"/>
        <pt x="306" y="222" on="1"/>
        <pt x="306" y="252" on="0"/>
        <pt x="273" y="278" on="0"/>
        <pt x="230" y="278" on="1"/>
        <pt x="193" y="278" on="1"/>
        <pt x="122" y="278" on="0"/>
        <pt x="52" y="329" on="0"/>
        <pt x="52" y="389" on="1"/>
        <pt x="52" y="394" on="1"/>
        <pt x="52" y="504" on="0"/>
        <pt x="194" y="504" on="1"/>
        <pt x="276" y="504" on="1"/>
        <pt x="276" y="594" on="1"/>
        <pt x="-24" y="594" on="1"/>
      </contour>
      <contour>
        <pt x="351" y="418" on="0"/>
        <pt x="433" y="418" on="0"/>
        <pt x="433" y="335" on="0"/>
        <pt x="351" y="335" on="0"/>
      </contour>
    </TTGlyph>
    <TTGlyph name="dvNG_MA" xMin="-24" yMin="-119" xMax="630" yMax="650">
      <contour>
        <pt x="630" y="650" on="1"/>
        <pt x="630" y="594" on="1"/>
        <pt x="532" y="594" on="1"/>
        <pt x="532" y="-119" on="1"/>
        <pt x="467" y="-119" on="1"/>
        <pt x="467" y="-12" on="1"/>
        <pt x="323" y="-12" on="1"/>
        <pt x="323" y="-61" on="1"/>
        <pt x="258" y="-61" on="1"/>
        <pt x="258" y="93" on="1"/>
        <pt x="234" y="90" on="0"/>
        <pt x="133" y="90" on="0"/>
        <pt x="49" y="106" on="1"/>
        <pt x="49" y="164" on="1"/>
        <pt x="140" y="148" on="0"/>
        <pt x="264" y="148" on="0"/>
        <pt x="308" y="177" on="0"/>
        <pt x="308" y="214" on="1"/>
        <pt x="308" y="221" on="1"/>
        <pt x="308" y="252" on="0"/>
        <pt x="275" y="278" on="0"/>
        <pt x="232" y="278" on="1"/>
        <pt x="194" y="278" on="1"/>
        <pt x="123" y="278" on="0"/>
        <pt x="53" y="329" on="0"/>
        <pt x="53" y="389" on="1"/>
        <pt x="53" y="394" on="1"/>
        <pt x="53" y="504" on="0"/>
        <pt x="195" y="504" on="1"/>
        <pt x="278" y="504" on="1"/>
        <pt x="278" y="594" on="1"/>
        <pt x="-24" y="594" on="1"/>
        <pt x="-24" y="650" on="1"/>
      </contour>
      <contour>
        <pt x="467" y="44" on="1"/>
        <pt x="467" y="594" on="1"/>
        <pt x="344" y="594" on="1"/>
        <pt x="344" y="449" on="1"/>
        <pt x="193" y="449" on="1"/>
        <pt x="152" y="449" on="0"/>
        <pt x="119" y="424" on="0"/>
        <pt x="119" y="394" on="1"/>
        <pt x="119" y="389" on="1"/>
        <pt x="119" y="360" on="0"/>
        <pt x="152" y="334" on="0"/>
        <pt x="193" y="334" on="1"/>
        <pt x="232" y="334" on="1"/>
        <pt x="304" y="334" on="0"/>
        <pt x="374" y="281" on="0"/>
        <pt x="374" y="221" on="1"/>
        <pt x="374" y="213" on="1"/>
        <pt x="374" y="141" on="0"/>
        <pt x="324" y="113" on="1"/>
        <pt x="324" y="44" on="1"/>
      </contour>
      <contour>
        <pt x="353" y="338" on="0"/>
        <pt x="353" y="415" on="0"/>
        <pt x="430" y="415" on="0"/>
        <pt x="430" y="338" on="0"/>
      </contour>
    </TTGlyph>
    <TTGlyph name="dvNY_CA" xMin="-24" yMin="0" xMax="865" yMax="650">
      <contour>
        <pt x="468" y="338" on="1"/>
        <pt x="468" y="391" on="0"/>
        <pt x="477" y="423" on="1"/>
        <pt x="384" y="423" on="1"/>
        <pt x="384" y="482" on="1"/>
        <pt x="650" y="482" on="1"/>
        <pt x="650" y="425" on="1"/>
        <pt x="543" y="425" on="1"/>
        <pt x="533" y="396" on="0"/>
        <pt x="533" y="338" on="1"/>
        <pt x="533" y="195" on="1"/>
        <pt x="533" y="157" on="0"/>
        <pt x="574" y="121" on="0"/>
        <pt x="666" y="121" on="0"/>
        <pt x="704" y="134" on="1"/>
        <pt x="704" y="594" on="1"/>
        <pt x="-24" y="594" on="1"/>
        <pt x="-24" y="650" on="1"/>
        <pt x="865" y="650" on="1"/>
        <pt x="865" y="594" on="1"/>
        <pt x="769" y="594" on="1"/>
        <pt x="769" y="0" on="1"/>
        <pt x="704" y="0" on="1"/>
        <pt x="704" y="75" on="1"/>
        <pt x="665" y="62" on="0"/>
        <pt x="615" y="62" on="1"/>
        <pt x="468" y="62" on="0"/>
        <pt x="468" y="194" on="1"/>
        <pt x="468" y="243" on="1"/>
        <pt x="307" y="243" on="1"/>
        <pt x="307" y="177" on="1"/>
        <pt x="307" y="115" on="0"/>
        <pt x="231" y="45" on="0"/>
        <pt x="99" y="45" on="0"/>
        <pt x="57" y="61" on="1"/>
        <pt x="57" y="121" on="1"/>
        <pt x="113" y="105" on="0"/>
        <pt x="153" y="105" on="1"/>
        <pt x="242" y="105" on="0"/>
        <pt x="242" y="183" on="1"/>
        <pt x="242" y="368" on="1"/>
        <pt x="242" y="406" on="0"/>
        <pt x="203" y="446" on="0"/>
        <pt x="108" y="446" on="0"/>
        <pt x="64" y="430" on="1"/>
        <pt x="64" y="490" on="1"/>
        <pt x="103" y="506" on="0"/>
        <pt x="155" y="506" on="1"/>
        <pt x="307" y="506" on="0"/>
        <pt x="307" y="370" on="1"/>
        <pt x="307" y="300" on="1"/>
        <pt x="468" y="300" on="1"/>
      </contour>
    </TTGlyph>
    <TTGlyph name="dvSHA_MatraVocalicR" xMin="29" yMin="-252" xMax="597" yMax="655">
      <contour>
        <pt x="501" y="594" on="1"/>
        <pt x="501" y="-56" on="1"/>
        <pt x="464" y="-47" on="0"/>
        <pt x="385" y="-47" on="0"/>
        <pt x="349" y="-73" on="0"/>
        <pt x="349" y="-164" on="0"/>
        <pt x="386" y="-194" on="0"/>
        <pt x="414" y="-194" on="1"/>
        <pt x="465" y="-194" on="0"/>
        <pt x="505" y="-185" on="1"/>
        <pt x="505" y="-243" on="1"/>
        <pt x="468" y="-252" on="0"/>
        <pt x="422" y="-252" on="1"/>
        <pt x="286" y="-252" on="0"/>
        <pt x="286" y="-118" on="1"/>
        <pt x="286" y="-48" on="0"/>
        <pt x="355" y="12" on="0"/>
        <pt x="422" y="12" on="1"/>
        <pt x="436" y="12" on="1"/>
        <pt x="436" y="127" on="1"/>
        <pt x="196" y="300" on="1"/>
        <pt x="113" y="225" on="1"/>
        <pt x="29" y="236" on="1"/>
        <pt x="146" y="339" on="1"/>
        <pt x="99" y="377" on="0"/>
        <pt x="60" y="440" on="0"/>
        <pt x="60" y="494" on="1"/>
        <pt x="60" y="529" on="1"/>
        <pt x="60" y="655" on="0"/>
        <pt x="327" y="655" on="0"/>
        <pt x="327" y="529" on="1"/>
        <pt x="327" y="494" on="1"/>
        <pt x="327" y="458" on="0"/>
        <pt x="303" y="401" on="0"/>
        <pt x="273" y="369" on="0"/>
        <pt x="242" y="341" on="1"/>
        <pt x="382" y="240" on="0"/>
        <pt x="436" y="198" on="1"/>
        <pt x="436" y="650" on="1"/>
        <pt x="597" y="650" on="1"/>
        <pt x="597" y="594" on="1"/>
      </contour>
      <contour>
        <pt x="124" y="529" on="1"/>
        <pt x="124" y="487" on="1"/>
        <pt x="124" y="464" on="0"/>
        <pt x="148" y="422" on="0"/>
        <pt x="167" y="404" on="0"/>
        <pt x="194" y="382" on="1"/>
        <pt x="220" y="403" on="0"/>
        <pt x="240" y="422" on="0"/>
        <pt x="263" y="464" on="0"/>
        <pt x="263" y="487" on="1"/>
        <pt x="263" y="529" on="1"/>
        <pt x="263" y="563" on="0"/>
        <pt x="235" y="596" on="0"/>
        <pt x="153" y="596" on="0"/>
        <pt x="124" y="562" on="0"/>
      </contour>
    </TTGlyph>
    <TTGlyph name="dvSH_CA.aSimp" xMin="64" yMin="-4" xMax="904" yMax="655">
      <contour>
        <pt x="360" y="524" on="1"/>
        <pt x="360" y="383" on="1"/>
        <pt x="360" y="254" on="0"/>
        <pt x="215" y="254" on="1"/>
        <pt x="168" y="254" on="0"/>
        <pt x="129" y="268" on="1"/>
        <pt x="129" y="146" on="1"/>
        <pt x="129" y="102" on="0"/>
        <pt x="188" y="56" on="0"/>
        <pt x="294" y="56" on="0"/>
        <pt x="357" y="74" on="1"/>
        <pt x="357" y="14" on="1"/>
        <pt x="299" y="-4" on="0"/>
        <pt x="158" y="-4" on="0"/>
        <pt x="64" y="76" on="0"/>
        <pt x="64" y="145" on="1"/>
        <pt x="64" y="404" on="1"/>
        <pt x="129" y="404" on="1"/>
        <pt x="129" y="327" on="1"/>
        <pt x="171" y="313" on="0"/>
        <pt x="212" y="313" on="1"/>
        <pt x="295" y="313" on="0"/>
        <pt x="295" y="384" on="1"/>
        <pt x="295" y="523" on="1"/>
        <pt x="295" y="594" on="0"/>
        <pt x="129" y="594" on="0"/>
        <pt x="129" y="522" on="1"/>
        <pt x="129" y="494" on="0"/>
        <pt x="132" y="485" on="1"/>
        <pt x="67" y="485" on="1"/>
        <pt x="64" y="494" on="0"/>
        <pt x="64" y="524" on="1"/>
        <pt x="64" y="586" on="0"/>
        <pt x="138" y="655" on="0"/>
        <pt x="286" y="655" on="0"/>
        <pt x="360" y="586" on="0"/>
      </contour>
      <contour>
        <pt x="507" y="338" on="1"/>
        <pt x="507" y="391" on="0"/>
        <pt x="516" y="423" on="1"/>
        <pt x="438" y="423" on="1"/>
        <pt x="438" y="482" on="1"/>
        <pt x="689" y="482" on="1"/>
        <pt x="689" y="425" on="1"/>
        <pt x="582" y="425" on="1"/>
        <pt x="572" y="396" on="0"/>
        <pt x="572" y="338" on="1"/>
        <pt x="572" y="195" on="1"/>
        <pt x="572" y="157" on="0"/>
        <pt x="613" y="121" on="0"/>
        <pt x="705" y="121" on="0"/>
        <pt x="743" y="134" on="1"/>
        <pt x="743" y="594" on="1"/>
        <pt x="407" y="594" on="1"/>
        <pt x="407" y="650" on="1"/>
        <pt x="904" y="650" on="1"/>
        <pt x="904" y="594" on="1"/>
        <pt x="808" y="594" on="1"/>
        <pt x="808" y="0" on="1"/>
        <pt x="743" y="0" on="1"/>
        <pt x="743" y="75" on="1"/>
        <pt x="704" y="62" on="0"/>
        <pt x="654" y="62" on="1"/>
        <pt x="507" y="62" on="0"/>
        <pt x="507" y="194" on="1"/>
      </contour>
    </TTGlyph>
    <TTGlyph name="dvSH_LA.aSimp" xMin="64" yMin="-4" xMax="1039" yMax="655">
      <contour>
        <pt x="360" y="524" on="1"/>
        <pt x="360" y="383" on="1"/>
        <pt x="360" y="254" on="0"/>
        <pt x="215" y="254" on="1"/>
        <pt x="168" y="254" on="0"/>
        <pt x="129" y="268" on="1"/>
        <pt x="129" y="146" on="1"/>
        <pt x="129" y="102" on="0"/>
        <pt x="188" y="56" on="0"/>
        <pt x="294" y="56" on="0"/>
        <pt x="357" y="74" on="1"/>
        <pt x="357" y="14" on="1"/>
        <pt x="299" y="-4" on="0"/>
        <pt x="158" y="-4" on="0"/>
        <pt x="64" y="76" on="0"/>
        <pt x="64" y="145" on="1"/>
        <pt x="64" y="404" on="1"/>
        <pt x="129" y="404" on="1"/>
        <pt x="129" y="327" on="1"/>
        <pt x="171" y="313" on="0"/>
        <pt x="212" y="313" on="1"/>
        <pt x="295" y="313" on="0"/>
        <pt x="295" y="384" on="1"/>
        <pt x="295" y="523" on="1"/>
        <pt x="295" y="594" on="0"/>
        <pt x="129" y="594" on="0"/>
        <pt x="129" y="522" on="1"/>
        <pt x="129" y="494" on="0"/>
        <pt x="132" y="485" on="1"/>
        <pt x="67" y="485" on="1"/>
        <pt x="64" y="494" on="0"/>
        <pt x="64" y="524" on="1"/>
        <pt x="64" y="586" on="0"/>
        <pt x="138" y="655" on="0"/>
        <pt x="286" y="655" on="0"/>
        <pt x="360" y="586" on="0"/>
      </contour>
      <contour>
        <pt x="447" y="154" on="1"/>
        <pt x="447" y="349" on="1"/>
        <pt x="447" y="411" on="0"/>
        <pt x="516" y="480" on="0"/>
        <pt x="662" y="480" on="0"/>
        <pt x="694" y="434" on="1"/>
        <pt x="727" y="480" on="0"/>
        <pt x="804" y="480" on="1"/>
        <pt x="844" y="480" on="0"/>
        <pt x="878" y="466" on="1"/>
        <pt x="878" y="594" on="1"/>
        <pt x="432" y="594" on="1"/>
        <pt x="432" y="650" on="1"/>
        <pt x="1039" y="650" on="1"/>
        <pt x="1039" y="594" on="1"/>
        <pt x="943" y="594" on="1"/>
        <pt x="943" y="0" on="1"/>
        <pt x="878" y="0" on="1"/>
        <pt x="878" y="406" on="1"/>
        <pt x="848" y="420" on="0"/>
        <pt x="807" y="420" on="1"/>
        <pt x="727" y="420" on="0"/>
        <pt x="727" y="350" on="1"/>
        <pt x="727" y="207" on="1"/>
        <pt x="662" y="207" on="1"/>
        <pt x="662" y="350" on="1"/>
        <pt x="662" y="420" on="0"/>
        <pt x="587" y="420" on="1"/>
        <pt x="544" y="420" on="0"/>
        <pt x="511" y="382" on="0"/>
        <pt x="511" y="348" on="1"/>
        <pt x="511" y="155" on="1"/>
        <pt x="511" y="109" on="0"/>
        <pt x="554" y="59" on="0"/>
        <pt x="613" y="59" on="1"/>
        <pt x="643" y="59" on="0"/>
        <pt x="671" y="63" on="1"/>
        <pt x="671" y="5" on="1"/>
        <pt x="644" y="0" on="0"/>
        <pt x="612" y="0" on="1"/>
        <pt x="447" y="0" on="0"/>
      </contour>
    </TTGlyph>
    <TTGlyph name="dvSH_VA.aSimp" xMin="64" yMin="-4" xMax="859" yMax="655">
      <contour>
        <pt x="360" y="524" on="1"/>
        <pt x="360" y="383" on="1"/>
        <pt x="360" y="254" on="0"/>
        <pt x="215" y="254" on="1"/>
        <pt x="168" y="254" on="0"/>
        <pt x="129" y="268" on="1"/>
        <pt x="129" y="146" on="1"/>
        <pt x="129" y="102" on="0"/>
        <pt x="188" y="56" on="0"/>
        <pt x="294" y="56" on="0"/>
        <pt x="357" y="74" on="1"/>
        <pt x="357" y="14" on="1"/>
        <pt x="299" y="-4" on="0"/>
        <pt x="158" y="-4" on="0"/>
        <pt x="64" y="76" on="0"/>
        <pt x="64" y="145" on="1"/>
        <pt x="64" y="404" on="1"/>
        <pt x="129" y="404" on="1"/>
        <pt x="129" y="327" on="1"/>
        <pt x="171" y="313" on="0"/>
        <pt x="212" y="313" on="1"/>
        <pt x="295" y="313" on="0"/>
        <pt x="295" y="384" on="1"/>
        <pt x="295" y="523" on="1"/>
        <pt x="295" y="594" on="0"/>
        <pt x="129" y="594" on="0"/>
        <pt x="129" y="522" on="1"/>
        <pt x="129" y="494" on="0"/>
        <pt x="132" y="485" on="1"/>
        <pt x="67" y="485" on="1"/>
        <pt x="64" y="494" on="0"/>
        <pt x="64" y="524" on="1"/>
        <pt x="64" y="586" on="0"/>
        <pt x="138" y="655" on="0"/>
        <pt x="286" y="655" on="0"/>
        <pt x="360" y="586" on="0"/>
      </contour>
      <contour>
        <pt x="611" y="447" on="1"/>
        <pt x="520" y="447" on="0"/>
        <pt x="520" y="373" on="1"/>
        <pt x="520" y="202" on="1"/>
        <pt x="520" y="127" on="0"/>
        <pt x="611" y="127" on="1"/>
        <pt x="670" y="127" on="0"/>
        <pt x="699" y="140" on="1"/>
        <pt x="699" y="435" on="1"/>
        <pt x="669" y="447" on="0"/>
      </contour>
      <contour>
        <pt x="698" y="594" on="1"/>
        <pt x="398" y="594" on="1"/>
        <pt x="398" y="650" on="1"/>
        <pt x="859" y="650" on="1"/>
        <pt x="859" y="594" on="1"/>
        <pt x="763" y="594" on="1"/>
        <pt x="763" y="0" on="1"/>
        <pt x="698" y="0" on="1"/>
        <pt x="698" y="82" on="1"/>
        <pt x="662" y="69" on="0"/>
        <pt x="606" y="69" on="1"/>
        <pt x="456" y="69" on="0"/>
        <pt x="456" y="202" on="1"/>
        <pt x="456" y="374" on="1"/>
        <pt x="456" y="435" on="0"/>
        <pt x="533" y="505" on="0"/>
        <pt x="606" y="505" on="1"/>
        <pt x="654" y="505" on="0"/>
        <pt x="698" y="493" on="1"/>
      </contour>
    </TTGlyph>
    <TTGlyph name="dvTTH_TTHA" xMin="-24" yMin="-135" xMax="454" yMax="650">
      <contour>
        <pt x="454" y="594" on="1"/>
        <pt x="247" y="594" on="1"/>
        <pt x="247" y="505" on="1"/>
        <pt x="365" y="492" on="0"/>
        <pt x="365" y="378" on="1"/>
        <pt x="365" y="285" on="1"/>
        <pt x="365" y="217" on="0"/>
        <pt x="317" y="186" on="1"/>
        <pt x="365" y="156" on="0"/>
        <pt x="365" y="87" on="1"/>
        <pt x="365" y="-6" on="1"/>
        <pt x="365" y="-68" on="0"/>
        <pt x="290" y="-135" on="0"/>
        <pt x="140" y="-135" on="0"/>
        <pt x="65" y="-68" on="0"/>
        <pt x="65" y="-6" on="1"/>
        <pt x="65" y="87" on="1"/>
        <pt x="65" y="156" on="0"/>
        <pt x="113" y="186" on="1"/>
        <pt x="65" y="217" on="0"/>
        <pt x="65" y="285" on="1"/>
        <pt x="65" y="378" on="1"/>
        <pt x="65" y="492" on="0"/>
        <pt x="182" y="505" on="1"/>
        <pt x="182" y="594" on="1"/>
        <pt x="-24" y="594" on="1"/>
        <pt x="-24" y="650" on="1"/>
        <pt x="454" y="650" on="1"/>
      </contour>
      <contour>
        <pt x="301" y="-5" on="1"/>
        <pt x="301" y="86" on="1"/>
        <pt x="301" y="158" on="0"/>
        <pt x="129" y="158" on="0"/>
        <pt x="129" y="86" on="1"/>
        <pt x="129" y="-5" on="1"/>
        <pt x="129" y="-40" on="0"/>
        <pt x="167" y="-77" on="0"/>
        <pt x="263" y="-77" on="0"/>
        <pt x="301" y="-40" on="0"/>
      </contour>
      <contour>
        <pt x="301" y="286" on="1"/>
        <pt x="301" y="377" on="1"/>
        <pt x="301" y="412" on="0"/>
        <pt x="263" y="449" on="0"/>
        <pt x="167" y="449" on="0"/>
        <pt x="129" y="412" on="0"/>
        <pt x="129" y="377" on="1"/>
        <pt x="129" y="286" on="1"/>
        <pt x="129" y="214" on="0"/>
        <pt x="301" y="214" on="0"/>
      </contour>
    </TTGlyph>
    <TTGlyph name="dvTT_GA" xMin="-24" yMin="-185" xMax="416" yMax="650">
      <contour>
        <pt x="326" y="441" on="1"/>
        <pt x="208" y="441" on="1"/>
        <pt x="160" y="441" on="0"/>
        <pt x="120" y="405" on="0"/>
        <pt x="120" y="370" on="1"/>
        <pt x="120" y="208" on="1"/>
        <pt x="120" y="124" on="0"/>
        <pt x="227" y="124" on="1"/>
        <pt x="294" y="124" on="0"/>
        <pt x="350" y="142" on="1"/>
        <pt x="350" y="81" on="1"/>
        <pt x="347" y="80" on="0"/>
        <pt x="319" y="73" on="1"/>
        <pt x="319" y="-185" on="1"/>
        <pt x="256" y="-185" on="1"/>
        <pt x="256" y="65" on="1"/>
        <pt x="246" y="64" on="0"/>
        <pt x="194" y="64" on="0"/>
        <pt x="167" y="70" on="1"/>
        <pt x="167" y="30" on="1"/>
        <pt x="167" y="-32" on="0"/>
        <pt x="113" y="-93" on="0"/>
        <pt x="47" y="-93" on="1"/>
        <pt x="11" y="-89" on="1"/>
        <pt x="11" y="-31" on="1"/>
        <pt x="27" y="-35" on="0"/>
        <pt x="41" y="-35" on="1"/>
        <pt x="81" y="-35" on="0"/>
        <pt x="104" y="-3" on="0"/>
        <pt x="104" y="32" on="1"/>
        <pt x="104" y="98" on="1"/>
        <pt x="55" y="136" on="0"/>
        <pt x="55" y="207" on="1"/>
        <pt x="55" y="372" on="1"/>
        <pt x="55" y="501" on="0"/>
        <pt x="204" y="501" on="1"/>
        <pt x="261" y="501" on="1"/>
        <pt x="261" y="594" on="1"/>
        <pt x="-24" y="594" on="1"/>
        <pt x="-24" y="650" on="1"/>
        <pt x="416" y="650" on="1"/>
        <pt x="416" y="594" on="1"/>
        <pt x="326" y="594" on="1"/>
      </contour>
    </TTGlyph>
    <TTGlyph name="dvT_KH_NA" xMin="-24" yMin="-4" xMax="1396" yMax="650">
      <contour>
        <pt x="511" y="524" on="1"/>
        <pt x="511" y="562" on="0"/>
        <pt x="498" y="594" on="1"/>
        <pt x="-24" y="594" on="1"/>
        <pt x="-24" y="650" on="1"/>
        <pt x="1396" y="650" on="1"/>
        <pt x="1396" y="594" on="1"/>
        <pt x="1300" y="594" on="1"/>
        <pt x="1300" y="0" on="1"/>
        <pt x="1235" y="0" on="1"/>
        <pt x="1235" y="420" on="1"/>
        <pt x="1099" y="420" on="1"/>
        <pt x="1110" y="382" on="0"/>
        <pt x="1110" y="349" on="1"/>
        <pt x="1110" y="183" on="1"/>
        <pt x="1110" y="61" on="0"/>
        <pt x="978" y="61" on="1"/>
        <pt x="870" y="61" on="0"/>
        <pt x="850" y="142" on="1"/>
        <pt x="818" y="127" on="0"/>
        <pt x="695" y="127" on="0"/>
        <pt x="631" y="185" on="0"/>
        <pt x="631" y="252" on="1"/>
        <pt x="631" y="376" on="1"/>
        <pt x="631" y="438" on="0"/>
        <pt x="697" y="501" on="0"/>
        <pt x="855" y="501" on="0"/>
        <pt x="885" y="454" on="1"/>
        <pt x="917" y="479" on="0"/>
        <pt x="978" y="479" on="1"/>
        <pt x="1235" y="479" on="1"/>
        <pt x="1235" y="594" on="1"/>
        <pt x="562" y="594" on="1"/>
        <pt x="573" y="570" on="0"/>
        <pt x="573" y="524" on="1"/>
        <pt x="573" y="403" on="1"/>
        <pt x="573" y="258" on="0"/>
        <pt x="428" y="258" on="1"/>
        <pt x="394" y="258" on="0"/>
        <pt x="361" y="265" on="1"/>
        <pt x="361" y="177" on="1"/>
        <pt x="361" y="56" on="0"/>
        <pt x="524" y="56" on="1"/>
        <pt x="600" y="56" on="0"/>
        <pt x="662" y="74" on="1"/>
        <pt x="662" y="12" on="1"/>
        <pt x="600" y="-4" on="0"/>
        <pt x="418" y="-4" on="0"/>
        <pt x="297" y="83" on="0"/>
        <pt x="297" y="176" on="1"/>
        <pt x="297" y="428" on="1"/>
        <pt x="250" y="433" on="0"/>
        <pt x="215" y="433" on="1"/>
        <pt x="117" y="433" on="0"/>
        <pt x="117" y="357" on="1"/>
        <pt x="117" y="126" on="1"/>
        <pt x="117" y="92" on="0"/>
        <pt x="155" y="59" on="0"/>
        <pt x="203" y="60" on="1"/>
        <pt x="203" y="0" on="1"/>
        <pt x="187" y="-1" on="0"/>
        <pt x="182" y="-1" on="1"/>
        <pt x="116" y="-3" on="0"/>
        <pt x="52" y="63" on="0"/>
        <pt x="52" y="123" on="1"/>
        <pt x="52" y="358" on="1"/>
        <pt x="52" y="421" on="0"/>
        <pt x="134" y="493" on="0"/>
        <pt x="275" y="493" on="0"/>
        <pt x="361" y="479" on="1"/>
        <pt x="361" y="323" on="1"/>
        <pt x="397" y="317" on="0"/>
        <pt x="426" y="317" on="1"/>
        <pt x="511" y="317" on="0"/>
        <pt x="511" y="403" on="1"/>
      </contour>
      <contour>
        <pt x="693" y="376" on="1"/>
        <pt x="693" y="252" on="1"/>
        <pt x="693" y="218" on="0"/>
        <pt x="725" y="184" on="0"/>
        <pt x="813" y="184" on="0"/>
        <pt x="845" y="218" on="0"/>
        <pt x="845" y="252" on="1"/>
        <pt x="845" y="376" on="1"/>
        <pt x="845" y="410" on="0"/>
        <pt x="813" y="444" on="0"/>
        <pt x="725" y="444" on="0"/>
        <pt x="693" y="410" on="0"/>
      </contour>
      <contour>
        <pt x="1047" y="184" on="1"/>
        <pt x="1047" y="348" on="1"/>
        <pt x="1047" y="385" on="0"/>
        <pt x="1038" y="412" on="0"/>
        <pt x="1036" y="420" on="1"/>
        <pt x="978" y="420" on="1"/>
        <pt x="939" y="420" on="0"/>
        <pt x="909" y="389" on="0"/>
        <pt x="909" y="357" on="1"/>
        <pt x="909" y="184" on="1"/>
        <pt x="909" y="152" on="0"/>
        <pt x="939" y="120" on="0"/>
        <pt x="1017" y="120" on="0"/>
        <pt x="1047" y="151" on="0"/>
      </contour>
    </TTGlyph>
    <TTGlyph name="dvT_S_NA" xMin="-24" yMin="-5" xMax="1241" yMax="650">
      <contour>
        <pt x="510" y="524" on="1"/>
        <pt x="510" y="567" on="0"/>
        <pt x="501" y="594" on="1"/>
        <pt x="-24" y="594" on="1"/>
        <pt x="-24" y="650" on="1"/>
        <pt x="1241" y="650" on="1"/>
        <pt x="1241" y="594" on="1"/>
        <pt x="1144" y="594" on="1"/>
        <pt x="1144" y="0" on="1"/>
        <pt x="1079" y="0" on="1"/>
        <pt x="1079" y="420" on="1"/>
        <pt x="943" y="420" on="1"/>
        <pt x="947" y="416" on="0"/>
        <pt x="955" y="369" on="0"/>
        <pt x="955" y="349" on="1"/>
        <pt x="955" y="183" on="1"/>
        <pt x="955" y="61" on="0"/>
        <pt x="690" y="61" on="0"/>
        <pt x="690" y="183" on="1"/>
        <pt x="690" y="289" on="1"/>
        <pt x="541" y="289" on="1"/>
        <pt x="505" y="253" on="0"/>
        <pt x="431" y="253" on="1"/>
        <pt x="392" y="253" on="0"/>
        <pt x="361" y="262" on="1"/>
        <pt x="361" y="143" on="1"/>
        <pt x="361" y="55" on="0"/>
        <pt x="473" y="55" on="1"/>
        <pt x="531" y="55" on="0"/>
        <pt x="595" y="73" on="1"/>
        <pt x="595" y="12" on="1"/>
        <pt x="534" y="-5" on="0"/>
        <pt x="387" y="-5" on="0"/>
        <pt x="296" y="70" on="0"/>
        <pt x="296" y="142" on="1"/>
        <pt x="296" y="428" on="1"/>
        <pt x="249" y="433" on="0"/>
        <pt x="215" y="433" on="1"/>
        <pt x="117" y="433" on="0"/>
        <pt x="117" y="357" on="1"/>
        <pt x="117" y="126" on="1"/>
        <pt x="117" y="92" on="0"/>
        <pt x="155" y="59" on="0"/>
        <pt x="203" y="60" on="1"/>
        <pt x="203" y="0" on="1"/>
        <pt x="187" y="-1" on="0"/>
        <pt x="182" y="-1" on="1"/>
        <pt x="116" y="-3" on="0"/>
        <pt x="52" y="63" on="0"/>
        <pt x="52" y="123" on="1"/>
        <pt x="52" y="358" on="1"/>
        <pt x="52" y="421" on="0"/>
        <pt x="134" y="493" on="0"/>
        <pt x="275" y="493" on="0"/>
        <pt x="361" y="479" on="1"/>
        <pt x="361" y="321" on="1"/>
        <pt x="395" y="312" on="0"/>
        <pt x="426" y="312" on="1"/>
        <pt x="510" y="312" on="0"/>
        <pt x="510" y="383" on="1"/>
      </contour>
      <contour>
        <pt x="892" y="184" on="1"/>
        <pt x="892" y="348" on="1"/>
        <pt x="892" y="396" on="0"/>
        <pt x="880" y="420" on="1"/>
        <pt x="822" y="420" on="1"/>
        <pt x="784" y="420" on="0"/>
        <pt x="753" y="389" on="0"/>
        <pt x="753" y="357" on="1"/>
        <pt x="753" y="184" on="1"/>
        <pt x="753" y="152" on="0"/>
        <pt x="784" y="120" on="0"/>
        <pt x="861" y="120" on="0"/>
        <pt x="892" y="152" on="0"/>
      </contour>
      <contour>
        <pt x="1079" y="479" on="1"/>
        <pt x="1079" y="594" on="1"/>
        <pt x="566" y="594" on="1"/>
        <pt x="574" y="570" on="0"/>
        <pt x="574" y="524" on="1"/>
        <pt x="574" y="383" on="1"/>
        <pt x="574" y="361" on="0"/>
        <pt x="570" y="346" on="1"/>
        <pt x="690" y="346" on="1"/>
        <pt x="690" y="358" on="1"/>
        <pt x="690" y="479" on="0"/>
        <pt x="822" y="479" on="1"/>
      </contour>
    </TTGlyph>
    <TTGlyph name="e" xMin="59" yMin="-5" xMax="383" yMax="579">
      <contour>
        <pt x="59" y="145" on="1"/>
        <pt x="59" y="423" on="1"/>
        <pt x="59" y="494" on="0"/>
        <pt x="140" y="579" on="0"/>
        <pt x="304" y="579" on="0"/>
        <pt x="383" y="494" on="0"/>
        <pt x="383" y="423" on="1"/>
        <pt x="383" y="249" on="1"/>
        <pt x="129" y="249" on="1"/>
        <pt x="129" y="148" on="1"/>
        <pt x="129" y="103" on="0"/>
        <pt x="185" y="59" on="0"/>
        <pt x="303" y="59" on="0"/>
        <pt x="366" y="77" on="1"/>
        <pt x="366" y="11" on="1"/>
        <pt x="316" y="-5" on="0"/>
        <pt x="247" y="-5" on="1"/>
        <pt x="59" y="-5" on="0"/>
      </contour>
      <contour>
        <pt x="129" y="308" on="1"/>
        <pt x="315" y="308" on="1"/>
        <pt x="315" y="423" on="1"/>
        <pt x="315" y="517" on="0"/>
        <pt x="129" y="517" on="0"/>
        <pt x="129" y="423" on="1"/>
      </contour>
    </TTGlyph>
    <TTGlyph name="eacute" xMin="59" yMin="-5" xMax="383" yMax="720">
      <contour>
        <pt x="59" y="145" on="1"/>
        <pt x="59" y="423" on="1"/>
        <pt x="59" y="494" on="0"/>
        <pt x="140" y="579" on="0"/>
        <pt x="304" y="579" on="0"/>
        <pt x="383" y="494" on="0"/>
        <pt x="383" y="423" on="1"/>
        <pt x="383" y="249" on="1"/>
        <pt x="129" y="249" on="1"/>
        <pt x="129" y="148" on="1"/>
        <pt x="129" y="103" on="0"/>
        <pt x="185" y="59" on="0"/>
        <pt x="303" y="59" on="0"/>
        <pt x="366" y="77" on="1"/>
        <pt x="366" y="11" on="1"/>
        <pt x="316" y="-5" on="0"/>
        <pt x="247" y="-5" on="1"/>
        <pt x="59" y="-5" on="0"/>
      </contour>
      <contour>
        <pt x="129" y="308" on="1"/>
        <pt x="315" y="308" on="1"/>
        <pt x="315" y="423" on="1"/>
        <pt x="315" y="517" on="0"/>
        <pt x="129" y="517" on="0"/>
        <pt x="129" y="423" on="1"/>
      </contour>
      <contour>
        <pt x="309" y="720" on="1"/>
        <pt x="249" y="613" on="1"/>
        <pt x="203" y="613" on="1"/>
        <pt x="242" y="720" on="1"/>
      </contour>
    </TTGlyph>
    <TTGlyph name="ecaron" xMin="59" yMin="-5" xMax="383" yMax="720">
      <contour>
        <pt x="59" y="145" on="1"/>
        <pt x="59" y="423" on="1"/>
        <pt x="59" y="494" on="0"/>
        <pt x="140" y="579" on="0"/>
        <pt x="304" y="579" on="0"/>
        <pt x="383" y="494" on="0"/>
        <pt x="383" y="423" on="1"/>
        <pt x="383" y="249" on="1"/>
        <pt x="129" y="249" on="1"/>
        <pt x="129" y="148" on="1"/>
        <pt x="129" y="103" on="0"/>
        <pt x="185" y="59" on="0"/>
        <pt x="303" y="59" on="0"/>
        <pt x="366" y="77" on="1"/>
        <pt x="366" y="11" on="1"/>
        <pt x="316" y="-5" on="0"/>
        <pt x="247" y="-5" on="1"/>
        <pt x="59" y="-5" on="0"/>
      </contour>
      <contour>
        <pt x="129" y="308" on="1"/>
        <pt x="315" y="308" on="1"/>
        <pt x="315" y="423" on="1"/>
        <pt x="315" y="517" on="0"/>
        <pt x="129" y="517" on="0"/>
        <pt x="129" y="423" on="1"/>
      </contour>
      <contour>
        <pt x="195" y="613" on="1"/>
        <pt x="145" y="720" on="1"/>
        <pt x="189" y="720" on="1"/>
        <pt x="225" y="657" on="1"/>
        <pt x="261" y="720" on="1"/>
        <pt x="305" y="720" on="1"/>
        <pt x="254" y="613" on="1"/>
      </contour>
    </TTGlyph>
    <TTGlyph name="ecircumflex" xMin="59" yMin="-5" xMax="383" yMax="720">
      <contour>
        <pt x="59" y="145" on="1"/>
        <pt x="59" y="423" on="1"/>
        <pt x="59" y="494" on="0"/>
        <pt x="140" y="579" on="0"/>
        <pt x="304" y="579" on="0"/>
        <pt x="383" y="494" on="0"/>
        <pt x="383" y="423" on="1"/>
        <pt x="383" y="249" on="1"/>
        <pt x="129" y="249" on="1"/>
        <pt x="129" y="148" on="1"/>
        <pt x="129" y="103" on="0"/>
        <pt x="185" y="59" on="0"/>
        <pt x="303" y="59" on="0"/>
        <pt x="366" y="77" on="1"/>
        <pt x="366" y="11" on="1"/>
        <pt x="316" y="-5" on="0"/>
        <pt x="247" y="-5" on="1"/>
        <pt x="59" y="-5" on="0"/>
      </contour>
      <contour>
        <pt x="129" y="308" on="1"/>
        <pt x="315" y="308" on="1"/>
        <pt x="315" y="423" on="1"/>
        <pt x="315" y="517" on="0"/>
        <pt x="129" y="517" on="0"/>
        <pt x="129" y="423" on="1"/>
      </contour>
      <contour>
        <pt x="229" y="676" on="1"/>
        <pt x="193" y="613" on="1"/>
        <pt x="149" y="613" on="1"/>
        <pt x="199" y="720" on="1"/>
        <pt x="258" y="720" on="1"/>
        <pt x="309" y="613" on="1"/>
        <pt x="265" y="613" on="1"/>
      </contour>
    </TTGlyph>
    <TTGlyph name="edieresis" xMin="59" yMin="-5" xMax="383" yMax="703">
      <contour>
        <pt x="59" y="145" on="1"/>
        <pt x="59" y="423" on="1"/>
        <pt x="59" y="494" on="0"/>
        <pt x="140" y="579" on="0"/>
        <pt x="304" y="579" on="0"/>
        <pt x="383" y="494" on="0"/>
        <pt x="383" y="423" on="1"/>
        <pt x="383" y="249" on="1"/>
        <pt x="129" y="249" on="1"/>
        <pt x="129" y="148" on="1"/>
        <pt x="129" y="103" on="0"/>
        <pt x="185" y="59" on="0"/>
        <pt x="303" y="59" on="0"/>
        <pt x="366" y="77" on="1"/>
        <pt x="366" y="11" on="1"/>
        <pt x="316" y="-5" on="0"/>
        <pt x="247" y="-5" on="1"/>
        <pt x="59" y="-5" on="0"/>
      </contour>
      <contour>
        <pt x="129" y="308" on="1"/>
        <pt x="315" y="308" on="1"/>
        <pt x="315" y="423" on="1"/>
        <pt x="315" y="517" on="0"/>
        <pt x="129" y="517" on="0"/>
        <pt x="129" y="423" on="1"/>
      </contour>
      <contour>
        <pt x="196" y="628" on="0"/>
        <pt x="119" y="628" on="0"/>
        <pt x="119" y="703" on="0"/>
        <pt x="196" y="703" on="0"/>
      </contour>
      <contour>
        <pt x="330" y="628" on="0"/>
        <pt x="254" y="628" on="0"/>
        <pt x="254" y="703" on="0"/>
        <pt x="330" y="703" on="0"/>
      </contour>
    </TTGlyph>
    <TTGlyph name="edotaccent" xMin="59" yMin="-5" xMax="383" yMax="726">
      <contour>
        <pt x="59" y="145" on="1"/>
        <pt x="59" y="423" on="1"/>
        <pt x="59" y="494" on="0"/>
        <pt x="140" y="579" on="0"/>
        <pt x="304" y="579" on="0"/>
        <pt x="383" y="494" on="0"/>
        <pt x="383" y="423" on="1"/>
        <pt x="383" y="249" on="1"/>
        <pt x="129" y="249" on="1"/>
        <pt x="129" y="148" on="1"/>
        <pt x="129" y="103" on="0"/>
        <pt x="185" y="59" on="0"/>
        <pt x="303" y="59" on="0"/>
        <pt x="366" y="77" on="1"/>
        <pt x="366" y="11" on="1"/>
        <pt x="316" y="-5" on="0"/>
        <pt x="247" y="-5" on="1"/>
        <pt x="59" y="-5" on="0"/>
      </contour>
      <contour>
        <pt x="129" y="308" on="1"/>
        <pt x="315" y="308" on="1"/>
        <pt x="315" y="423" on="1"/>
        <pt x="315" y="517" on="0"/>
        <pt x="129" y="517" on="0"/>
        <pt x="129" y="423" on="1"/>
      </contour>
      <contour>
        <pt x="263" y="651" on="0"/>
        <pt x="186" y="651" on="0"/>
        <pt x="186" y="726" on="0"/>
        <pt x="263" y="726" on="0"/>
      </contour>
    </TTGlyph>
</ttFont>
